{"glyphs":{"0":{"ha":969,"x_min":39,"x_max":964,"o":"m 418 -14 q 204 33 292 -12 q 78 159 117 78 q 54 347 39 240 q 70 436 60 385 q 92 539 81 488 q 114 631 104 590 q 203 816 144 736 q 355 941 261 896 q 582 986 449 986 q 792 941 704 986 q 922 816 881 896 q 947 631 964 736 q 931 539 942 590 q 910 436 921 488 q 888 347 899 385 q 801 159 858 240 q 651 33 744 78 q 418 -14 557 -12 m 443 224 q 531 258 497 224 q 579 354 564 292 q 601 442 590 394 q 621 536 611 489 q 636 622 631 583 q 631 717 646 682 q 558 753 615 751 q 470 717 501 751 q 422 622 439 682 q 401 536 413 583 q 381 442 390 489 q 365 354 372 394 q 372 258 356 292 q 443 224 388 224 z "},"1":{"ha":728,"x_min":67,"x_max":758,"o":"m 294 0 q 271 10 279 0 q 265 36 263 21 l 393 629 l 201 503 q 172 497 186 493 q 151 514 158 500 l 72 657 q 73 685 67 669 q 93 708 79 700 l 475 963 q 491 970 485 968 q 508 972 497 972 l 726 972 q 750 962 742 972 q 756 936 758 951 l 564 36 q 549 10 561 21 q 521 0 536 0 l 294 0 z "},"2":{"ha":940,"x_min":-10,"x_max":960,"o":"m 21 0 q -2 10 6 0 q -7 36 -10 21 l 18 157 q 31 189 21 167 q 69 229 40 211 l 165 306 q 411 467 313 401 q 563 581 510 532 q 625 671 617 629 q 621 728 632 704 q 563 753 610 753 q 503 738 528 753 q 465 700 479 722 q 440 658 450 678 q 414 633 429 639 q 382 626 399 626 l 164 626 q 145 635 151 626 q 140 656 139 643 q 200 790 157 729 q 306 896 243 850 q 447 966 368 942 q 613 990 525 990 q 815 953 735 990 q 927 847 894 915 q 939 685 960 779 q 878 551 925 613 q 757 432 831 489 q 589 315 683 375 l 506 249 l 831 249 q 854 238 846 249 q 860 211 863 226 l 822 36 q 806 10 819 21 q 778 0 793 0 l 21 0 z "},"3":{"ha":950,"x_min":19,"x_max":976,"o":"m 396 -14 q 205 14 281 -14 q 88 84 129 42 q 33 175 47 126 q 26 265 19 224 q 40 287 29 278 q 64 296 51 296 l 294 296 q 319 290 311 296 q 335 271 328 283 q 354 242 340 254 q 391 226 368 231 q 447 221 414 221 q 543 248 507 221 q 589 319 579 275 q 573 384 599 364 q 489 404 547 404 l 325 404 q 301 415 310 404 q 297 440 293 426 l 317 536 q 331 569 321 556 q 353 588 342 582 l 596 736 l 219 736 q 197 747 206 736 q 190 772 188 758 l 225 936 q 241 962 228 951 q 269 972 254 972 l 944 972 q 968 962 960 972 q 974 936 976 951 l 942 789 q 927 758 938 771 q 907 739 917 746 l 688 586 l 692 583 q 816 537 764 569 q 891 446 868 504 q 894 299 914 388 q 803 134 874 204 q 627 25 732 64 q 396 -14 522 -14 z "},"4":{"ha":1006,"x_min":-7,"x_max":964,"o":"m 469 0 q 447 10 456 0 q 440 36 438 21 l 469 174 l 24 174 q 1 184 8 174 q -4 210 -7 194 l 31 375 q 41 401 35 392 q 54 417 47 411 l 567 949 q 622 972 590 972 l 890 972 q 914 962 906 972 q 919 936 922 951 l 808 418 l 931 418 q 956 408 947 418 q 961 382 964 397 l 924 210 q 908 184 921 194 q 879 174 894 174 l 757 174 l 728 36 q 713 10 725 21 q 685 0 700 0 l 469 0 m 340 406 l 528 406 l 583 667 l 340 406 z "},"5":{"ha":928,"x_min":-6,"x_max":928,"o":"m 390 -17 q 167 26 257 -17 q 35 136 76 68 q 8 285 -6 204 q 22 306 11 297 q 44 315 32 315 l 276 315 q 308 307 297 315 q 319 290 318 299 q 338 251 326 267 q 369 227 350 235 q 415 219 388 219 q 476 233 446 219 q 527 272 506 246 q 557 335 549 297 q 544 414 567 382 q 468 446 521 446 q 422 440 440 446 q 389 425 403 433 q 364 410 375 417 q 342 404 353 404 l 113 404 q 92 415 99 404 q 90 440 86 426 l 247 928 q 271 961 254 950 q 306 972 288 972 l 896 972 q 919 962 910 972 q 925 936 928 951 l 890 772 q 874 747 886 758 q 846 736 861 736 l 442 736 l 397 597 q 478 633 436 621 q 590 644 521 644 q 712 619 656 644 q 807 550 768 594 q 861 445 846 506 q 861 314 876 385 q 785 144 842 218 q 631 26 729 69 q 390 -17 533 -17 z "},"6":{"ha":932,"x_min":19,"x_max":919,"o":"m 401 -14 q 186 29 275 -14 q 58 152 97 72 q 42 340 19 232 q 74 428 50 383 q 126 512 97 472 q 183 583 156 551 q 229 632 211 614 l 532 944 q 553 962 539 951 q 589 972 568 972 l 821 972 q 840 963 833 972 q 844 942 847 954 q 840 931 843 936 q 835 924 838 926 l 601 681 q 615 681 608 681 q 628 682 622 682 q 739 655 683 679 q 838 588 794 631 q 901 485 882 546 q 904 346 919 424 q 812 164 882 246 q 635 34 742 82 q 401 -14 529 -14 m 449 222 q 514 235 483 222 q 567 276 544 249 q 599 342 590 303 q 595 406 607 379 q 558 446 583 432 q 499 460 533 460 q 433 446 465 460 q 379 406 401 432 q 349 342 357 379 q 353 276 342 303 q 390 235 364 249 q 449 222 415 222 z "},"7":{"ha":832,"x_min":97,"x_max":929,"o":"m 124 0 q 104 9 111 0 q 100 31 97 18 q 106 43 103 39 l 560 725 l 161 725 q 138 735 146 725 q 133 761 131 746 l 169 936 q 185 962 172 951 q 214 972 199 972 l 899 972 q 922 962 915 972 q 926 936 929 951 l 894 783 q 881 745 889 761 q 864 715 872 729 l 407 32 q 385 13 400 25 q 346 0 371 0 l 124 0 z "},"8":{"ha":961,"x_min":15,"x_max":943,"o":"m 414 -14 q 183 32 274 -14 q 53 151 92 78 q 32 304 15 224 q 97 432 47 378 q 206 515 146 486 q 157 598 174 547 q 153 708 140 649 q 220 847 168 783 q 361 948 272 910 q 578 986 450 986 q 788 944 706 986 q 907 835 871 903 q 926 693 943 768 q 883 590 914 633 q 799 515 853 547 q 873 417 851 478 q 879 285 894 356 q 808 136 863 204 q 656 27 753 68 q 414 -14 560 -14 m 432 192 q 500 204 468 192 q 554 241 532 217 q 582 296 576 265 q 563 374 592 346 q 479 401 533 401 q 411 389 443 401 q 357 353 379 376 q 329 296 335 329 q 348 219 318 247 q 432 192 378 192 m 518 593 q 580 606 551 594 q 628 639 608 618 q 653 686 647 660 q 637 753 661 728 q 560 779 613 779 q 497 767 525 779 q 449 735 468 756 q 425 686 431 714 q 440 620 417 647 q 518 593 464 593 z "},"9":{"ha":919,"x_min":85,"x_max":967,"o":"m 163 0 q 143 9 150 0 q 139 31 136 18 q 144 42 140 38 q 150 49 147 46 l 393 304 q 367 303 379 301 q 256 331 310 307 q 161 395 201 354 q 103 496 121 436 q 101 632 85 556 q 156 764 117 700 q 259 878 196 828 q 407 957 322 928 q 594 986 492 986 q 773 960 699 986 q 892 888 847 935 q 951 779 936 842 q 951 643 967 717 q 900 520 938 578 q 813 410 863 463 q 714 303 764 357 l 453 28 q 432 10 446 21 q 394 0 418 0 l 163 0 m 499 515 q 563 529 533 515 q 613 569 592 543 q 642 632 633 596 q 640 696 650 669 q 606 736 631 722 q 549 750 582 750 q 485 736 515 750 q 435 696 456 722 q 406 632 414 669 q 408 569 399 596 q 440 529 417 543 q 499 515 464 515 z "},"A":{"ha":1029,"x_min":-79,"x_max":946,"o":"m -50 0 q -72 13 -65 0 q -71 40 -79 26 l 435 929 q 460 958 443 944 q 503 972 476 972 l 764 972 q 801 958 790 972 q 814 929 813 944 l 943 40 q 934 11 946 22 q 907 0 922 0 l 699 0 q 666 11 675 0 q 654 33 657 22 l 635 149 l 301 149 l 232 32 q 213 10 226 21 q 176 0 200 0 l -50 0 m 414 383 l 621 383 l 585 696 l 414 383 z "},"Á":{"ha":1029,"x_min":-79,"x_max":1006,"o":"m -50 0 q -72 13 -65 0 q -71 40 -79 26 l 435 929 q 460 958 443 944 q 503 972 476 972 l 764 972 q 801 958 790 972 q 814 929 813 944 l 943 40 q 934 11 946 22 q 907 0 922 0 l 699 0 q 666 11 675 0 q 654 33 657 22 l 635 149 l 301 149 l 232 32 q 213 10 226 21 q 176 0 200 0 l -50 0 m 414 383 l 621 383 l 585 696 l 414 383 m 535 1042 q 517 1063 513 1042 q 526 1082 518 1074 l 693 1242 q 722 1263 711 1258 q 750 1268 733 1268 l 982 1268 q 1000 1260 994 1268 q 1004 1242 1006 1253 q 992 1224 1003 1231 l 765 1064 q 738 1048 751 1054 q 704 1042 725 1042 l 535 1042 z "},"Ă":{"ha":1029,"x_min":-79,"x_max":946,"o":"m -50 0 q -72 13 -65 0 q -71 40 -79 26 l 435 929 q 460 958 443 944 q 503 972 476 972 l 764 972 q 801 958 790 972 q 814 929 813 944 l 943 40 q 934 11 946 22 q 907 0 922 0 l 699 0 q 666 11 675 0 q 654 33 657 22 l 635 149 l 301 149 l 232 32 q 213 10 226 21 q 176 0 200 0 l -50 0 m 414 383 l 621 383 l 585 696 l 414 383 m 649 1033 q 527 1061 576 1033 q 458 1135 478 1089 q 450 1240 438 1182 q 461 1259 453 1251 q 482 1267 469 1267 l 597 1267 q 615 1259 610 1267 q 618 1240 621 1251 q 619 1185 613 1208 q 661 1161 625 1161 q 716 1185 697 1161 q 740 1240 735 1208 q 751 1259 743 1251 q 772 1267 760 1267 l 888 1267 q 906 1259 900 1267 q 908 1240 911 1251 q 868 1135 897 1182 q 786 1061 839 1089 q 649 1033 733 1033 z "},"Â":{"ha":1029,"x_min":-79,"x_max":946,"o":"m -50 0 q -72 13 -65 0 q -71 40 -79 26 l 435 929 q 460 958 443 944 q 503 972 476 972 l 764 972 q 801 958 790 972 q 814 929 813 944 l 943 40 q 934 11 946 22 q 907 0 922 0 l 699 0 q 666 11 675 0 q 654 33 657 22 l 635 149 l 301 149 l 232 32 q 213 10 226 21 q 176 0 200 0 l -50 0 m 414 383 l 621 383 l 585 696 l 414 383 m 369 1042 q 351 1063 349 1042 q 363 1081 354 1074 l 547 1242 q 577 1263 565 1257 q 603 1268 589 1268 l 753 1268 q 777 1263 767 1268 q 797 1242 788 1257 l 914 1081 q 917 1063 919 1074 q 892 1042 913 1042 l 815 1042 q 790 1043 801 1042 q 767 1051 779 1044 l 656 1114 l 518 1051 q 492 1044 504 1046 q 467 1042 479 1042 l 369 1042 z "},"Ä":{"ha":1029,"x_min":-79,"x_max":964,"o":"m -50 0 q -72 13 -65 0 q -71 40 -79 26 l 435 929 q 460 958 443 944 q 503 972 476 972 l 764 972 q 801 958 790 972 q 814 929 813 944 l 943 40 q 934 11 946 22 q 907 0 922 0 l 699 0 q 666 11 675 0 q 654 33 657 22 l 635 149 l 301 149 l 232 32 q 213 10 226 21 q 176 0 200 0 l -50 0 m 414 383 l 621 383 l 585 696 l 414 383 m 742 1042 q 721 1050 728 1042 q 717 1074 714 1058 l 749 1224 q 762 1247 751 1238 q 786 1256 772 1256 l 936 1256 q 957 1247 950 1256 q 961 1224 964 1238 l 931 1074 q 917 1050 928 1058 q 892 1042 906 1042 l 742 1042 m 390 1042 q 369 1050 376 1042 q 365 1074 363 1058 l 397 1224 q 410 1247 400 1238 q 435 1256 421 1256 l 585 1256 q 606 1247 599 1256 q 610 1224 613 1238 l 579 1074 q 565 1050 576 1058 q 540 1042 554 1042 l 390 1042 z "},"À":{"ha":1029,"x_min":-79,"x_max":946,"o":"m -50 0 q -72 13 -65 0 q -71 40 -79 26 l 435 929 q 460 958 443 944 q 503 972 476 972 l 764 972 q 801 958 790 972 q 814 929 813 944 l 943 40 q 934 11 946 22 q 907 0 922 0 l 699 0 q 666 11 675 0 q 654 33 657 22 l 635 149 l 301 149 l 232 32 q 213 10 226 21 q 176 0 200 0 l -50 0 m 414 383 l 621 383 l 585 696 l 414 383 m 572 1042 q 542 1048 551 1042 q 522 1064 532 1054 l 363 1222 q 358 1240 356 1229 q 390 1268 363 1268 l 613 1268 q 638 1263 629 1268 q 658 1242 647 1258 l 754 1082 q 757 1064 760 1075 q 731 1042 753 1042 l 572 1042 z "},"Ā":{"ha":1029,"x_min":-79,"x_max":946,"o":"m -50 0 q -72 13 -65 0 q -71 40 -79 26 l 435 929 q 460 958 443 944 q 503 972 476 972 l 764 972 q 801 958 790 972 q 814 929 813 944 l 943 40 q 934 11 946 22 q 907 0 922 0 l 699 0 q 666 11 675 0 q 654 33 657 22 l 635 149 l 301 149 l 232 32 q 213 10 226 21 q 176 0 200 0 l -50 0 m 414 383 l 621 383 l 585 696 l 414 383 m 401 1042 q 381 1051 388 1042 q 376 1074 374 1060 l 401 1196 q 415 1219 404 1210 q 440 1228 426 1228 l 918 1228 q 939 1219 932 1228 q 943 1196 946 1210 l 917 1074 q 903 1051 914 1060 q 878 1042 892 1042 l 401 1042 z "},"Ą":{"ha":1022,"x_min":-76,"x_max":938,"o":"m 793 -306 q 670 -275 714 -306 q 613 -192 626 -244 q 614 -76 600 -140 q 635 -23 621 -46 q 667 14 649 0 q 647 26 653 17 q 642 44 642 36 l 625 149 l 289 149 l 221 32 q 202 11 215 22 q 164 0 189 0 l -50 0 q -69 9 -62 0 q -74 31 -76 18 q -73 35 -74 33 q -71 40 -72 38 l 438 929 q 462 958 444 944 q 504 972 479 972 l 758 972 q 796 958 785 972 q 808 929 807 944 l 936 40 q 937 35 938 38 q 936 31 936 33 q 922 9 933 18 q 900 0 911 0 l 857 0 q 798 -26 819 -1 q 771 -76 776 -50 q 777 -128 765 -104 q 831 -153 789 -153 l 846 -153 q 869 -163 861 -153 q 875 -189 878 -174 l 858 -269 q 842 -295 856 -285 q 814 -306 829 -306 l 793 -306 m 403 383 l 611 383 l 574 696 l 403 383 z "},"Å":{"ha":1029,"x_min":-79,"x_max":946,"o":"m -50 0 q -72 13 -65 0 q -71 40 -79 26 l 435 929 q 460 958 443 944 q 503 972 476 972 l 764 972 q 801 958 790 972 q 814 929 813 944 l 943 40 q 934 11 946 22 q 907 0 922 0 l 699 0 q 666 11 675 0 q 654 33 657 22 l 635 149 l 301 149 l 232 32 q 213 10 226 21 q 176 0 200 0 l -50 0 m 414 383 l 621 383 l 585 696 l 414 383 m 636 1028 q 549 1064 582 1028 q 529 1154 517 1100 q 587 1246 540 1210 q 689 1282 633 1282 q 776 1246 743 1282 q 796 1154 808 1210 q 738 1064 785 1100 q 636 1028 692 1028 m 653 1113 q 686 1124 672 1113 q 704 1154 700 1136 q 699 1184 708 1172 q 671 1196 690 1196 q 639 1184 653 1196 q 621 1154 625 1172 q 626 1124 617 1136 q 653 1113 635 1113 z "},"Ã":{"ha":1029,"x_min":-79,"x_max":954,"o":"m -50 0 q -72 13 -65 0 q -71 40 -79 26 l 435 929 q 460 958 443 944 q 503 972 476 972 l 764 972 q 801 958 790 972 q 814 929 813 944 l 943 40 q 934 11 946 22 q 907 0 922 0 l 699 0 q 666 11 675 0 q 654 33 657 22 l 635 149 l 301 149 l 232 32 q 213 10 226 21 q 176 0 200 0 l -50 0 m 414 383 l 621 383 l 585 696 l 414 383 m 749 1035 q 683 1047 710 1035 q 637 1072 657 1060 q 590 1085 617 1085 q 558 1074 569 1085 q 537 1053 546 1064 q 513 1042 528 1042 l 413 1042 q 397 1049 403 1042 q 392 1067 390 1057 q 410 1122 397 1089 q 447 1188 424 1156 q 506 1242 469 1221 q 593 1264 543 1264 q 659 1251 633 1264 q 706 1226 685 1239 q 753 1214 728 1214 q 785 1225 774 1214 q 806 1247 797 1236 q 831 1257 815 1257 l 931 1257 q 948 1249 943 1257 q 951 1232 953 1242 q 933 1176 946 1208 q 895 1110 919 1143 q 835 1056 871 1078 q 749 1035 799 1035 z "},"Æ":{"ha":1392,"x_min":-71,"x_max":1440,"o":"m -42 0 q -65 15 -60 0 q -62 42 -71 29 l 443 931 q 467 959 450 946 q 508 972 485 972 l 1408 972 q 1432 962 1424 972 q 1438 936 1440 951 l 1403 772 q 1386 747 1399 758 q 1358 736 1374 736 l 964 736 l 933 599 l 1299 599 q 1322 588 1314 599 q 1328 563 1331 578 l 1296 413 q 1280 387 1293 397 q 1251 376 1267 376 l 886 376 l 857 236 l 1263 236 q 1286 225 1278 236 q 1292 199 1294 214 l 1257 36 q 1242 10 1254 21 q 1214 0 1229 0 l 556 0 q 533 10 542 0 q 526 36 524 21 l 551 149 l 308 149 l 240 32 q 221 10 233 21 q 183 0 208 0 l -42 0 m 421 383 l 600 383 l 675 735 l 611 735 l 421 383 z "},"Ǽ":{"ha":1392,"x_min":-71,"x_max":1440,"o":"m -42 0 q -65 15 -60 0 q -62 42 -71 29 l 443 931 q 467 959 450 946 q 508 972 485 972 l 1408 972 q 1432 962 1424 972 q 1438 936 1440 951 l 1403 772 q 1386 747 1399 758 q 1358 736 1374 736 l 964 736 l 933 599 l 1299 599 q 1322 588 1314 599 q 1328 563 1331 578 l 1296 413 q 1280 387 1293 397 q 1251 376 1267 376 l 886 376 l 857 236 l 1263 236 q 1286 225 1278 236 q 1292 199 1294 214 l 1257 36 q 1242 10 1254 21 q 1214 0 1229 0 l 556 0 q 533 10 542 0 q 526 36 524 21 l 551 149 l 308 149 l 240 32 q 221 10 233 21 q 183 0 208 0 l -42 0 m 421 383 l 600 383 l 675 735 l 611 735 l 421 383 m 754 1042 q 736 1063 732 1042 q 746 1082 738 1074 l 913 1242 q 942 1263 931 1258 q 969 1268 953 1268 l 1201 1268 q 1219 1260 1214 1268 q 1224 1242 1225 1253 q 1211 1224 1222 1231 l 985 1064 q 958 1048 971 1054 q 924 1042 944 1042 l 754 1042 z "},"B":{"ha":999,"x_min":3,"x_max":1008,"o":"m 36 0 q 12 10 21 0 q 6 36 3 21 l 199 936 q 214 962 201 951 q 242 972 226 972 l 661 972 q 860 939 781 972 q 974 843 940 906 q 989 689 1008 781 q 952 603 979 640 q 894 543 925 567 q 838 508 863 519 q 914 428 886 483 q 926 300 942 372 q 855 136 906 203 q 720 35 804 69 q 514 0 636 0 l 36 0 m 342 210 l 503 210 q 579 238 550 210 q 614 301 608 267 q 607 365 624 338 q 542 392 590 392 l 381 392 l 342 210 m 424 596 l 571 596 q 641 621 614 596 q 676 679 668 646 q 669 738 683 713 q 611 763 654 763 l 460 763 l 424 596 z "},"C":{"ha":994,"x_min":33,"x_max":1022,"o":"m 440 -14 q 267 9 346 -14 q 133 78 188 32 q 56 196 79 125 q 49 363 33 267 q 73 485 58 419 q 101 610 88 550 q 201 819 135 735 q 369 944 268 903 q 604 986 469 986 q 769 965 690 986 q 908 900 849 943 q 994 792 967 857 q 1006 642 1022 728 q 992 620 1003 629 q 969 611 982 611 l 733 611 q 705 619 714 611 q 693 649 696 628 q 660 728 692 707 q 579 750 629 750 q 474 717 518 750 q 411 603 431 685 q 361 369 382 489 q 374 255 346 288 q 464 222 403 222 q 555 244 514 222 q 624 324 596 267 q 647 353 635 346 q 679 361 658 361 l 915 361 q 935 353 928 361 q 940 332 943 344 q 874 181 918 246 q 765 73 831 117 q 618 8 700 29 q 440 -14 536 -14 z "},"Ć":{"ha":994,"x_min":33,"x_max":1022,"o":"m 440 -14 q 267 9 346 -14 q 133 78 188 32 q 56 196 79 125 q 49 363 33 267 q 73 485 58 419 q 101 610 88 550 q 201 819 135 735 q 369 944 268 903 q 604 986 469 986 q 769 965 690 986 q 908 900 849 943 q 994 792 967 857 q 1006 642 1022 728 q 992 620 1003 629 q 969 611 982 611 l 733 611 q 705 619 714 611 q 693 649 696 628 q 660 728 692 707 q 579 750 629 750 q 474 717 518 750 q 411 603 431 685 q 361 369 382 489 q 374 255 346 288 q 464 222 403 222 q 555 244 514 222 q 624 324 596 267 q 647 353 635 346 q 679 361 658 361 l 915 361 q 935 353 928 361 q 940 332 943 344 q 874 181 918 246 q 765 73 831 117 q 618 8 700 29 q 440 -14 536 -14 m 531 1042 q 513 1063 508 1042 q 522 1082 514 1074 l 689 1242 q 718 1263 707 1258 q 746 1268 729 1268 l 978 1268 q 996 1260 990 1268 q 1000 1242 1001 1253 q 988 1224 999 1231 l 761 1064 q 734 1048 747 1054 q 700 1042 721 1042 l 531 1042 z "},"Č":{"ha":994,"x_min":33,"x_max":1022,"o":"m 440 -14 q 267 9 346 -14 q 133 78 188 32 q 56 196 79 125 q 49 363 33 267 q 73 485 58 419 q 101 610 88 550 q 201 819 135 735 q 369 944 268 903 q 604 986 469 986 q 769 965 690 986 q 908 900 849 943 q 994 792 967 857 q 1006 642 1022 728 q 992 620 1003 629 q 969 611 982 611 l 733 611 q 705 619 714 611 q 693 649 696 628 q 660 728 692 707 q 579 750 629 750 q 474 717 518 750 q 411 603 431 685 q 361 369 382 489 q 374 255 346 288 q 464 222 403 222 q 555 244 514 222 q 624 324 596 267 q 647 353 635 346 q 679 361 658 361 l 915 361 q 935 353 928 361 q 940 332 943 344 q 874 181 918 246 q 765 73 831 117 q 618 8 700 29 q 440 -14 536 -14 m 561 1042 q 538 1047 547 1042 q 517 1067 528 1053 l 400 1228 q 397 1246 394 1235 q 422 1268 401 1268 l 499 1268 q 523 1266 511 1268 q 547 1258 535 1264 l 658 1194 l 796 1258 q 822 1266 810 1264 q 847 1268 833 1268 l 944 1268 q 963 1247 965 1268 q 951 1228 960 1236 l 767 1067 q 737 1047 749 1053 q 711 1042 725 1042 l 561 1042 z "},"Ç":{"ha":994,"x_min":29,"x_max":1021,"o":"m 346 -306 q 282 -293 310 -306 q 245 -264 254 -281 q 253 -235 236 -247 l 285 -211 q 307 -203 299 -200 q 327 -212 315 -206 q 364 -219 339 -219 q 399 -208 385 -219 q 417 -182 413 -197 q 411 -156 419 -167 q 381 -144 403 -144 q 352 -149 367 -144 q 324 -153 338 -153 q 304 -146 311 -154 l 282 -118 q 276 -99 275 -108 q 290 -72 278 -90 l 332 -8 q 156 48 226 4 q 58 170 86 92 q 49 363 29 249 q 72 485 58 419 q 101 610 86 550 q 210 819 135 735 q 392 944 285 903 q 628 986 500 986 q 795 965 719 986 q 924 899 871 943 q 999 792 976 856 q 1006 642 1021 728 q 992 620 1003 629 q 968 611 981 611 l 733 611 q 704 619 713 611 q 693 649 696 628 q 658 729 689 708 q 578 750 628 750 q 473 717 517 750 q 410 603 429 685 q 384 488 396 546 q 361 369 372 429 q 375 255 346 288 q 465 222 404 222 q 556 244 515 222 q 624 324 596 267 q 648 353 636 346 q 679 361 660 361 l 915 361 q 935 353 928 361 q 939 332 942 344 q 869 181 919 246 q 748 73 819 117 q 592 8 676 29 q 415 -14 507 -14 l 379 -65 q 403 -60 388 -62 q 425 -58 418 -58 q 499 -92 476 -58 q 510 -181 521 -126 q 453 -271 497 -236 q 346 -306 408 -306 z "},"Ĉ":{"ha":994,"x_min":33,"x_max":1022,"o":"m 440 -14 q 267 9 346 -14 q 133 78 188 32 q 56 196 79 125 q 49 363 33 267 q 73 485 58 419 q 101 610 88 550 q 201 819 135 735 q 369 944 268 903 q 604 986 469 986 q 769 965 690 986 q 908 900 849 943 q 994 792 967 857 q 1006 642 1022 728 q 992 620 1003 629 q 969 611 982 611 l 733 611 q 705 619 714 611 q 693 649 696 628 q 660 728 692 707 q 579 750 629 750 q 474 717 518 750 q 411 603 431 685 q 361 369 382 489 q 374 255 346 288 q 464 222 403 222 q 555 244 514 222 q 624 324 596 267 q 647 353 635 346 q 679 361 658 361 l 915 361 q 935 353 928 361 q 940 332 943 344 q 874 181 918 246 q 765 73 831 117 q 618 8 700 29 q 440 -14 536 -14 m 367 1042 q 349 1063 346 1042 q 360 1081 351 1074 l 544 1242 q 574 1263 563 1257 q 600 1268 586 1268 l 750 1268 q 774 1263 764 1268 q 794 1242 785 1257 l 911 1081 q 914 1063 917 1074 q 889 1042 910 1042 l 813 1042 q 788 1043 799 1042 q 764 1051 776 1044 l 653 1114 l 515 1051 q 489 1044 501 1046 q 464 1042 476 1042 l 367 1042 z "},"Ċ":{"ha":994,"x_min":33,"x_max":1022,"o":"m 440 -14 q 267 9 346 -14 q 133 78 188 32 q 56 196 79 125 q 49 363 33 267 q 73 485 58 419 q 101 610 88 550 q 201 819 135 735 q 369 944 268 903 q 604 986 469 986 q 769 965 690 986 q 908 900 849 943 q 994 792 967 857 q 1006 642 1022 728 q 992 620 1003 629 q 969 611 982 611 l 733 611 q 705 619 714 611 q 693 649 696 628 q 660 728 692 707 q 579 750 629 750 q 474 717 518 750 q 411 603 431 685 q 361 369 382 489 q 374 255 346 288 q 464 222 403 222 q 555 244 514 222 q 624 324 596 267 q 647 353 635 346 q 679 361 658 361 l 915 361 q 935 353 928 361 q 940 332 943 344 q 874 181 918 246 q 765 73 831 117 q 618 8 700 29 q 440 -14 536 -14 m 554 1042 q 533 1050 540 1042 q 529 1074 526 1058 l 564 1239 q 578 1262 567 1253 q 603 1271 589 1271 l 769 1271 q 790 1262 783 1271 q 794 1239 797 1253 l 758 1074 q 744 1050 756 1058 q 719 1042 733 1042 l 554 1042 z "},"D":{"ha":1010,"x_min":3,"x_max":1007,"o":"m 36 0 q 12 10 21 0 q 6 36 3 21 l 199 936 q 214 962 201 951 q 242 972 226 972 l 596 972 q 763 947 685 972 q 899 874 842 922 q 981 756 956 826 q 990 592 1007 685 q 971 486 981 532 q 946 382 961 440 q 851 167 913 251 q 692 41 790 82 q 449 0 594 0 l 36 0 m 347 236 l 465 236 q 547 251 511 236 q 606 299 582 267 q 643 383 631 332 q 661 456 654 424 q 674 519 668 488 q 688 590 681 551 q 667 701 700 667 q 565 736 635 736 l 454 736 l 347 236 z "},"Ð":{"ha":1038,"x_min":19,"x_max":1035,"o":"m 63 0 q 39 10 47 0 q 33 36 31 21 l 110 394 l 50 394 q 27 405 35 394 q 22 431 19 415 l 46 549 q 62 574 49 564 q 90 585 75 585 l 150 585 l 225 936 q 240 962 228 951 q 268 972 253 972 l 624 972 q 790 947 713 972 q 925 874 868 922 q 1008 756 982 826 q 1017 592 1035 685 q 997 486 1007 532 q 972 382 988 440 q 878 167 940 251 q 719 41 817 82 q 475 0 621 0 l 63 0 m 374 236 l 492 236 q 573 251 538 236 q 633 299 608 267 q 669 383 657 332 q 688 456 681 424 q 702 519 696 488 q 714 590 708 551 q 694 701 728 667 q 592 736 661 736 l 481 736 l 449 585 l 550 585 q 574 574 565 585 q 579 549 582 564 l 554 431 q 538 405 551 415 q 510 394 525 394 l 408 394 l 374 236 z "},"Ď":{"ha":1010,"x_min":3,"x_max":1007,"o":"m 36 0 q 12 10 21 0 q 6 36 3 21 l 199 936 q 214 962 201 951 q 242 972 226 972 l 596 972 q 763 947 685 972 q 899 874 842 922 q 981 756 956 826 q 990 592 1007 685 q 971 486 981 532 q 946 382 961 440 q 851 167 913 251 q 692 41 790 82 q 449 0 594 0 l 36 0 m 347 236 l 465 236 q 547 251 511 236 q 606 299 582 267 q 643 383 631 332 q 661 456 654 424 q 674 519 668 488 q 688 590 681 551 q 667 701 700 667 q 565 736 635 736 l 454 736 l 347 236 m 503 1042 q 479 1047 489 1042 q 458 1067 469 1053 l 342 1228 q 339 1246 336 1235 q 364 1268 343 1268 l 440 1268 q 465 1266 453 1268 q 489 1258 476 1264 l 600 1194 l 738 1258 q 763 1266 751 1264 q 789 1268 775 1268 l 886 1268 q 904 1247 907 1268 q 893 1228 901 1236 l 708 1067 q 678 1047 690 1053 q 653 1042 667 1042 l 503 1042 z "},"Đ":{"ha":1038,"x_min":19,"x_max":1035,"o":"m 63 0 q 39 10 47 0 q 33 36 31 21 l 110 394 l 50 394 q 27 405 35 394 q 22 431 19 415 l 46 549 q 62 574 49 564 q 90 585 75 585 l 150 585 l 225 936 q 240 962 228 951 q 268 972 253 972 l 624 972 q 790 947 713 972 q 925 874 868 922 q 1008 756 982 826 q 1017 592 1035 685 q 997 486 1007 532 q 972 382 988 440 q 878 167 940 251 q 719 41 817 82 q 475 0 621 0 l 63 0 m 374 236 l 492 236 q 573 251 538 236 q 633 299 608 267 q 669 383 657 332 q 688 456 681 424 q 702 519 696 488 q 714 590 708 551 q 694 701 728 667 q 592 736 661 736 l 481 736 l 449 585 l 550 585 q 574 574 565 585 q 579 549 582 564 l 554 431 q 538 405 551 415 q 510 394 525 394 l 408 394 l 374 236 z "},"E":{"ha":906,"x_min":3,"x_max":954,"o":"m 36 0 q 12 10 21 0 q 6 36 3 21 l 199 936 q 214 962 201 951 q 242 972 226 972 l 922 972 q 946 962 938 972 q 951 936 954 951 l 917 772 q 901 747 914 758 q 872 736 888 736 l 443 736 l 413 599 l 811 599 q 835 588 826 599 q 842 563 844 578 l 808 413 q 792 387 806 397 q 764 376 779 376 l 365 376 l 336 236 l 776 236 q 800 225 792 236 q 806 199 808 214 l 771 36 q 756 10 768 21 q 728 0 743 0 l 36 0 z "},"É":{"ha":906,"x_min":3,"x_max":954,"o":"m 36 0 q 12 10 21 0 q 6 36 3 21 l 199 936 q 214 962 201 951 q 242 972 226 972 l 922 972 q 946 962 938 972 q 951 936 954 951 l 917 772 q 901 747 914 758 q 872 736 888 736 l 443 736 l 413 599 l 811 599 q 835 588 826 599 q 842 563 844 578 l 808 413 q 792 387 806 397 q 764 376 779 376 l 365 376 l 336 236 l 776 236 q 800 225 792 236 q 806 199 808 214 l 771 36 q 756 10 768 21 q 728 0 743 0 l 36 0 m 483 1042 q 465 1063 461 1042 q 475 1082 467 1074 l 642 1242 q 671 1263 660 1258 q 699 1268 682 1268 l 931 1268 q 949 1260 943 1268 q 953 1242 954 1253 q 940 1224 951 1231 l 714 1064 q 687 1048 700 1054 q 653 1042 674 1042 l 483 1042 z "},"Ĕ":{"ha":906,"x_min":3,"x_max":954,"o":"m 36 0 q 12 10 21 0 q 6 36 3 21 l 199 936 q 214 962 201 951 q 242 972 226 972 l 922 972 q 946 962 938 972 q 951 936 954 951 l 917 772 q 901 747 914 758 q 872 736 888 736 l 443 736 l 413 599 l 811 599 q 835 588 826 599 q 842 563 844 578 l 808 413 q 792 387 806 397 q 764 376 779 376 l 365 376 l 336 236 l 776 236 q 800 225 792 236 q 806 199 808 214 l 771 36 q 756 10 768 21 q 728 0 743 0 l 36 0 m 599 1033 q 477 1061 526 1033 q 408 1135 428 1089 q 400 1240 388 1182 q 411 1259 403 1251 q 432 1267 419 1267 l 547 1267 q 565 1259 560 1267 q 568 1240 571 1251 q 569 1185 563 1208 q 611 1161 575 1161 q 666 1185 647 1161 q 690 1240 685 1208 q 701 1259 693 1251 q 722 1267 710 1267 l 838 1267 q 856 1259 850 1267 q 858 1240 861 1251 q 818 1135 847 1182 q 736 1061 789 1089 q 599 1033 683 1033 z "},"Ě":{"ha":906,"x_min":3,"x_max":954,"o":"m 36 0 q 12 10 21 0 q 6 36 3 21 l 199 936 q 214 962 201 951 q 242 972 226 972 l 922 972 q 946 962 938 972 q 951 936 954 951 l 917 772 q 901 747 914 758 q 872 736 888 736 l 443 736 l 413 599 l 811 599 q 835 588 826 599 q 842 563 844 578 l 808 413 q 792 387 806 397 q 764 376 779 376 l 365 376 l 336 236 l 776 236 q 800 225 792 236 q 806 199 808 214 l 771 36 q 756 10 768 21 q 728 0 743 0 l 36 0 m 514 1042 q 490 1047 500 1042 q 469 1067 481 1053 l 353 1228 q 350 1246 347 1235 q 375 1268 354 1268 l 451 1268 q 476 1266 464 1268 q 500 1258 488 1264 l 611 1194 l 749 1258 q 774 1266 763 1264 q 800 1268 786 1268 l 897 1268 q 915 1247 918 1268 q 904 1228 913 1236 l 719 1067 q 690 1047 701 1053 q 664 1042 678 1042 l 514 1042 z "},"Ê":{"ha":906,"x_min":3,"x_max":954,"o":"m 36 0 q 12 10 21 0 q 6 36 3 21 l 199 936 q 214 962 201 951 q 242 972 226 972 l 922 972 q 946 962 938 972 q 951 936 954 951 l 917 772 q 901 747 914 758 q 872 736 888 736 l 443 736 l 413 599 l 811 599 q 835 588 826 599 q 842 563 844 578 l 808 413 q 792 387 806 397 q 764 376 779 376 l 365 376 l 336 236 l 776 236 q 800 225 792 236 q 806 199 808 214 l 771 36 q 756 10 768 21 q 728 0 743 0 l 36 0 m 318 1042 q 300 1063 297 1042 q 311 1081 303 1074 l 496 1242 q 526 1263 514 1257 q 551 1268 538 1268 l 701 1268 q 726 1263 715 1268 q 746 1242 736 1257 l 863 1081 q 865 1063 868 1074 q 840 1042 861 1042 l 764 1042 q 739 1043 750 1042 q 715 1051 728 1044 l 604 1114 l 467 1051 q 440 1044 453 1046 q 415 1042 428 1042 l 318 1042 z "},"Ë":{"ha":906,"x_min":3,"x_max":954,"o":"m 36 0 q 12 10 21 0 q 6 36 3 21 l 199 936 q 214 962 201 951 q 242 972 226 972 l 922 972 q 946 962 938 972 q 951 936 954 951 l 917 772 q 901 747 914 758 q 872 736 888 736 l 443 736 l 413 599 l 811 599 q 835 588 826 599 q 842 563 844 578 l 808 413 q 792 387 806 397 q 764 376 779 376 l 365 376 l 336 236 l 776 236 q 800 225 792 236 q 806 199 808 214 l 771 36 q 756 10 768 21 q 728 0 743 0 l 36 0 m 692 1042 q 671 1050 678 1042 q 667 1074 664 1058 l 699 1224 q 712 1247 701 1238 q 736 1256 722 1256 l 886 1256 q 907 1247 900 1256 q 911 1224 914 1238 l 881 1074 q 867 1050 878 1058 q 842 1042 856 1042 l 692 1042 m 340 1042 q 319 1050 326 1042 q 315 1074 313 1058 l 347 1224 q 360 1247 350 1238 q 385 1256 371 1256 l 535 1256 q 556 1247 549 1256 q 560 1224 563 1238 l 529 1074 q 515 1050 526 1058 q 490 1042 504 1042 l 340 1042 z "},"Ė":{"ha":906,"x_min":3,"x_max":954,"o":"m 36 0 q 12 10 21 0 q 6 36 3 21 l 199 936 q 214 962 201 951 q 242 972 226 972 l 922 972 q 946 962 938 972 q 951 936 954 951 l 917 772 q 901 747 914 758 q 872 736 888 736 l 443 736 l 413 599 l 811 599 q 835 588 826 599 q 842 563 844 578 l 808 413 q 792 387 806 397 q 764 376 779 376 l 365 376 l 336 236 l 776 236 q 800 225 792 236 q 806 199 808 214 l 771 36 q 756 10 768 21 q 728 0 743 0 l 36 0 m 506 1042 q 485 1050 492 1042 q 481 1074 478 1058 l 515 1239 q 529 1262 518 1253 q 554 1271 540 1271 l 721 1271 q 742 1262 735 1271 q 746 1239 749 1253 l 710 1074 q 696 1050 707 1058 q 671 1042 685 1042 l 506 1042 z "},"È":{"ha":906,"x_min":3,"x_max":954,"o":"m 36 0 q 12 10 21 0 q 6 36 3 21 l 199 936 q 214 962 201 951 q 242 972 226 972 l 922 972 q 946 962 938 972 q 951 936 954 951 l 917 772 q 901 747 914 758 q 872 736 888 736 l 443 736 l 413 599 l 811 599 q 835 588 826 599 q 842 563 844 578 l 808 413 q 792 387 806 397 q 764 376 779 376 l 365 376 l 336 236 l 776 236 q 800 225 792 236 q 806 199 808 214 l 771 36 q 756 10 768 21 q 728 0 743 0 l 36 0 m 521 1042 q 490 1048 500 1042 q 471 1064 481 1054 l 311 1222 q 307 1240 304 1229 q 339 1268 311 1268 l 561 1268 q 587 1263 578 1268 q 607 1242 596 1258 l 703 1082 q 706 1064 708 1075 q 679 1042 701 1042 l 521 1042 z "},"Ē":{"ha":906,"x_min":3,"x_max":954,"o":"m 36 0 q 12 10 21 0 q 6 36 3 21 l 199 936 q 214 962 201 951 q 242 972 226 972 l 922 972 q 946 962 938 972 q 951 936 954 951 l 917 772 q 901 747 914 758 q 872 736 888 736 l 443 736 l 413 599 l 811 599 q 835 588 826 599 q 842 563 844 578 l 808 413 q 792 387 806 397 q 764 376 779 376 l 365 376 l 336 236 l 776 236 q 800 225 792 236 q 806 199 808 214 l 771 36 q 756 10 768 21 q 728 0 743 0 l 36 0 m 351 1042 q 331 1051 338 1042 q 326 1074 324 1060 l 351 1196 q 365 1219 354 1210 q 390 1228 376 1228 l 868 1228 q 889 1219 882 1228 q 893 1196 896 1210 l 867 1074 q 853 1051 864 1060 q 828 1042 842 1042 l 351 1042 z "},"Ę":{"ha":906,"x_min":3,"x_max":954,"o":"m 653 -306 q 527 -272 575 -306 q 463 -184 479 -239 q 461 -65 447 -129 q 470 -31 465 -47 q 483 0 475 -14 l 36 0 q 12 10 21 0 q 6 36 3 21 l 199 936 q 214 962 201 951 q 242 972 226 972 l 922 972 q 946 962 938 972 q 951 936 954 951 l 917 772 q 900 747 913 758 q 872 736 888 736 l 443 736 l 413 599 l 811 599 q 835 588 826 599 q 842 563 844 578 l 808 413 q 792 387 806 397 q 764 376 779 376 l 365 376 l 336 236 l 776 236 q 800 225 792 236 q 806 199 808 214 l 771 36 q 756 10 768 21 q 728 0 743 0 l 704 0 q 646 -26 667 -1 q 619 -76 625 -50 q 626 -128 614 -104 q 679 -153 638 -153 l 694 -153 q 717 -163 710 -153 q 722 -189 725 -174 l 706 -269 q 690 -295 703 -285 q 663 -306 678 -306 l 653 -306 z "},"F":{"ha":878,"x_min":3,"x_max":943,"o":"m 36 0 q 12 10 21 0 q 6 36 3 21 l 199 936 q 214 962 201 951 q 242 972 226 972 l 910 972 q 934 962 925 972 q 940 936 943 951 l 901 760 q 886 735 899 746 q 858 724 874 724 l 446 724 l 413 571 l 797 571 q 821 560 813 571 q 826 535 829 550 l 789 360 q 773 334 786 344 q 744 324 760 324 l 360 324 l 299 36 q 283 10 296 21 q 256 0 271 0 l 36 0 z "},"G":{"ha":1022,"x_min":47,"x_max":1053,"o":"m 439 -14 q 212 28 301 -14 q 85 156 122 71 q 69 365 47 240 q 94 491 79 424 q 124 618 108 558 q 227 821 153 739 q 410 944 301 903 q 651 986 518 986 q 837 961 758 986 q 965 893 915 936 q 1033 797 1014 850 q 1043 686 1053 743 q 1030 665 1040 674 q 1007 657 1019 657 l 751 657 q 728 661 736 657 q 717 674 721 665 q 703 706 714 688 q 668 737 692 724 q 601 750 644 750 q 492 717 536 750 q 432 611 449 683 q 405 493 418 553 q 381 372 392 433 q 398 258 367 293 q 493 222 429 222 q 574 236 538 222 q 636 280 610 250 q 672 357 663 310 l 675 371 l 576 371 q 553 382 561 371 q 549 407 546 393 l 575 536 q 591 562 578 551 q 619 572 604 572 l 985 572 q 1008 562 1000 572 q 1014 536 1017 551 l 978 367 q 876 160 953 244 q 688 31 800 75 q 439 -14 575 -14 z "},"Ğ":{"ha":1022,"x_min":47,"x_max":1053,"o":"m 439 -14 q 212 28 301 -14 q 85 156 122 71 q 69 365 47 240 q 94 491 79 424 q 124 618 108 558 q 227 821 153 739 q 410 944 301 903 q 651 986 518 986 q 837 961 758 986 q 965 893 915 936 q 1033 797 1014 850 q 1043 686 1053 743 q 1030 665 1040 674 q 1007 657 1019 657 l 751 657 q 728 661 736 657 q 717 674 721 665 q 703 706 714 688 q 668 737 692 724 q 601 750 644 750 q 492 717 536 750 q 432 611 449 683 q 405 493 418 553 q 381 372 392 433 q 398 258 367 293 q 493 222 429 222 q 574 236 538 222 q 636 280 610 250 q 672 357 663 310 l 675 371 l 576 371 q 553 382 561 371 q 549 407 546 393 l 575 536 q 591 562 578 551 q 619 572 604 572 l 985 572 q 1008 562 1000 572 q 1014 536 1017 551 l 978 367 q 876 160 953 244 q 688 31 800 75 q 439 -14 575 -14 m 650 1033 q 528 1061 578 1033 q 459 1135 479 1089 q 451 1240 439 1182 q 463 1259 454 1251 q 483 1267 471 1267 l 599 1267 q 617 1259 611 1267 q 619 1240 622 1251 q 620 1185 614 1208 q 663 1161 626 1161 q 717 1185 699 1161 q 742 1240 736 1208 q 753 1259 744 1251 q 774 1267 761 1267 l 889 1267 q 907 1259 901 1267 q 910 1240 913 1251 q 869 1135 899 1182 q 788 1061 840 1089 q 650 1033 735 1033 z "},"Ĝ":{"ha":1022,"x_min":47,"x_max":1053,"o":"m 439 -14 q 212 28 301 -14 q 85 156 122 71 q 69 365 47 240 q 94 491 79 424 q 124 618 108 558 q 227 821 153 739 q 410 944 301 903 q 651 986 518 986 q 837 961 758 986 q 965 893 915 936 q 1033 797 1014 850 q 1043 686 1053 743 q 1030 665 1040 674 q 1007 657 1019 657 l 751 657 q 728 661 736 657 q 717 674 721 665 q 703 706 714 688 q 668 737 692 724 q 601 750 644 750 q 492 717 536 750 q 432 611 449 683 q 405 493 418 553 q 381 372 392 433 q 398 258 367 293 q 493 222 429 222 q 574 236 538 222 q 636 280 610 250 q 672 357 663 310 l 675 371 l 576 371 q 553 382 561 371 q 549 407 546 393 l 575 536 q 591 562 578 551 q 619 572 604 572 l 985 572 q 1008 562 1000 572 q 1014 536 1017 551 l 978 367 q 876 160 953 244 q 688 31 800 75 q 439 -14 575 -14 m 369 1042 q 351 1063 349 1042 q 363 1081 354 1074 l 547 1242 q 577 1263 565 1257 q 603 1268 589 1268 l 753 1268 q 777 1263 767 1268 q 797 1242 788 1257 l 914 1081 q 917 1063 919 1074 q 892 1042 913 1042 l 815 1042 q 790 1043 801 1042 q 767 1051 779 1044 l 656 1114 l 518 1051 q 492 1044 504 1046 q 467 1042 479 1042 l 369 1042 z "},"Ģ":{"ha":1022,"x_min":47,"x_max":1053,"o":"m 439 -14 q 212 28 301 -14 q 85 156 122 71 q 69 365 47 240 q 94 491 79 424 q 124 618 108 558 q 227 821 153 739 q 410 944 301 903 q 651 986 518 986 q 837 961 758 986 q 965 893 915 936 q 1033 797 1014 850 q 1043 686 1053 743 q 1030 665 1040 674 q 1007 657 1019 657 l 751 657 q 728 661 736 657 q 717 674 721 665 q 703 706 714 688 q 668 737 692 724 q 601 750 644 750 q 492 717 536 750 q 432 611 449 683 q 405 493 418 553 q 381 372 392 433 q 398 258 367 293 q 493 222 429 222 q 574 236 538 222 q 636 280 610 250 q 672 357 663 310 l 675 371 l 576 371 q 553 382 561 371 q 549 407 546 393 l 575 536 q 591 562 578 551 q 619 572 604 572 l 985 572 q 1008 562 1000 572 q 1014 536 1017 551 l 978 367 q 876 160 953 244 q 688 31 800 75 q 439 -14 575 -14 m 217 -336 q 196 -326 203 -336 q 194 -304 189 -317 l 263 -121 q 286 -85 269 -101 q 328 -69 303 -69 l 511 -69 q 528 -77 521 -69 q 533 -94 535 -85 q 528 -111 533 -101 l 417 -296 q 393 -323 408 -310 q 351 -336 378 -336 l 217 -336 z "},"Ġ":{"ha":1022,"x_min":47,"x_max":1053,"o":"m 439 -14 q 212 28 301 -14 q 85 156 122 71 q 69 365 47 240 q 94 491 79 424 q 124 618 108 558 q 227 821 153 739 q 410 944 301 903 q 651 986 518 986 q 837 961 758 986 q 965 893 915 936 q 1033 797 1014 850 q 1043 686 1053 743 q 1030 665 1040 674 q 1007 657 1019 657 l 751 657 q 728 661 736 657 q 717 674 721 665 q 703 706 714 688 q 668 737 692 724 q 601 750 644 750 q 492 717 536 750 q 432 611 449 683 q 405 493 418 553 q 381 372 392 433 q 398 258 367 293 q 493 222 429 222 q 574 236 538 222 q 636 280 610 250 q 672 357 663 310 l 675 371 l 576 371 q 553 382 561 371 q 549 407 546 393 l 575 536 q 591 562 578 551 q 619 572 604 572 l 985 572 q 1008 562 1000 572 q 1014 536 1017 551 l 978 367 q 876 160 953 244 q 688 31 800 75 q 439 -14 575 -14 m 557 1042 q 536 1050 543 1042 q 532 1074 529 1058 l 567 1239 q 581 1262 569 1253 q 606 1271 592 1271 l 772 1271 q 793 1262 786 1271 q 797 1239 800 1253 l 761 1074 q 747 1050 758 1058 q 722 1042 736 1042 l 557 1042 z "},"H":{"ha":1053,"x_min":3,"x_max":1081,"o":"m 36 0 q 12 10 21 0 q 6 36 3 19 l 199 936 q 214 962 201 951 q 242 972 226 972 l 467 972 q 490 962 482 972 q 496 936 499 951 l 429 622 l 713 622 l 779 936 q 795 962 782 951 q 824 972 808 972 l 1049 972 q 1072 962 1064 972 q 1078 936 1081 951 l 886 36 q 871 10 883 21 q 843 0 858 0 l 618 0 q 594 10 603 0 q 588 36 585 21 l 657 358 l 374 358 l 304 36 q 289 10 301 21 q 261 0 276 0 l 36 0 z "},"Ħ":{"ha":1056,"x_min":3,"x_max":1081,"o":"m 171 721 q 148 731 156 721 q 143 757 140 742 l 158 838 q 175 864 161 853 q 203 875 189 875 l 1038 875 q 1060 864 1053 875 q 1065 838 1068 853 l 1049 757 q 1033 731 1046 742 q 1004 721 1019 721 l 171 721 m 36 0 q 12 10 21 0 q 6 36 3 19 l 199 936 q 214 962 201 951 q 242 972 226 972 l 467 972 q 490 962 482 972 q 496 936 499 951 l 429 622 l 713 622 l 779 936 q 795 962 782 951 q 824 972 808 972 l 1049 972 q 1072 962 1064 972 q 1078 936 1081 951 l 886 36 q 871 10 883 21 q 843 0 858 0 l 618 0 q 594 10 603 0 q 588 36 585 21 l 657 358 l 374 358 l 304 36 q 289 10 301 21 q 261 0 276 0 l 36 0 z "},"Ĥ":{"ha":1053,"x_min":3,"x_max":1081,"o":"m 36 0 q 12 10 21 0 q 6 36 3 19 l 199 936 q 214 962 201 951 q 242 972 226 972 l 467 972 q 490 962 482 972 q 496 936 499 951 l 429 622 l 713 622 l 779 936 q 795 962 782 951 q 824 972 808 972 l 1049 972 q 1072 962 1064 972 q 1078 936 1081 951 l 886 36 q 871 10 883 21 q 843 0 858 0 l 618 0 q 594 10 603 0 q 588 36 585 21 l 657 358 l 374 358 l 304 36 q 289 10 301 21 q 261 0 276 0 l 36 0 m 378 1042 q 360 1063 357 1042 q 371 1081 363 1074 l 556 1242 q 585 1263 574 1257 q 611 1268 597 1268 l 761 1268 q 785 1263 775 1268 q 806 1242 796 1257 l 922 1081 q 925 1063 928 1074 q 900 1042 921 1042 l 824 1042 q 799 1043 810 1042 q 775 1051 788 1044 l 664 1114 l 526 1051 q 500 1044 513 1046 q 475 1042 488 1042 l 378 1042 z "},"I":{"ha":479,"x_min":3,"x_max":508,"o":"m 35 0 q 12 10 21 0 q 6 36 3 21 l 199 936 q 214 962 201 951 q 242 972 226 972 l 476 972 q 500 962 492 972 q 506 936 508 951 l 314 36 q 299 10 311 21 q 271 0 286 0 l 35 0 z "},"Ĳ":{"ha":1064,"x_min":3,"x_max":1100,"o":"m 450 -14 q 427 -3 435 -14 q 422 22 419 7 l 461 208 q 478 234 465 224 q 506 244 490 244 q 617 282 575 244 q 675 403 658 319 l 789 936 q 804 962 792 951 q 832 972 817 972 l 1068 972 q 1092 962 1083 972 q 1097 936 1100 951 l 974 357 q 882 136 944 218 q 714 20 819 54 q 450 -14 608 -14 m 36 0 q 12 10 21 0 q 6 36 3 21 l 199 936 q 214 962 201 951 q 242 972 226 972 l 476 972 q 500 962 492 972 q 506 936 508 951 l 314 36 q 299 10 311 21 q 271 0 286 0 l 36 0 z "},"Í":{"ha":479,"x_min":3,"x_max":740,"o":"m 35 0 q 12 10 21 0 q 6 36 3 21 l 199 936 q 214 962 201 951 q 242 972 226 972 l 476 972 q 500 962 492 972 q 506 936 508 951 l 314 36 q 299 10 311 21 q 271 0 286 0 l 35 0 m 269 1042 q 251 1063 247 1042 q 261 1082 253 1074 l 428 1242 q 457 1263 446 1258 q 485 1268 468 1268 l 717 1268 q 735 1260 729 1268 q 739 1242 740 1253 q 726 1224 738 1231 l 500 1064 q 473 1048 486 1054 q 439 1042 460 1042 l 269 1042 z "},"Ĭ":{"ha":479,"x_min":3,"x_max":647,"o":"m 35 0 q 12 10 21 0 q 6 36 3 21 l 199 936 q 214 962 201 951 q 242 972 226 972 l 476 972 q 500 962 492 972 q 506 936 508 951 l 314 36 q 299 10 311 21 q 271 0 286 0 l 35 0 m 385 1033 q 263 1061 313 1033 q 194 1135 214 1089 q 186 1240 174 1182 q 197 1259 189 1251 q 218 1267 206 1267 l 333 1267 q 351 1259 346 1267 q 354 1240 357 1251 q 355 1185 349 1208 q 397 1161 361 1161 q 452 1185 433 1161 q 476 1240 471 1208 q 488 1259 479 1251 q 508 1267 496 1267 l 624 1267 q 642 1259 636 1267 q 644 1240 647 1251 q 604 1135 633 1182 q 522 1061 575 1089 q 385 1033 469 1033 z "},"Î":{"ha":479,"x_min":3,"x_max":654,"o":"m 35 0 q 12 10 21 0 q 6 36 3 21 l 199 936 q 214 962 201 951 q 242 972 226 972 l 476 972 q 500 962 492 972 q 506 936 508 951 l 314 36 q 299 10 311 21 q 271 0 286 0 l 35 0 m 104 1042 q 86 1063 83 1042 q 97 1081 89 1074 l 282 1242 q 312 1263 300 1257 q 338 1268 324 1268 l 488 1268 q 512 1263 501 1268 q 532 1242 522 1257 l 649 1081 q 651 1063 654 1074 q 626 1042 647 1042 l 550 1042 q 525 1043 536 1042 q 501 1051 514 1044 l 390 1114 l 253 1051 q 226 1044 239 1046 q 201 1042 214 1042 l 104 1042 z "},"Ï":{"ha":479,"x_min":3,"x_max":700,"o":"m 35 0 q 12 10 21 0 q 6 36 3 21 l 199 936 q 214 962 201 951 q 242 972 226 972 l 476 972 q 500 962 492 972 q 506 936 508 951 l 314 36 q 299 10 311 21 q 271 0 286 0 l 35 0 m 478 1042 q 457 1050 464 1042 q 453 1074 450 1058 l 485 1224 q 498 1247 488 1238 q 522 1256 508 1256 l 672 1256 q 693 1247 686 1256 q 697 1224 700 1238 l 667 1074 q 653 1050 664 1058 q 628 1042 642 1042 l 478 1042 m 126 1042 q 106 1050 113 1042 q 101 1074 99 1058 l 133 1224 q 147 1247 136 1238 q 171 1256 157 1256 l 321 1256 q 342 1247 335 1256 q 346 1224 349 1238 l 315 1074 q 301 1050 313 1058 q 276 1042 290 1042 l 126 1042 z "},"İ":{"ha":479,"x_min":3,"x_max":535,"o":"m 35 0 q 12 10 21 0 q 6 36 3 21 l 199 936 q 214 962 201 951 q 242 972 226 972 l 476 972 q 500 962 492 972 q 506 936 508 951 l 314 36 q 299 10 311 21 q 271 0 286 0 l 35 0 m 292 1042 q 271 1050 278 1042 q 267 1074 264 1058 l 301 1239 q 315 1262 304 1253 q 340 1271 326 1271 l 507 1271 q 528 1262 521 1271 q 532 1239 535 1253 l 496 1074 q 482 1050 493 1058 q 457 1042 471 1042 l 292 1042 z "},"Ì":{"ha":479,"x_min":3,"x_max":508,"o":"m 35 0 q 12 10 21 0 q 6 36 3 21 l 199 936 q 214 962 201 951 q 242 972 226 972 l 476 972 q 500 962 492 972 q 506 936 508 951 l 314 36 q 299 10 311 21 q 271 0 286 0 l 35 0 m 307 1042 q 276 1048 286 1042 q 257 1064 267 1054 l 97 1222 q 93 1240 90 1229 q 125 1268 97 1268 l 347 1268 q 373 1263 364 1268 q 393 1242 382 1258 l 489 1082 q 492 1064 494 1075 q 465 1042 488 1042 l 307 1042 z "},"Ī":{"ha":479,"x_min":3,"x_max":681,"o":"m 35 0 q 12 10 21 0 q 6 36 3 21 l 199 936 q 214 962 201 951 q 242 972 226 972 l 476 972 q 500 962 492 972 q 506 936 508 951 l 314 36 q 299 10 311 21 q 271 0 286 0 l 35 0 m 138 1042 q 117 1051 124 1042 q 113 1074 110 1060 l 138 1196 q 151 1219 140 1210 q 176 1228 163 1228 l 654 1228 q 675 1219 668 1228 q 679 1196 682 1210 l 653 1074 q 639 1051 650 1060 q 614 1042 628 1042 l 138 1042 z "},"Į":{"ha":485,"x_min":17,"x_max":532,"o":"m 208 -308 q 85 -278 129 -308 q 29 -194 42 -247 q 29 -78 17 -142 q 50 -24 35 -47 q 83 14 65 -1 l 57 17 q 38 27 44 17 q 35 50 32 38 l 222 936 q 238 962 225 951 q 267 972 251 972 l 501 972 q 524 962 517 972 q 529 936 532 951 l 339 36 q 323 10 336 21 q 294 0 310 0 l 279 0 q 215 -25 238 0 q 188 -78 193 -50 q 193 -131 181 -106 q 247 -156 206 -156 l 263 -156 q 285 -166 276 -156 q 290 -192 293 -176 l 274 -272 q 258 -297 271 -286 q 229 -308 244 -308 l 208 -308 z "},"Ĩ":{"ha":479,"x_min":3,"x_max":689,"o":"m 35 0 q 12 10 21 0 q 6 36 3 21 l 199 936 q 214 962 201 951 q 242 972 226 972 l 476 972 q 500 962 492 972 q 506 936 508 951 l 314 36 q 299 10 311 21 q 271 0 286 0 l 35 0 m 485 1035 q 419 1047 446 1035 q 373 1072 393 1060 q 326 1085 353 1085 q 294 1074 306 1085 q 273 1053 282 1064 q 249 1042 264 1042 l 149 1042 q 133 1049 139 1042 q 128 1067 126 1057 q 147 1122 133 1089 q 183 1188 160 1156 q 242 1242 206 1221 q 329 1264 279 1264 q 395 1251 369 1264 q 442 1226 421 1239 q 489 1214 464 1214 q 522 1225 510 1214 q 542 1247 533 1236 q 567 1257 551 1257 l 667 1257 q 684 1249 679 1257 q 688 1232 689 1242 q 669 1176 682 1208 q 631 1110 656 1143 q 571 1056 607 1078 q 485 1035 535 1035 z "},"J":{"ha":947,"x_min":-17,"x_max":985,"o":"m 383 -14 q 237 8 311 -14 q 103 71 163 29 q 13 174 43 113 q -3 315 -17 235 q 10 337 0 328 q 33 346 21 346 l 269 346 q 300 336 292 346 q 313 304 308 326 q 338 242 317 263 q 407 222 360 222 q 499 257 463 222 q 551 367 535 292 l 628 728 l 197 728 q 174 738 182 728 q 168 764 165 749 l 206 936 q 221 962 208 951 q 249 972 233 972 l 953 972 q 976 962 968 972 q 982 936 985 951 l 858 357 q 772 151 832 233 q 617 27 713 68 q 383 -14 521 -14 z "},"Ĵ":{"ha":947,"x_min":-17,"x_max":985,"o":"m 383 -14 q 237 8 311 -14 q 103 71 163 29 q 13 174 43 113 q -3 315 -17 235 q 10 337 0 328 q 33 346 21 346 l 269 346 q 300 336 292 346 q 313 304 308 326 q 338 242 317 263 q 407 222 360 222 q 499 257 463 222 q 551 367 535 292 l 628 728 l 197 728 q 174 738 182 728 q 168 764 165 749 l 206 936 q 221 962 208 951 q 249 972 233 972 l 953 972 q 976 962 968 972 q 982 936 985 951 l 858 357 q 772 151 832 233 q 617 27 713 68 q 383 -14 521 -14 m 342 1042 q 324 1063 321 1042 q 335 1081 326 1074 l 519 1242 q 549 1263 538 1257 q 575 1268 561 1268 l 725 1268 q 749 1263 739 1268 q 769 1242 760 1257 l 886 1081 q 889 1063 892 1074 q 864 1042 885 1042 l 788 1042 q 763 1043 774 1042 q 739 1051 751 1044 l 628 1114 l 490 1051 q 464 1044 476 1046 q 439 1042 451 1042 l 342 1042 z "},"K":{"ha":950,"x_min":3,"x_max":1040,"o":"m 36 0 q 12 10 21 0 q 6 36 3 21 l 199 936 q 213 962 201 951 q 240 972 225 972 l 461 972 q 485 962 476 972 q 490 936 493 951 l 429 647 l 692 943 q 715 963 700 953 q 751 972 729 972 l 1011 972 q 1036 956 1032 972 q 1029 926 1040 939 l 636 483 l 860 46 q 856 14 869 28 q 826 0 842 0 l 581 0 q 547 9 558 0 q 531 31 536 18 l 367 354 l 299 36 q 284 10 296 21 q 257 0 272 0 l 36 0 z "},"Ķ":{"ha":950,"x_min":3,"x_max":1040,"o":"m 36 0 q 12 10 21 0 q 6 36 3 21 l 199 936 q 213 962 201 951 q 240 972 225 972 l 461 972 q 485 962 476 972 q 490 936 493 951 l 429 647 l 692 943 q 715 963 700 953 q 751 972 729 972 l 1011 972 q 1036 956 1032 972 q 1029 926 1040 939 l 636 483 l 860 46 q 856 14 869 28 q 826 0 842 0 l 581 0 q 547 9 558 0 q 531 31 536 18 l 367 354 l 299 36 q 284 10 296 21 q 257 0 272 0 l 36 0 m 190 -336 q 169 -326 176 -336 q 168 -304 163 -317 l 236 -121 q 260 -85 243 -101 q 301 -69 276 -69 l 485 -69 q 501 -77 494 -69 q 507 -94 508 -85 q 501 -111 507 -101 l 390 -296 q 367 -323 382 -310 q 325 -336 351 -336 l 190 -336 z "},"L":{"ha":843,"x_min":3,"x_max":788,"o":"m 36 0 q 12 10 21 0 q 6 36 3 21 l 199 936 q 214 962 201 951 q 242 972 226 972 l 472 972 q 495 962 486 972 q 501 936 504 951 l 354 247 l 757 247 q 780 237 772 247 q 785 211 788 226 l 749 36 q 733 10 746 21 q 704 0 719 0 l 36 0 z "},"Ĺ":{"ha":843,"x_min":3,"x_max":788,"o":"m 36 0 q 12 10 21 0 q 6 36 3 21 l 199 936 q 214 962 201 951 q 242 972 226 972 l 472 972 q 495 962 486 972 q 501 936 504 951 l 354 247 l 757 247 q 780 237 772 247 q 785 211 788 226 l 749 36 q 733 10 746 21 q 704 0 719 0 l 36 0 m 271 1042 q 253 1063 249 1042 q 263 1082 254 1074 l 429 1242 q 458 1263 447 1258 q 486 1268 469 1268 l 718 1268 q 736 1260 731 1268 q 740 1242 742 1253 q 728 1224 739 1231 l 501 1064 q 474 1048 488 1054 q 440 1042 461 1042 l 271 1042 z "},"Ľ":{"ha":851,"x_min":3,"x_max":897,"o":"m 579 719 q 558 729 565 719 q 557 751 551 739 l 625 935 q 649 970 632 954 q 690 986 665 986 l 874 986 q 890 978 883 986 q 896 961 897 971 q 890 944 896 954 l 779 760 q 756 733 771 746 q 714 719 740 719 l 579 719 m 36 0 q 12 10 21 0 q 6 36 3 21 l 199 936 q 214 962 201 951 q 242 972 226 972 l 472 972 q 495 962 486 972 q 501 936 504 951 l 354 247 l 757 247 q 780 237 772 247 q 785 211 788 226 l 749 36 q 733 10 746 21 q 704 0 719 0 l 36 0 z "},"Ļ":{"ha":843,"x_min":3,"x_max":788,"o":"m 36 0 q 12 10 21 0 q 6 36 3 21 l 199 936 q 214 962 201 951 q 242 972 226 972 l 472 972 q 495 962 486 972 q 501 936 504 951 l 354 247 l 757 247 q 780 237 772 247 q 785 211 788 226 l 749 36 q 733 10 746 21 q 704 0 719 0 l 36 0 m 138 -336 q 117 -326 124 -336 q 115 -304 110 -317 l 183 -121 q 207 -85 190 -101 q 249 -69 224 -69 l 432 -69 q 449 -77 442 -69 q 454 -94 456 -85 q 449 -111 454 -101 l 338 -296 q 314 -323 329 -310 q 272 -336 299 -336 l 138 -336 z "},"Ŀ":{"ha":850,"x_min":3,"x_max":824,"o":"m 36 0 q 12 10 21 0 q 6 36 3 21 l 199 936 q 214 962 201 951 q 242 972 226 972 l 472 972 q 495 962 486 972 q 501 936 504 951 l 354 247 l 757 247 q 780 237 772 247 q 785 211 788 226 l 749 36 q 733 10 746 21 q 704 0 719 0 l 36 0 m 581 431 q 560 439 567 431 q 556 463 553 447 l 590 628 q 605 651 594 642 q 629 660 615 660 l 794 660 q 816 651 808 660 q 821 628 824 642 l 785 463 q 771 439 782 447 q 746 431 760 431 l 581 431 z "},"Ł":{"ha":854,"x_min":0,"x_max":800,"o":"m 47 0 q 23 10 32 0 q 17 36 14 21 l 79 331 l 42 317 q 25 313 29 313 q 6 320 13 313 q 3 340 0 328 l 29 468 q 42 496 32 486 q 69 511 51 506 l 122 531 l 210 936 q 225 962 213 951 q 253 972 238 972 l 483 972 q 506 962 497 972 q 513 936 515 951 l 450 650 l 668 729 q 686 733 681 733 q 705 725 699 733 q 708 704 711 717 l 682 578 q 669 550 678 560 q 642 533 660 540 l 408 450 l 365 247 l 768 247 q 792 237 783 247 q 796 211 800 226 l 760 36 q 744 10 757 21 q 717 0 731 0 l 47 0 z "},"M":{"ha":1169,"x_min":3,"x_max":1197,"o":"m 36 0 q 12 10 21 0 q 6 36 3 21 l 199 936 q 214 962 201 951 q 242 972 226 972 l 426 972 q 462 958 451 972 q 474 939 472 944 l 615 553 l 919 939 q 940 958 925 944 q 981 972 956 972 l 1165 972 q 1189 962 1181 972 q 1194 936 1197 951 l 1003 36 q 988 10 1000 21 q 960 0 975 0 l 750 0 q 726 10 735 0 q 721 36 718 21 l 815 482 l 647 267 q 624 244 638 256 q 590 233 610 233 l 506 233 q 477 244 486 233 q 464 267 468 256 l 383 489 l 288 36 q 272 10 285 21 q 244 0 260 0 l 36 0 z "},"N":{"ha":1013,"x_min":3,"x_max":1042,"o":"m 36 0 q 12 10 21 0 q 6 36 3 21 l 199 936 q 214 962 201 951 q 240 972 226 972 l 425 972 q 459 961 450 972 q 469 943 468 950 l 661 482 l 757 936 q 772 962 760 951 q 800 972 785 972 l 1010 972 q 1033 962 1025 972 q 1039 936 1042 951 l 847 36 q 832 10 844 21 q 804 0 819 0 l 621 0 q 585 12 594 0 q 574 29 576 24 l 379 465 l 288 36 q 272 10 285 21 q 244 0 260 0 l 36 0 z "},"Ń":{"ha":1013,"x_min":3,"x_max":1042,"o":"m 36 0 q 12 10 21 0 q 6 36 3 21 l 199 936 q 214 962 201 951 q 240 972 226 972 l 425 972 q 459 961 450 972 q 469 943 468 950 l 661 482 l 757 936 q 772 962 760 951 q 800 972 785 972 l 1010 972 q 1033 962 1025 972 q 1039 936 1042 951 l 847 36 q 832 10 844 21 q 804 0 819 0 l 621 0 q 585 12 594 0 q 574 29 576 24 l 379 465 l 288 36 q 272 10 285 21 q 244 0 260 0 l 36 0 m 517 1042 q 499 1063 494 1042 q 508 1082 500 1074 l 675 1242 q 704 1263 693 1258 q 732 1268 715 1268 l 964 1268 q 982 1260 976 1268 q 986 1242 988 1253 q 974 1224 985 1231 l 747 1064 q 720 1048 733 1054 q 686 1042 707 1042 l 517 1042 z "},"Ň":{"ha":1013,"x_min":3,"x_max":1042,"o":"m 36 0 q 12 10 21 0 q 6 36 3 21 l 199 936 q 214 962 201 951 q 240 972 226 972 l 425 972 q 459 961 450 972 q 469 943 468 950 l 661 482 l 757 936 q 772 962 760 951 q 800 972 785 972 l 1010 972 q 1033 962 1025 972 q 1039 936 1042 951 l 847 36 q 832 10 844 21 q 804 0 819 0 l 621 0 q 585 12 594 0 q 574 29 576 24 l 379 465 l 288 36 q 272 10 285 21 q 244 0 260 0 l 36 0 m 547 1042 q 524 1047 533 1042 q 503 1067 514 1053 l 386 1228 q 383 1246 381 1235 q 408 1268 388 1268 l 485 1268 q 509 1266 497 1268 q 533 1258 521 1264 l 644 1194 l 782 1258 q 808 1266 796 1264 q 833 1268 819 1268 l 931 1268 q 949 1247 951 1268 q 938 1228 946 1236 l 753 1067 q 723 1047 735 1053 q 697 1042 711 1042 l 547 1042 z "},"Ņ":{"ha":1013,"x_min":3,"x_max":1042,"o":"m 36 0 q 12 10 21 0 q 6 36 3 21 l 199 936 q 214 962 201 951 q 240 972 226 972 l 425 972 q 459 961 450 972 q 469 943 468 950 l 661 482 l 757 936 q 772 962 760 951 q 800 972 785 972 l 1010 972 q 1033 962 1025 972 q 1039 936 1042 951 l 847 36 q 832 10 844 21 q 804 0 819 0 l 621 0 q 585 12 594 0 q 574 29 576 24 l 379 465 l 288 36 q 272 10 285 21 q 244 0 260 0 l 36 0 m 217 -336 q 196 -326 203 -336 q 194 -304 189 -317 l 263 -121 q 286 -85 269 -101 q 328 -69 303 -69 l 511 -69 q 528 -77 521 -69 q 533 -94 535 -85 q 528 -111 533 -101 l 417 -296 q 393 -323 408 -310 q 351 -336 378 -336 l 217 -336 z "},"Ñ":{"ha":1013,"x_min":3,"x_max":1042,"o":"m 36 0 q 12 10 21 0 q 6 36 3 21 l 199 936 q 214 962 201 951 q 240 972 226 972 l 425 972 q 459 961 450 972 q 469 943 468 950 l 661 482 l 757 936 q 772 962 760 951 q 800 972 785 972 l 1010 972 q 1033 962 1025 972 q 1039 936 1042 951 l 847 36 q 832 10 844 21 q 804 0 819 0 l 621 0 q 585 12 594 0 q 574 29 576 24 l 379 465 l 288 36 q 272 10 285 21 q 244 0 260 0 l 36 0 m 732 1035 q 667 1047 693 1035 q 620 1072 640 1060 q 574 1085 600 1085 q 541 1074 553 1085 q 520 1053 529 1064 q 496 1042 511 1042 l 396 1042 q 380 1049 386 1042 q 375 1067 374 1057 q 394 1122 381 1089 q 430 1188 407 1156 q 490 1242 453 1221 q 576 1264 526 1264 q 642 1251 617 1264 q 690 1226 668 1239 q 736 1214 711 1214 q 769 1225 757 1214 q 790 1247 781 1236 q 814 1257 799 1257 l 914 1257 q 931 1249 926 1257 q 935 1232 936 1242 q 916 1176 929 1208 q 878 1110 903 1143 q 818 1056 854 1078 q 732 1035 782 1035 z "},"Ŋ":{"ha":1014,"x_min":24,"x_max":1060,"o":"m 365 -312 q 342 -302 350 -312 q 338 -276 335 -292 l 375 -104 q 391 -78 378 -89 q 418 -68 404 -68 l 465 -68 q 524 -56 500 -68 q 563 -22 547 -43 q 583 26 578 -1 l 586 44 l 399 464 l 308 36 q 292 10 306 21 q 264 0 279 0 l 54 0 q 32 10 40 0 q 26 36 24 21 l 218 936 q 234 962 221 951 q 261 972 247 972 l 446 972 q 480 961 471 972 q 490 943 489 950 l 681 483 l 776 936 q 792 962 779 951 q 821 972 806 972 l 1029 972 q 1052 962 1044 972 q 1057 936 1060 951 l 863 14 q 771 -167 839 -93 q 603 -276 703 -240 q 385 -312 504 -312 l 365 -312 z "},"O":{"ha":1010,"x_min":33,"x_max":1008,"o":"m 439 -14 q 271 10 349 -14 q 138 81 193 33 q 58 198 83 128 q 50 363 33 268 q 73 483 60 421 q 100 606 86 544 q 267 888 146 789 q 603 986 389 986 q 771 961 693 986 q 903 888 849 936 q 983 769 958 840 q 992 606 1008 697 q 969 483 982 544 q 940 363 956 421 q 772 81 893 175 q 439 -14 651 -14 m 464 222 q 569 258 524 222 q 632 371 614 293 q 660 487 647 431 q 682 601 672 543 q 667 715 696 679 q 579 750 639 750 q 475 715 519 750 q 410 601 431 679 q 384 487 396 543 q 361 371 372 431 q 375 258 347 293 q 464 222 403 222 z "},"Ó":{"ha":1010,"x_min":33,"x_max":1008,"o":"m 439 -14 q 271 10 349 -14 q 138 81 193 33 q 58 198 83 128 q 50 363 33 268 q 73 483 60 421 q 100 606 86 544 q 267 888 146 789 q 603 986 389 986 q 771 961 693 986 q 903 888 849 936 q 983 769 958 840 q 992 606 1008 697 q 969 483 982 544 q 940 363 956 421 q 772 81 893 175 q 439 -14 651 -14 m 464 222 q 569 258 524 222 q 632 371 614 293 q 660 487 647 431 q 682 601 672 543 q 667 715 696 679 q 579 750 639 750 q 475 715 519 750 q 410 601 431 679 q 384 487 396 543 q 361 371 372 431 q 375 258 347 293 q 464 222 403 222 m 524 1042 q 506 1063 501 1042 q 515 1082 507 1074 l 682 1242 q 711 1263 700 1258 q 739 1268 722 1268 l 971 1268 q 989 1260 983 1268 q 993 1242 994 1253 q 981 1224 992 1231 l 754 1064 q 727 1048 740 1054 q 693 1042 714 1042 l 524 1042 z "},"Ŏ":{"ha":1010,"x_min":33,"x_max":1008,"o":"m 439 -14 q 271 10 349 -14 q 138 81 193 33 q 58 198 83 128 q 50 363 33 268 q 73 483 60 421 q 100 606 86 544 q 267 888 146 789 q 603 986 389 986 q 771 961 693 986 q 903 888 849 936 q 983 769 958 840 q 992 606 1008 697 q 969 483 982 544 q 940 363 956 421 q 772 81 893 175 q 439 -14 651 -14 m 464 222 q 569 258 524 222 q 632 371 614 293 q 660 487 647 431 q 682 601 672 543 q 667 715 696 679 q 579 750 639 750 q 475 715 519 750 q 410 601 431 679 q 384 487 396 543 q 361 371 372 431 q 375 258 347 293 q 464 222 403 222 m 638 1033 q 516 1061 565 1033 q 447 1135 467 1089 q 439 1240 426 1182 q 450 1259 442 1251 q 471 1267 458 1267 l 586 1267 q 604 1259 599 1267 q 607 1240 610 1251 q 608 1185 601 1208 q 650 1161 614 1161 q 705 1185 686 1161 q 729 1240 724 1208 q 740 1259 732 1251 q 761 1267 749 1267 l 876 1267 q 894 1259 889 1267 q 897 1240 900 1251 q 857 1135 886 1182 q 775 1061 828 1089 q 638 1033 722 1033 z "},"Ô":{"ha":1010,"x_min":33,"x_max":1008,"o":"m 439 -14 q 271 10 349 -14 q 138 81 193 33 q 58 198 83 128 q 50 363 33 268 q 73 483 60 421 q 100 606 86 544 q 267 888 146 789 q 603 986 389 986 q 771 961 693 986 q 903 888 849 936 q 983 769 958 840 q 992 606 1008 697 q 969 483 982 544 q 940 363 956 421 q 772 81 893 175 q 439 -14 651 -14 m 464 222 q 569 258 524 222 q 632 371 614 293 q 660 487 647 431 q 682 601 672 543 q 667 715 696 679 q 579 750 639 750 q 475 715 519 750 q 410 601 431 679 q 384 487 396 543 q 361 371 372 431 q 375 258 347 293 q 464 222 403 222 m 358 1042 q 340 1063 338 1042 q 351 1081 343 1074 l 536 1242 q 566 1263 554 1257 q 592 1268 578 1268 l 742 1268 q 766 1263 756 1268 q 786 1242 776 1257 l 903 1081 q 906 1063 908 1074 q 881 1042 901 1042 l 804 1042 q 779 1043 790 1042 q 756 1051 768 1044 l 644 1114 l 507 1051 q 481 1044 493 1046 q 456 1042 468 1042 l 358 1042 z "},"Ö":{"ha":1010,"x_min":33,"x_max":1008,"o":"m 439 -14 q 271 10 349 -14 q 138 81 193 33 q 58 198 83 128 q 50 363 33 268 q 73 483 60 421 q 100 606 86 544 q 267 888 146 789 q 603 986 389 986 q 771 961 693 986 q 903 888 849 936 q 983 769 958 840 q 992 606 1008 697 q 969 483 982 544 q 940 363 956 421 q 772 81 893 175 q 439 -14 651 -14 m 464 222 q 569 258 524 222 q 632 371 614 293 q 660 487 647 431 q 682 601 672 543 q 667 715 696 679 q 579 750 639 750 q 475 715 519 750 q 410 601 431 679 q 384 487 396 543 q 361 371 372 431 q 375 258 347 293 q 464 222 403 222 m 731 1042 q 710 1050 717 1042 q 706 1074 703 1058 l 738 1224 q 751 1247 740 1238 q 775 1256 761 1256 l 925 1256 q 946 1247 939 1256 q 950 1224 953 1238 l 919 1074 q 906 1050 917 1058 q 881 1042 894 1042 l 731 1042 m 379 1042 q 358 1050 365 1042 q 354 1074 351 1058 l 386 1224 q 399 1247 389 1238 q 424 1256 410 1256 l 574 1256 q 594 1247 588 1256 q 599 1224 601 1238 l 568 1074 q 554 1050 565 1058 q 529 1042 543 1042 l 379 1042 z "},"Ò":{"ha":1010,"x_min":33,"x_max":1008,"o":"m 439 -14 q 271 10 349 -14 q 138 81 193 33 q 58 198 83 128 q 50 363 33 268 q 73 483 60 421 q 100 606 86 544 q 267 888 146 789 q 603 986 389 986 q 771 961 693 986 q 903 888 849 936 q 983 769 958 840 q 992 606 1008 697 q 969 483 982 544 q 940 363 956 421 q 772 81 893 175 q 439 -14 651 -14 m 464 222 q 569 258 524 222 q 632 371 614 293 q 660 487 647 431 q 682 601 672 543 q 667 715 696 679 q 579 750 639 750 q 475 715 519 750 q 410 601 431 679 q 384 487 396 543 q 361 371 372 431 q 375 258 347 293 q 464 222 403 222 m 561 1042 q 531 1048 540 1042 q 511 1064 521 1054 l 351 1222 q 347 1240 344 1229 q 379 1268 351 1268 l 601 1268 q 627 1263 618 1268 q 647 1242 636 1258 l 743 1082 q 746 1064 749 1075 q 719 1042 742 1042 l 561 1042 z "},"Ő":{"ha":1010,"x_min":33,"x_max":1079,"o":"m 439 -14 q 271 10 349 -14 q 138 81 193 33 q 58 198 83 128 q 50 363 33 268 q 73 483 60 421 q 100 606 86 544 q 267 888 146 789 q 603 986 389 986 q 771 961 693 986 q 903 888 849 936 q 983 769 958 840 q 992 606 1008 697 q 969 483 982 544 q 940 363 956 421 q 772 81 893 175 q 439 -14 651 -14 m 464 222 q 569 258 524 222 q 632 371 614 293 q 660 487 647 431 q 682 601 672 543 q 667 715 696 679 q 579 750 639 750 q 475 715 519 750 q 410 601 431 679 q 384 487 396 543 q 361 371 372 431 q 375 258 347 293 q 464 222 403 222 m 710 1042 q 692 1063 688 1042 q 696 1074 692 1068 q 703 1083 700 1079 l 807 1242 q 829 1262 817 1256 q 864 1268 842 1268 l 1051 1268 q 1074 1242 1079 1268 q 1061 1224 1072 1232 l 881 1061 q 829 1042 858 1042 l 710 1042 m 394 1042 q 376 1063 372 1042 q 381 1074 378 1068 q 388 1083 385 1079 l 492 1242 q 514 1262 501 1256 q 549 1268 526 1268 l 736 1268 q 758 1242 764 1268 q 747 1224 757 1232 l 565 1061 q 515 1042 543 1042 l 394 1042 z "},"Ō":{"ha":1010,"x_min":33,"x_max":1008,"o":"m 439 -14 q 271 10 349 -14 q 138 81 193 33 q 58 198 83 128 q 50 363 33 268 q 73 483 60 421 q 100 606 86 544 q 267 888 146 789 q 603 986 389 986 q 771 961 693 986 q 903 888 849 936 q 983 769 958 840 q 992 606 1008 697 q 969 483 982 544 q 940 363 956 421 q 772 81 893 175 q 439 -14 651 -14 m 464 222 q 569 258 524 222 q 632 371 614 293 q 660 487 647 431 q 682 601 672 543 q 667 715 696 679 q 579 750 639 750 q 475 715 519 750 q 410 601 431 679 q 384 487 396 543 q 361 371 372 431 q 375 258 347 293 q 464 222 403 222 m 390 1042 q 369 1051 376 1042 q 365 1074 363 1060 l 390 1196 q 404 1219 393 1210 q 429 1228 415 1228 l 907 1228 q 928 1219 921 1228 q 932 1196 935 1210 l 906 1074 q 892 1051 903 1060 q 867 1042 881 1042 l 390 1042 z "},"Ø":{"ha":1010,"x_min":-3,"x_max":1065,"o":"m 439 -14 q 271 10 349 -14 q 138 81 193 33 q 58 198 83 128 q 50 363 33 268 q 73 483 60 421 q 100 606 86 544 q 267 888 146 789 q 603 986 389 986 q 771 961 693 986 q 903 888 849 936 q 983 769 958 840 q 992 606 1008 697 q 969 483 982 544 q 940 363 956 421 q 772 81 893 175 q 439 -14 651 -14 m 464 222 q 569 258 524 222 q 632 371 614 293 q 660 487 647 431 q 682 601 672 543 q 667 715 696 679 q 579 750 639 750 q 475 715 519 750 q 410 601 431 679 q 384 487 396 543 q 361 371 372 431 q 375 258 347 293 q 464 222 403 222 m 29 -90 q 5 -73 13 -90 q 11 -39 -3 -56 l 946 1043 q 957 1055 949 1047 q 979 1063 965 1063 l 1035 1063 q 1059 1045 1053 1063 q 1053 1014 1065 1028 l 117 -69 q 106 -82 114 -74 q 82 -90 97 -90 l 29 -90 z "},"Ǿ":{"ha":1056,"x_min":-3,"x_max":1065,"o":"m 553 1042 q 535 1063 531 1042 q 544 1082 536 1074 l 711 1242 q 740 1263 729 1258 q 768 1268 751 1268 l 1000 1268 q 1018 1260 1013 1268 q 1022 1242 1024 1253 q 1010 1224 1021 1231 l 783 1064 q 756 1048 769 1054 q 722 1042 743 1042 l 553 1042 m 439 -14 q 271 10 349 -14 q 138 81 193 33 q 58 198 83 128 q 50 363 33 268 q 73 483 60 421 q 100 606 86 544 q 267 888 146 789 q 603 986 389 986 q 771 961 693 986 q 903 888 849 936 q 983 769 958 840 q 992 606 1008 697 q 969 483 982 544 q 940 363 956 421 q 772 81 893 175 q 439 -14 651 -14 m 464 222 q 569 258 524 222 q 632 371 614 293 q 660 487 647 431 q 682 601 672 543 q 667 715 696 679 q 579 750 639 750 q 475 715 519 750 q 410 601 431 679 q 384 487 396 543 q 361 371 372 431 q 375 258 347 293 q 464 222 403 222 m 29 -90 q 5 -73 13 -90 q 11 -39 -3 -56 l 946 1043 q 957 1055 949 1047 q 979 1063 965 1063 l 1035 1063 q 1059 1045 1053 1063 q 1053 1014 1065 1028 l 117 -69 q 106 -82 114 -74 q 82 -90 97 -90 l 29 -90 z "},"Õ":{"ha":1010,"x_min":33,"x_max":1008,"o":"m 439 -14 q 271 10 349 -14 q 138 81 193 33 q 58 198 83 128 q 50 363 33 268 q 73 483 60 421 q 100 606 86 544 q 267 888 146 789 q 603 986 389 986 q 771 961 693 986 q 903 888 849 936 q 983 769 958 840 q 992 606 1008 697 q 969 483 982 544 q 940 363 956 421 q 772 81 893 175 q 439 -14 651 -14 m 464 222 q 569 258 524 222 q 632 371 614 293 q 660 487 647 431 q 682 601 672 543 q 667 715 696 679 q 579 750 639 750 q 475 715 519 750 q 410 601 431 679 q 384 487 396 543 q 361 371 372 431 q 375 258 347 293 q 464 222 403 222 m 738 1035 q 672 1047 699 1035 q 626 1072 646 1060 q 579 1085 606 1085 q 547 1074 558 1085 q 526 1053 535 1064 q 501 1042 517 1042 l 401 1042 q 385 1049 392 1042 q 381 1067 379 1057 q 399 1122 386 1089 q 435 1188 413 1156 q 495 1242 458 1221 q 582 1264 532 1264 q 648 1251 622 1264 q 695 1226 674 1239 q 742 1214 717 1214 q 774 1225 763 1214 q 795 1247 786 1236 q 819 1257 804 1257 l 919 1257 q 937 1249 932 1257 q 940 1232 942 1242 q 922 1176 935 1208 q 884 1110 908 1143 q 824 1056 860 1078 q 738 1035 788 1035 z "},"Œ":{"ha":1364,"x_min":35,"x_max":1413,"o":"m 440 0 q 272 23 350 0 q 139 94 194 46 q 59 213 83 142 q 51 382 35 285 q 72 485 63 440 q 96 592 82 531 q 191 801 128 717 q 356 929 254 886 q 600 972 457 972 l 1379 972 q 1403 962 1394 972 q 1410 936 1413 951 l 1375 772 q 1358 747 1371 758 q 1331 736 1346 736 l 933 736 l 904 599 l 1269 599 q 1293 588 1285 599 q 1299 563 1301 578 l 1267 413 q 1251 387 1264 397 q 1222 376 1238 376 l 857 376 l 826 236 l 1235 236 q 1258 225 1250 236 q 1263 199 1265 214 l 1228 36 q 1213 10 1225 21 q 1185 0 1200 0 l 440 0 m 471 236 l 540 236 l 647 736 l 582 736 q 500 721 538 736 q 438 674 463 706 q 399 590 413 642 q 381 519 389 551 q 368 456 374 488 q 354 383 363 424 q 372 272 342 307 q 471 236 403 236 z "},"P":{"ha":960,"x_min":3,"x_max":993,"o":"m 36 0 q 12 10 21 0 q 6 36 3 21 l 199 936 q 214 962 201 951 q 242 972 226 972 l 622 972 q 781 952 708 972 q 903 890 853 932 q 973 787 953 849 q 976 642 993 725 q 831 398 940 475 q 532 321 722 321 l 376 321 l 315 36 q 300 10 313 21 q 272 0 288 0 l 36 0 m 418 544 l 547 544 q 621 569 586 544 q 667 644 656 593 q 670 694 674 671 q 649 733 667 718 q 593 747 632 747 l 463 747 l 418 544 z "},"Þ":{"ha":960,"x_min":3,"x_max":961,"o":"m 36 0 q 12 10 21 0 q 6 36 3 21 l 199 936 q 214 962 201 951 q 242 972 226 972 l 479 972 q 502 962 493 972 q 508 936 511 951 l 483 824 l 590 824 q 750 803 678 824 q 872 742 822 783 q 941 638 921 700 q 944 493 961 576 q 800 249 910 326 q 501 172 690 172 l 346 172 l 315 36 q 300 10 313 21 q 272 0 288 0 l 36 0 m 388 396 l 515 396 q 589 420 554 396 q 636 496 624 444 q 638 545 642 522 q 617 583 635 568 q 563 597 600 597 l 431 597 l 388 396 z "},"Q":{"ha":1010,"x_min":46,"x_max":1032,"o":"m 617 -90 q 583 -78 593 -90 q 568 -58 574 -67 l 538 -3 q 433 -14 489 -14 q 212 28 301 -14 q 84 153 122 69 q 67 363 46 238 q 92 483 78 421 q 119 606 106 544 q 224 814 150 729 q 406 942 299 899 q 646 986 514 986 q 865 942 776 986 q 993 814 954 899 q 1010 606 1032 729 q 987 483 1000 544 q 958 363 974 421 q 803 104 915 199 l 878 -47 q 879 -60 881 -54 q 867 -81 878 -72 q 844 -90 856 -90 l 617 -90 m 483 222 q 588 258 543 222 q 651 371 632 293 q 678 487 667 431 q 699 601 689 543 q 698 686 708 653 q 662 735 688 719 q 596 750 636 750 q 492 715 538 750 q 428 601 447 679 q 402 487 414 543 q 379 371 390 431 q 380 286 369 319 q 417 238 390 253 q 483 222 444 222 z "},"R":{"ha":982,"x_min":24,"x_max":1025,"o":"m 54 0 q 32 10 40 0 q 26 36 24 21 l 218 936 q 234 962 221 951 q 261 972 247 972 l 657 972 q 935 886 846 972 q 992 646 1025 800 q 912 481 971 549 q 774 374 853 413 l 883 46 q 885 38 885 42 q 885 31 886 35 q 872 9 882 18 q 849 0 861 0 l 614 0 q 577 13 588 0 q 564 38 567 26 l 486 324 l 386 324 l 325 36 q 309 10 322 21 q 281 0 296 0 l 54 0 m 435 553 l 567 553 q 645 580 615 553 q 683 647 675 607 q 674 718 692 689 q 607 747 657 747 l 475 747 l 435 553 z "},"Ŕ":{"ha":982,"x_min":24,"x_max":1025,"o":"m 54 0 q 32 10 40 0 q 26 36 24 21 l 218 936 q 234 962 221 951 q 261 972 247 972 l 657 972 q 935 886 846 972 q 992 646 1025 800 q 912 481 971 549 q 774 374 853 413 l 883 46 q 885 38 885 42 q 885 31 886 35 q 872 9 882 18 q 849 0 861 0 l 614 0 q 577 13 588 0 q 564 38 567 26 l 486 324 l 386 324 l 325 36 q 309 10 322 21 q 281 0 296 0 l 54 0 m 435 553 l 567 553 q 645 580 615 553 q 683 647 675 607 q 674 718 692 689 q 607 747 657 747 l 475 747 l 435 553 m 485 1042 q 467 1063 463 1042 q 476 1082 468 1074 l 643 1242 q 672 1263 661 1258 q 700 1268 683 1268 l 932 1268 q 950 1260 944 1268 q 954 1242 956 1253 q 942 1224 953 1231 l 715 1064 q 688 1048 701 1054 q 654 1042 675 1042 l 485 1042 z "},"Ř":{"ha":982,"x_min":24,"x_max":1025,"o":"m 54 0 q 32 10 40 0 q 26 36 24 21 l 218 936 q 234 962 221 951 q 261 972 247 972 l 657 972 q 935 886 846 972 q 992 646 1025 800 q 912 481 971 549 q 774 374 853 413 l 883 46 q 885 38 885 42 q 885 31 886 35 q 872 9 882 18 q 849 0 861 0 l 614 0 q 577 13 588 0 q 564 38 567 26 l 486 324 l 386 324 l 325 36 q 309 10 322 21 q 281 0 296 0 l 54 0 m 435 553 l 567 553 q 645 580 615 553 q 683 647 675 607 q 674 718 692 689 q 607 747 657 747 l 475 747 l 435 553 m 515 1042 q 492 1047 501 1042 q 471 1067 482 1053 l 354 1228 q 351 1246 349 1235 q 376 1268 356 1268 l 453 1268 q 477 1266 465 1268 q 501 1258 489 1264 l 613 1194 l 750 1258 q 776 1266 764 1264 q 801 1268 788 1268 l 899 1268 q 917 1247 919 1268 q 906 1228 914 1236 l 721 1067 q 691 1047 703 1053 q 665 1042 679 1042 l 515 1042 z "},"Ŗ":{"ha":982,"x_min":24,"x_max":1025,"o":"m 54 0 q 32 10 40 0 q 26 36 24 21 l 218 936 q 234 962 221 951 q 261 972 247 972 l 657 972 q 935 886 846 972 q 992 646 1025 800 q 912 481 971 549 q 774 374 853 413 l 883 46 q 885 38 885 42 q 885 31 886 35 q 872 9 882 18 q 849 0 861 0 l 614 0 q 577 13 588 0 q 564 38 567 26 l 486 324 l 386 324 l 325 36 q 309 10 322 21 q 281 0 296 0 l 54 0 m 435 553 l 567 553 q 645 580 615 553 q 683 647 675 607 q 674 718 692 689 q 607 747 657 747 l 475 747 l 435 553 m 204 -336 q 183 -326 190 -336 q 182 -304 176 -317 l 250 -121 q 274 -85 257 -101 q 315 -69 290 -69 l 499 -69 q 515 -77 508 -69 q 521 -94 522 -85 q 515 -111 521 -101 l 404 -296 q 381 -323 396 -310 q 339 -336 365 -336 l 204 -336 z "},"S":{"ha":944,"x_min":-10,"x_max":947,"o":"m 403 -14 q 165 26 258 -14 q 31 133 71 67 q 3 274 -10 199 q 15 294 6 286 q 38 303 25 303 l 258 303 q 289 297 279 303 q 308 279 299 290 q 331 251 317 264 q 370 230 346 238 q 428 222 394 222 q 531 240 492 222 q 578 288 571 257 q 567 326 583 311 q 509 354 551 342 q 394 381 467 367 q 222 439 290 399 q 125 544 153 479 q 117 697 97 608 q 260 909 144 832 q 558 986 375 986 q 724 960 650 986 q 848 891 797 933 q 923 800 899 849 q 939 707 947 751 q 927 685 938 694 q 906 676 917 676 l 674 676 q 645 682 656 676 q 626 700 635 688 q 599 735 624 719 q 535 750 575 750 q 458 734 488 750 q 421 688 428 718 q 429 651 417 667 q 478 624 442 636 q 581 599 514 613 q 783 539 710 579 q 880 435 856 499 q 886 285 904 372 q 733 62 854 138 q 403 -14 611 -14 z "},"Ś":{"ha":944,"x_min":-10,"x_max":958,"o":"m 403 -14 q 165 26 258 -14 q 31 133 71 67 q 3 274 -10 199 q 15 294 6 286 q 38 303 25 303 l 258 303 q 289 297 279 303 q 308 279 299 290 q 331 251 317 264 q 370 230 346 238 q 428 222 394 222 q 531 240 492 222 q 578 288 571 257 q 567 326 583 311 q 509 354 551 342 q 394 381 467 367 q 222 439 290 399 q 125 544 153 479 q 117 697 97 608 q 260 909 144 832 q 558 986 375 986 q 724 960 650 986 q 848 891 797 933 q 923 800 899 849 q 939 707 947 751 q 927 685 938 694 q 906 676 917 676 l 674 676 q 645 682 656 676 q 626 700 635 688 q 599 735 624 719 q 535 750 575 750 q 458 734 488 750 q 421 688 428 718 q 429 651 417 667 q 478 624 442 636 q 581 599 514 613 q 783 539 710 579 q 880 435 856 499 q 886 285 904 372 q 733 62 854 138 q 403 -14 611 -14 m 488 1042 q 469 1063 465 1042 q 479 1082 471 1074 l 646 1242 q 675 1263 664 1258 q 703 1268 686 1268 l 935 1268 q 953 1260 947 1268 q 957 1242 958 1253 q 944 1224 956 1231 l 718 1064 q 691 1048 704 1054 q 657 1042 678 1042 l 488 1042 z "},"Š":{"ha":944,"x_min":-10,"x_max":947,"o":"m 403 -14 q 165 26 258 -14 q 31 133 71 67 q 3 274 -10 199 q 15 294 6 286 q 38 303 25 303 l 258 303 q 289 297 279 303 q 308 279 299 290 q 331 251 317 264 q 370 230 346 238 q 428 222 394 222 q 531 240 492 222 q 578 288 571 257 q 567 326 583 311 q 509 354 551 342 q 394 381 467 367 q 222 439 290 399 q 125 544 153 479 q 117 697 97 608 q 260 909 144 832 q 558 986 375 986 q 724 960 650 986 q 848 891 797 933 q 923 800 899 849 q 939 707 947 751 q 927 685 938 694 q 906 676 917 676 l 674 676 q 645 682 656 676 q 626 700 635 688 q 599 735 624 719 q 535 750 575 750 q 458 734 488 750 q 421 688 428 718 q 429 651 417 667 q 478 624 442 636 q 581 599 514 613 q 783 539 710 579 q 880 435 856 499 q 886 285 904 372 q 733 62 854 138 q 403 -14 611 -14 m 518 1042 q 494 1047 504 1042 q 474 1067 485 1053 l 357 1228 q 354 1246 351 1235 q 379 1268 358 1268 l 456 1268 q 480 1266 468 1268 q 504 1258 492 1264 l 615 1194 l 753 1258 q 778 1266 767 1264 q 804 1268 790 1268 l 901 1268 q 919 1247 922 1268 q 908 1228 917 1236 l 724 1067 q 694 1047 706 1053 q 668 1042 682 1042 l 518 1042 z "},"Ş":{"ha":943,"x_min":-10,"x_max":949,"o":"m 325 -306 q 261 -293 289 -306 q 224 -264 233 -281 q 232 -235 215 -247 l 265 -211 q 288 -203 279 -200 q 307 -212 296 -206 q 343 -219 318 -219 q 378 -208 364 -219 q 396 -182 392 -197 q 390 -156 399 -167 q 360 -144 382 -144 q 331 -149 346 -144 q 303 -153 317 -153 q 283 -146 290 -154 l 261 -118 q 256 -99 254 -108 q 269 -72 257 -90 l 311 -11 q 118 42 190 0 q 18 145 46 85 q 3 274 -10 206 q 17 294 6 286 q 40 303 28 303 l 260 303 q 290 297 281 303 q 308 279 300 290 q 332 251 317 264 q 372 230 347 238 q 431 222 396 222 q 533 240 494 222 q 578 288 572 257 q 567 326 583 311 q 510 354 551 342 q 394 381 468 367 q 222 434 292 399 q 124 530 153 469 q 114 679 94 590 q 198 839 133 769 q 362 947 263 908 q 583 986 461 986 q 755 960 683 986 q 870 891 826 933 q 931 800 914 849 q 940 707 949 751 q 928 685 939 694 q 904 676 917 676 l 674 676 q 646 682 656 676 q 628 700 636 688 q 601 735 625 719 q 533 750 576 750 q 457 734 486 750 q 422 688 428 718 q 431 651 418 667 q 479 624 443 636 q 582 599 515 613 q 783 543 710 579 q 882 449 857 507 q 888 303 907 390 q 797 136 867 207 q 623 27 726 65 q 396 -14 519 -11 l 358 -65 q 382 -60 367 -62 q 404 -58 397 -58 q 478 -92 456 -58 q 489 -181 500 -126 q 432 -271 476 -236 q 325 -306 388 -306 z "},"Ŝ":{"ha":944,"x_min":-10,"x_max":947,"o":"m 403 -14 q 165 26 258 -14 q 31 133 71 67 q 3 274 -10 199 q 15 294 6 286 q 38 303 25 303 l 258 303 q 289 297 279 303 q 308 279 299 290 q 331 251 317 264 q 370 230 346 238 q 428 222 394 222 q 531 240 492 222 q 578 288 571 257 q 567 326 583 311 q 509 354 551 342 q 394 381 467 367 q 222 439 290 399 q 125 544 153 479 q 117 697 97 608 q 260 909 144 832 q 558 986 375 986 q 724 960 650 986 q 848 891 797 933 q 923 800 899 849 q 939 707 947 751 q 927 685 938 694 q 906 676 917 676 l 674 676 q 645 682 656 676 q 626 700 635 688 q 599 735 624 719 q 535 750 575 750 q 458 734 488 750 q 421 688 428 718 q 429 651 417 667 q 478 624 442 636 q 581 599 514 613 q 783 539 710 579 q 880 435 856 499 q 886 285 904 372 q 733 62 854 138 q 403 -14 611 -14 m 322 1042 q 304 1063 301 1042 q 315 1081 307 1074 l 500 1242 q 530 1263 518 1257 q 556 1268 542 1268 l 706 1268 q 730 1263 719 1268 q 750 1242 740 1257 l 867 1081 q 869 1063 872 1074 q 844 1042 865 1042 l 768 1042 q 743 1043 754 1042 q 719 1051 732 1044 l 608 1114 l 471 1051 q 444 1044 457 1046 q 419 1042 432 1042 l 322 1042 z "},"Ș":{"ha":944,"x_min":-10,"x_max":947,"o":"m 403 -14 q 165 26 258 -14 q 31 133 71 67 q 3 274 -10 199 q 15 294 6 286 q 38 303 25 303 l 258 303 q 289 297 279 303 q 308 279 299 290 q 331 251 317 264 q 370 230 346 238 q 428 222 394 222 q 531 240 492 222 q 578 288 571 257 q 567 326 583 311 q 509 354 551 342 q 394 381 467 367 q 222 439 290 399 q 125 544 153 479 q 117 697 97 608 q 260 909 144 832 q 558 986 375 986 q 724 960 650 986 q 848 891 797 933 q 923 800 899 849 q 939 707 947 751 q 927 685 938 694 q 906 676 917 676 l 674 676 q 645 682 656 676 q 626 700 635 688 q 599 735 624 719 q 535 750 575 750 q 458 734 488 750 q 421 688 428 718 q 429 651 417 667 q 478 624 442 636 q 581 599 514 613 q 783 539 710 579 q 880 435 856 499 q 886 285 904 372 q 733 62 854 138 q 403 -14 611 -14 m 182 -336 q 161 -326 168 -336 q 160 -304 154 -317 l 228 -121 q 251 -85 235 -101 q 293 -69 268 -69 l 476 -69 q 493 -77 486 -69 q 499 -94 500 -85 q 493 -111 499 -101 l 382 -296 q 358 -323 374 -310 q 317 -336 343 -336 l 182 -336 z "},"ẞ":{"ha":997,"x_min":-14,"x_max":993,"o":"m 18 0 q -6 11 1 0 q -11 36 -14 22 l 115 629 q 278 894 151 801 q 617 986 404 986 q 813 953 729 986 q 945 870 897 921 q 993 765 993 819 q 978 710 993 733 q 933 660 963 686 l 656 411 l 704 521 q 878 474 817 521 q 939 340 939 428 q 881 167 939 244 q 726 45 824 90 q 504 0 628 0 l 367 0 q 338 10 350 0 q 331 36 326 19 l 363 179 q 381 206 367 196 q 415 217 394 217 l 479 217 q 588 243 550 217 q 625 317 625 269 q 598 367 625 349 q 511 385 571 385 l 454 385 q 427 396 435 385 q 422 422 419 407 l 450 539 q 461 567 454 557 q 486 593 468 576 l 613 710 q 624 721 618 715 q 629 733 629 726 q 608 759 629 749 q 551 769 586 769 q 460 738 494 769 q 411 638 426 707 l 285 36 q 269 11 282 22 q 239 0 256 0 l 18 0 z "},"T":{"ha":903,"x_min":93,"x_max":993,"o":"m 249 0 q 226 10 235 0 q 219 36 217 21 l 365 714 l 126 714 q 102 724 111 714 q 96 750 93 735 l 136 936 q 152 962 139 951 q 179 972 165 972 l 960 972 q 984 962 975 972 q 990 936 993 951 l 950 750 q 935 724 947 735 q 907 714 922 714 l 668 714 l 522 36 q 507 10 519 21 q 479 0 494 0 l 249 0 z "},"Ŧ":{"ha":914,"x_min":99,"x_max":997,"o":"m 254 0 q 231 10 239 0 q 225 36 222 21 l 299 382 l 165 382 q 143 393 151 382 q 138 418 135 404 l 156 503 q 172 528 158 518 q 200 539 185 539 l 332 539 l 369 714 l 131 714 q 107 724 115 714 q 101 750 99 735 l 142 936 q 157 962 144 951 q 185 972 169 972 l 965 972 q 989 962 981 972 q 994 936 997 951 l 954 750 q 939 724 951 735 q 911 714 926 714 l 672 714 l 635 539 l 767 539 q 790 528 782 539 q 796 503 799 518 l 778 418 q 762 393 775 404 q 733 382 749 382 l 601 382 l 528 36 q 513 10 525 21 q 485 0 500 0 l 254 0 z "},"Ť":{"ha":903,"x_min":93,"x_max":993,"o":"m 249 0 q 226 10 235 0 q 219 36 217 21 l 365 714 l 126 714 q 102 724 111 714 q 96 750 93 735 l 136 936 q 152 962 139 951 q 179 972 165 972 l 960 972 q 984 962 975 972 q 990 936 993 951 l 950 750 q 935 724 947 735 q 907 714 922 714 l 668 714 l 522 36 q 507 10 519 21 q 479 0 494 0 l 249 0 m 515 1042 q 492 1047 501 1042 q 471 1067 482 1053 l 354 1228 q 351 1246 349 1235 q 376 1268 356 1268 l 453 1268 q 477 1266 465 1268 q 501 1258 489 1264 l 613 1194 l 750 1258 q 776 1266 764 1264 q 801 1268 788 1268 l 899 1268 q 917 1247 919 1268 q 906 1228 914 1236 l 721 1067 q 691 1047 703 1053 q 665 1042 679 1042 l 515 1042 z "},"Ț":{"ha":903,"x_min":93,"x_max":993,"o":"m 249 0 q 226 10 235 0 q 219 36 217 21 l 365 714 l 126 714 q 102 724 111 714 q 96 750 93 735 l 136 936 q 152 962 139 951 q 179 972 165 972 l 960 972 q 984 962 975 972 q 990 936 993 951 l 950 750 q 935 724 947 735 q 907 714 922 714 l 668 714 l 522 36 q 507 10 519 21 q 479 0 494 0 l 249 0 m 158 -336 q 138 -326 144 -336 q 136 -304 131 -317 l 204 -121 q 228 -85 211 -101 q 269 -69 244 -69 l 453 -69 q 469 -77 463 -69 q 475 -94 476 -85 q 469 -111 475 -101 l 358 -296 q 335 -323 350 -310 q 293 -336 319 -336 l 158 -336 z "},"U":{"ha":1021,"x_min":47,"x_max":1057,"o":"m 443 -14 q 277 9 354 -14 q 145 78 200 32 q 69 197 90 125 q 68 368 47 269 l 189 936 q 204 962 192 951 q 232 972 217 972 l 457 972 q 481 962 472 972 q 488 936 490 951 l 367 372 q 376 265 351 301 q 468 229 400 229 q 577 265 535 229 q 635 372 619 301 l 756 936 q 771 962 758 951 q 799 972 783 972 l 1025 972 q 1049 962 1040 972 q 1054 936 1057 951 l 933 368 q 774 78 892 171 q 443 -14 656 -14 z "},"Ú":{"ha":1021,"x_min":47,"x_max":1057,"o":"m 443 -14 q 277 9 354 -14 q 145 78 200 32 q 69 197 90 125 q 68 368 47 269 l 189 936 q 204 962 192 951 q 232 972 217 972 l 457 972 q 481 962 472 972 q 488 936 490 951 l 367 372 q 376 265 351 301 q 468 229 400 229 q 577 265 535 229 q 635 372 619 301 l 756 936 q 771 962 758 951 q 799 972 783 972 l 1025 972 q 1049 962 1040 972 q 1054 936 1057 951 l 933 368 q 774 78 892 171 q 443 -14 656 -14 m 526 1042 q 508 1063 504 1042 q 518 1082 510 1074 l 685 1242 q 714 1263 703 1258 q 742 1268 725 1268 l 974 1268 q 992 1260 986 1268 q 996 1242 997 1253 q 983 1224 994 1231 l 757 1064 q 730 1048 743 1054 q 696 1042 717 1042 l 526 1042 z "},"Ŭ":{"ha":1021,"x_min":47,"x_max":1057,"o":"m 443 -14 q 277 9 354 -14 q 145 78 200 32 q 69 197 90 125 q 68 368 47 269 l 189 936 q 204 962 192 951 q 232 972 217 972 l 457 972 q 481 962 472 972 q 488 936 490 951 l 367 372 q 376 265 351 301 q 468 229 400 229 q 577 265 535 229 q 635 372 619 301 l 756 936 q 771 962 758 951 q 799 972 783 972 l 1025 972 q 1049 962 1040 972 q 1054 936 1057 951 l 933 368 q 774 78 892 171 q 443 -14 656 -14 m 642 1033 q 520 1061 569 1033 q 451 1135 471 1089 q 443 1240 431 1182 q 454 1259 446 1251 q 475 1267 463 1267 l 590 1267 q 608 1259 603 1267 q 611 1240 614 1251 q 612 1185 606 1208 q 654 1161 618 1161 q 709 1185 690 1161 q 733 1240 728 1208 q 744 1259 736 1251 q 765 1267 753 1267 l 881 1267 q 899 1259 893 1267 q 901 1240 904 1251 q 861 1135 890 1182 q 779 1061 832 1089 q 642 1033 726 1033 z "},"Û":{"ha":1021,"x_min":47,"x_max":1057,"o":"m 443 -14 q 277 9 354 -14 q 145 78 200 32 q 69 197 90 125 q 68 368 47 269 l 189 936 q 204 962 192 951 q 232 972 217 972 l 457 972 q 481 962 472 972 q 488 936 490 951 l 367 372 q 376 265 351 301 q 468 229 400 229 q 577 265 535 229 q 635 372 619 301 l 756 936 q 771 962 758 951 q 799 972 783 972 l 1025 972 q 1049 962 1040 972 q 1054 936 1057 951 l 933 368 q 774 78 892 171 q 443 -14 656 -14 m 361 1042 q 343 1063 340 1042 q 354 1081 346 1074 l 539 1242 q 569 1263 557 1257 q 594 1268 581 1268 l 744 1268 q 769 1263 758 1268 q 789 1242 779 1257 l 906 1081 q 908 1063 911 1074 q 883 1042 904 1042 l 807 1042 q 782 1043 793 1042 q 758 1051 771 1044 l 647 1114 l 510 1051 q 483 1044 496 1046 q 458 1042 471 1042 l 361 1042 z "},"Ü":{"ha":1021,"x_min":47,"x_max":1057,"o":"m 443 -14 q 277 9 354 -14 q 145 78 200 32 q 69 197 90 125 q 68 368 47 269 l 189 936 q 204 962 192 951 q 232 972 217 972 l 457 972 q 481 962 472 972 q 488 936 490 951 l 367 372 q 376 265 351 301 q 468 229 400 229 q 577 265 535 229 q 635 372 619 301 l 756 936 q 771 962 758 951 q 799 972 783 972 l 1025 972 q 1049 962 1040 972 q 1054 936 1057 951 l 933 368 q 774 78 892 171 q 443 -14 656 -14 m 733 1042 q 713 1050 719 1042 q 708 1074 706 1058 l 740 1224 q 753 1247 743 1238 q 778 1256 764 1256 l 928 1256 q 949 1247 942 1256 q 953 1224 956 1238 l 922 1074 q 908 1050 919 1058 q 883 1042 897 1042 l 733 1042 m 382 1042 q 361 1050 368 1042 q 357 1074 354 1058 l 389 1224 q 402 1247 392 1238 q 426 1256 413 1256 l 576 1256 q 597 1247 590 1256 q 601 1224 604 1238 l 571 1074 q 557 1050 568 1058 q 532 1042 546 1042 l 382 1042 z "},"Ù":{"ha":1021,"x_min":47,"x_max":1057,"o":"m 443 -14 q 277 9 354 -14 q 145 78 200 32 q 69 197 90 125 q 68 368 47 269 l 189 936 q 204 962 192 951 q 232 972 217 972 l 457 972 q 481 962 472 972 q 488 936 490 951 l 367 372 q 376 265 351 301 q 468 229 400 229 q 577 265 535 229 q 635 372 619 301 l 756 936 q 771 962 758 951 q 799 972 783 972 l 1025 972 q 1049 962 1040 972 q 1054 936 1057 951 l 933 368 q 774 78 892 171 q 443 -14 656 -14 m 564 1042 q 533 1048 543 1042 q 514 1064 524 1054 l 354 1222 q 350 1240 347 1229 q 382 1268 354 1268 l 604 1268 q 630 1263 621 1268 q 650 1242 639 1258 l 746 1082 q 749 1064 751 1075 q 722 1042 744 1042 l 564 1042 z "},"Ű":{"ha":1021,"x_min":47,"x_max":1082,"o":"m 443 -14 q 277 9 354 -14 q 145 78 200 32 q 69 197 90 125 q 68 368 47 269 l 189 936 q 204 962 192 951 q 232 972 217 972 l 457 972 q 481 962 472 972 q 488 936 490 951 l 367 372 q 376 265 351 301 q 468 229 400 229 q 577 265 535 229 q 635 372 619 301 l 756 936 q 771 962 758 951 q 799 972 783 972 l 1025 972 q 1049 962 1040 972 q 1054 936 1057 951 l 933 368 q 774 78 892 171 q 443 -14 656 -14 m 713 1042 q 694 1063 690 1042 q 699 1074 694 1068 q 706 1083 703 1079 l 810 1242 q 832 1262 819 1256 q 867 1268 844 1268 l 1054 1268 q 1076 1242 1082 1268 q 1064 1224 1075 1232 l 883 1061 q 832 1042 861 1042 l 713 1042 m 397 1042 q 379 1063 375 1042 q 384 1074 381 1068 q 390 1083 388 1079 l 494 1242 q 517 1262 504 1256 q 551 1268 529 1268 l 739 1268 q 761 1242 767 1268 q 750 1224 760 1232 l 568 1061 q 518 1042 546 1042 l 397 1042 z "},"Ū":{"ha":1021,"x_min":47,"x_max":1057,"o":"m 443 -14 q 277 9 354 -14 q 145 78 200 32 q 69 197 90 125 q 68 368 47 269 l 189 936 q 204 962 192 951 q 232 972 217 972 l 457 972 q 481 962 472 972 q 488 936 490 951 l 367 372 q 376 265 351 301 q 468 229 400 229 q 577 265 535 229 q 635 372 619 301 l 756 936 q 771 962 758 951 q 799 972 783 972 l 1025 972 q 1049 962 1040 972 q 1054 936 1057 951 l 933 368 q 774 78 892 171 q 443 -14 656 -14 m 393 1042 q 372 1051 379 1042 q 368 1074 365 1060 l 393 1196 q 407 1219 396 1210 q 432 1228 418 1228 l 910 1228 q 931 1219 924 1228 q 935 1196 938 1210 l 908 1074 q 894 1051 906 1060 q 869 1042 883 1042 l 393 1042 z "},"Ų":{"ha":1019,"x_min":46,"x_max":1057,"o":"m 485 -306 q 359 -272 407 -306 q 294 -184 311 -239 q 289 -65 276 -129 q 299 -31 293 -47 q 310 0 304 -14 q 160 65 224 19 q 72 186 97 111 q 68 368 46 261 l 189 936 q 204 962 192 951 q 232 972 217 972 l 457 972 q 481 962 472 972 q 488 936 490 951 l 367 372 q 376 265 351 301 q 468 229 400 229 q 578 265 535 229 q 635 372 621 301 l 756 936 q 771 962 758 951 q 799 972 783 972 l 1025 972 q 1049 962 1040 972 q 1054 936 1057 951 l 933 368 q 856 169 908 249 q 724 45 804 89 q 533 -10 643 1 q 474 -32 494 -14 q 447 -76 454 -50 q 455 -128 442 -104 q 507 -153 468 -153 l 522 -153 q 546 -163 538 -153 q 551 -189 554 -174 l 532 -271 q 517 -296 529 -286 q 490 -306 506 -306 l 485 -306 z "},"Ů":{"ha":1021,"x_min":47,"x_max":1057,"o":"m 443 -14 q 277 9 354 -14 q 145 78 200 32 q 69 197 90 125 q 68 368 47 269 l 189 936 q 204 962 192 951 q 232 972 217 972 l 457 972 q 481 962 472 972 q 488 936 490 951 l 367 372 q 376 265 351 301 q 468 229 400 229 q 577 265 535 229 q 635 372 619 301 l 756 936 q 771 962 758 951 q 799 972 783 972 l 1025 972 q 1049 962 1040 972 q 1054 936 1057 951 l 933 368 q 774 78 892 171 q 443 -14 656 -14 m 628 1028 q 541 1064 574 1028 q 521 1154 508 1100 q 578 1246 532 1210 q 681 1282 625 1282 q 767 1246 735 1282 q 788 1154 800 1210 q 730 1064 776 1100 q 628 1028 683 1028 m 644 1113 q 678 1124 664 1113 q 696 1154 692 1136 q 691 1184 700 1172 q 663 1196 682 1196 q 631 1184 644 1196 q 613 1154 617 1172 q 617 1124 608 1136 q 644 1113 626 1113 z "},"Ũ":{"ha":1021,"x_min":47,"x_max":1057,"o":"m 443 -14 q 277 9 354 -14 q 145 78 200 32 q 69 197 90 125 q 68 368 47 269 l 189 936 q 204 962 192 951 q 232 972 217 972 l 457 972 q 481 962 472 972 q 488 936 490 951 l 367 372 q 376 265 351 301 q 468 229 400 229 q 577 265 535 229 q 635 372 619 301 l 756 936 q 771 962 758 951 q 799 972 783 972 l 1025 972 q 1049 962 1040 972 q 1054 936 1057 951 l 933 368 q 774 78 892 171 q 443 -14 656 -14 m 742 1035 q 676 1047 703 1035 q 630 1072 650 1060 q 583 1085 610 1085 q 551 1074 563 1085 q 530 1053 539 1064 q 506 1042 521 1042 l 406 1042 q 390 1049 396 1042 q 385 1067 383 1057 q 403 1122 390 1089 q 440 1188 417 1156 q 499 1242 463 1221 q 586 1264 536 1264 q 652 1251 626 1264 q 699 1226 678 1239 q 746 1214 721 1214 q 778 1225 767 1214 q 799 1247 790 1236 q 824 1257 808 1257 l 924 1257 q 941 1249 936 1257 q 944 1232 946 1242 q 926 1176 939 1208 q 888 1110 913 1143 q 828 1056 864 1078 q 742 1035 792 1035 z "},"V":{"ha":986,"x_min":135,"x_max":1076,"o":"m 272 0 q 234 14 246 0 q 221 43 222 28 l 136 933 q 146 963 135 953 q 172 972 157 972 l 381 972 q 416 958 406 972 q 428 931 426 944 l 469 351 l 757 931 q 779 958 763 944 q 821 972 796 972 l 1050 972 q 1072 959 1067 972 q 1069 931 1076 946 l 610 43 q 583 14 600 28 q 540 0 567 0 l 272 0 z "},"W":{"ha":1167,"x_min":106,"x_max":1240,"o":"m 156 0 q 117 15 129 0 q 107 49 106 31 l 144 939 q 156 963 144 953 q 181 972 167 972 l 390 972 q 422 964 413 972 q 429 936 432 956 l 400 474 l 529 718 q 547 743 535 729 q 583 757 560 757 l 704 757 q 735 743 728 757 q 743 718 742 729 l 771 472 l 939 938 q 993 972 950 972 l 1214 972 q 1235 961 1229 972 q 1236 938 1240 950 l 919 49 q 895 15 914 31 q 850 0 876 0 l 683 0 q 649 13 658 0 q 636 36 639 26 l 565 378 l 383 36 q 363 13 378 26 q 321 0 347 0 l 156 0 z "},"Ẃ":{"ha":1167,"x_min":106,"x_max":1240,"o":"m 156 0 q 117 15 129 0 q 107 49 106 31 l 144 939 q 156 963 144 953 q 181 972 167 972 l 390 972 q 422 964 413 972 q 429 936 432 956 l 400 474 l 529 718 q 547 743 535 729 q 583 757 560 757 l 704 757 q 735 743 728 757 q 743 718 742 729 l 771 472 l 939 938 q 993 972 950 972 l 1214 972 q 1235 961 1229 972 q 1236 938 1240 950 l 919 49 q 895 15 914 31 q 850 0 876 0 l 683 0 q 649 13 658 0 q 636 36 639 26 l 565 378 l 383 36 q 363 13 378 26 q 321 0 347 0 l 156 0 m 593 1042 q 575 1063 571 1042 q 585 1082 576 1074 l 751 1242 q 781 1263 769 1258 q 808 1268 792 1268 l 1040 1268 q 1058 1260 1053 1268 q 1063 1242 1064 1253 q 1050 1224 1061 1231 l 824 1064 q 797 1048 810 1054 q 763 1042 783 1042 l 593 1042 z "},"Ŵ":{"ha":1167,"x_min":106,"x_max":1240,"o":"m 156 0 q 117 15 129 0 q 107 49 106 31 l 144 939 q 156 963 144 953 q 181 972 167 972 l 390 972 q 422 964 413 972 q 429 936 432 956 l 400 474 l 529 718 q 547 743 535 729 q 583 757 560 757 l 704 757 q 735 743 728 757 q 743 718 742 729 l 771 472 l 939 938 q 993 972 950 972 l 1214 972 q 1235 961 1229 972 q 1236 938 1240 950 l 919 49 q 895 15 914 31 q 850 0 876 0 l 683 0 q 649 13 658 0 q 636 36 639 26 l 565 378 l 383 36 q 363 13 378 26 q 321 0 347 0 l 156 0 m 429 1042 q 411 1063 408 1042 q 422 1081 414 1074 l 607 1242 q 637 1263 625 1257 q 663 1268 649 1268 l 813 1268 q 837 1263 826 1268 q 857 1242 847 1257 l 974 1081 q 976 1063 979 1074 q 951 1042 972 1042 l 875 1042 q 850 1043 861 1042 q 826 1051 839 1044 l 715 1114 l 578 1051 q 551 1044 564 1046 q 526 1042 539 1042 l 429 1042 z "},"Ẅ":{"ha":1167,"x_min":106,"x_max":1240,"o":"m 156 0 q 117 15 129 0 q 107 49 106 31 l 144 939 q 156 963 144 953 q 181 972 167 972 l 390 972 q 422 964 413 972 q 429 936 432 956 l 400 474 l 529 718 q 547 743 535 729 q 583 757 560 757 l 704 757 q 735 743 728 757 q 743 718 742 729 l 771 472 l 939 938 q 993 972 950 972 l 1214 972 q 1235 961 1229 972 q 1236 938 1240 950 l 919 49 q 895 15 914 31 q 850 0 876 0 l 683 0 q 649 13 658 0 q 636 36 639 26 l 565 378 l 383 36 q 363 13 378 26 q 321 0 347 0 l 156 0 m 801 1042 q 781 1050 788 1042 q 776 1074 774 1058 l 808 1224 q 822 1247 811 1238 q 846 1256 832 1256 l 996 1256 q 1017 1247 1010 1256 q 1021 1224 1024 1238 l 990 1074 q 976 1050 988 1058 q 951 1042 965 1042 l 801 1042 m 450 1042 q 429 1050 436 1042 q 425 1074 422 1058 l 457 1224 q 470 1247 460 1238 q 494 1256 481 1256 l 644 1256 q 665 1247 658 1256 q 669 1224 672 1238 l 639 1074 q 625 1050 636 1058 q 600 1042 614 1042 l 450 1042 z "},"Ẁ":{"ha":1167,"x_min":106,"x_max":1240,"o":"m 156 0 q 117 15 129 0 q 107 49 106 31 l 144 939 q 156 963 144 953 q 181 972 167 972 l 390 972 q 422 964 413 972 q 429 936 432 956 l 400 474 l 529 718 q 547 743 535 729 q 583 757 560 757 l 704 757 q 735 743 728 757 q 743 718 742 729 l 771 472 l 939 938 q 993 972 950 972 l 1214 972 q 1235 961 1229 972 q 1236 938 1240 950 l 919 49 q 895 15 914 31 q 850 0 876 0 l 683 0 q 649 13 658 0 q 636 36 639 26 l 565 378 l 383 36 q 363 13 378 26 q 321 0 347 0 l 156 0 m 631 1042 q 600 1048 610 1042 q 581 1064 590 1054 l 421 1222 q 417 1240 414 1229 q 449 1268 421 1268 l 671 1268 q 697 1263 688 1268 q 717 1242 706 1258 l 813 1082 q 815 1064 818 1075 q 789 1042 811 1042 l 631 1042 z "},"X":{"ha":992,"x_min":-76,"x_max":1090,"o":"m -47 0 q -70 16 -64 0 q -64 46 -76 32 l 350 501 l 139 926 q 141 957 131 942 q 172 972 151 972 l 399 972 q 435 960 425 972 q 447 940 444 947 l 558 718 l 750 940 q 772 960 757 947 q 813 972 786 972 l 1061 972 q 1085 956 1081 972 q 1079 926 1090 939 l 685 464 l 894 44 q 892 15 901 29 q 861 0 883 0 l 635 0 q 599 13 610 0 q 586 31 589 25 l 479 242 l 286 31 q 267 13 282 25 q 226 0 253 0 l -47 0 z "},"Y":{"ha":964,"x_min":119,"x_max":1069,"o":"m 282 0 q 258 10 267 0 q 253 36 250 21 l 313 322 l 125 929 q 131 958 119 944 q 160 972 142 972 l 365 972 q 401 960 390 972 q 413 940 411 947 l 513 622 l 749 940 q 769 960 754 947 q 810 972 785 972 l 1040 972 q 1065 957 1061 972 q 1058 929 1069 942 l 613 322 l 551 36 q 535 10 549 21 q 507 0 522 0 l 282 0 z "},"Ý":{"ha":964,"x_min":119,"x_max":1069,"o":"m 282 0 q 258 10 267 0 q 253 36 250 21 l 313 322 l 125 929 q 131 958 119 944 q 160 972 142 972 l 365 972 q 401 960 390 972 q 413 940 411 947 l 513 622 l 749 940 q 769 960 754 947 q 810 972 785 972 l 1040 972 q 1065 957 1061 972 q 1058 929 1069 942 l 613 322 l 551 36 q 535 10 549 21 q 507 0 522 0 l 282 0 m 486 1042 q 468 1063 464 1042 q 478 1082 469 1074 l 644 1242 q 674 1263 663 1258 q 701 1268 685 1268 l 933 1268 q 951 1260 946 1268 q 956 1242 957 1253 q 943 1224 954 1231 l 717 1064 q 690 1048 703 1054 q 656 1042 676 1042 l 486 1042 z "},"Ŷ":{"ha":964,"x_min":119,"x_max":1069,"o":"m 282 0 q 258 10 267 0 q 253 36 250 21 l 313 322 l 125 929 q 131 958 119 944 q 160 972 142 972 l 365 972 q 401 960 390 972 q 413 940 411 947 l 513 622 l 749 940 q 769 960 754 947 q 810 972 785 972 l 1040 972 q 1065 957 1061 972 q 1058 929 1069 942 l 613 322 l 551 36 q 535 10 549 21 q 507 0 522 0 l 282 0 m 321 1042 q 303 1063 300 1042 q 314 1081 306 1074 l 499 1242 q 528 1263 517 1257 q 554 1268 540 1268 l 704 1268 q 728 1263 718 1268 q 749 1242 739 1257 l 865 1081 q 868 1063 871 1074 q 843 1042 864 1042 l 767 1042 q 742 1043 753 1042 q 718 1051 731 1044 l 607 1114 l 469 1051 q 443 1044 456 1046 q 418 1042 431 1042 l 321 1042 z "},"Ÿ":{"ha":964,"x_min":119,"x_max":1069,"o":"m 282 0 q 258 10 267 0 q 253 36 250 21 l 313 322 l 125 929 q 131 958 119 944 q 160 972 142 972 l 365 972 q 401 960 390 972 q 413 940 411 947 l 513 622 l 749 940 q 769 960 754 947 q 810 972 785 972 l 1040 972 q 1065 957 1061 972 q 1058 929 1069 942 l 613 322 l 551 36 q 535 10 549 21 q 507 0 522 0 l 282 0 m 694 1042 q 674 1050 681 1042 q 669 1074 667 1058 l 701 1224 q 715 1247 704 1238 q 739 1256 725 1256 l 889 1256 q 910 1247 903 1256 q 914 1224 917 1238 l 883 1074 q 869 1050 881 1058 q 844 1042 858 1042 l 694 1042 m 343 1042 q 322 1050 329 1042 q 318 1074 315 1058 l 350 1224 q 363 1247 353 1238 q 388 1256 374 1256 l 538 1256 q 558 1247 551 1256 q 563 1224 565 1238 l 532 1074 q 518 1050 529 1058 q 493 1042 507 1042 l 343 1042 z "},"Ỳ":{"ha":964,"x_min":119,"x_max":1069,"o":"m 282 0 q 258 10 267 0 q 253 36 250 21 l 313 322 l 125 929 q 131 958 119 944 q 160 972 142 972 l 365 972 q 401 960 390 972 q 413 940 411 947 l 513 622 l 749 940 q 769 960 754 947 q 810 972 785 972 l 1040 972 q 1065 957 1061 972 q 1058 929 1069 942 l 613 322 l 551 36 q 535 10 549 21 q 507 0 522 0 l 282 0 m 524 1042 q 493 1048 503 1042 q 474 1064 483 1054 l 314 1222 q 310 1240 307 1229 q 342 1268 314 1268 l 564 1268 q 590 1263 581 1268 q 610 1242 599 1258 l 706 1082 q 708 1064 711 1075 q 682 1042 704 1042 l 524 1042 z "},"Z":{"ha":931,"x_min":-33,"x_max":981,"o":"m -1 0 q -25 10 -17 0 q -31 36 -33 21 l 6 204 q 20 235 10 224 q 36 253 31 247 l 543 728 l 167 728 q 143 738 151 728 q 138 764 135 749 l 175 936 q 190 962 178 951 q 218 972 203 972 l 949 972 q 972 962 964 972 q 978 936 981 951 l 942 771 q 931 744 939 756 q 914 724 924 733 l 425 247 l 813 247 q 836 237 828 247 q 840 211 844 226 l 804 36 q 789 10 801 21 q 761 0 776 0 l -1 0 z "},"Ź":{"ha":931,"x_min":-33,"x_max":981,"o":"m -1 0 q -25 10 -17 0 q -31 36 -33 21 l 6 204 q 20 235 10 224 q 36 253 31 247 l 543 728 l 167 728 q 143 738 151 728 q 138 764 135 749 l 175 936 q 190 962 178 951 q 218 972 203 972 l 949 972 q 972 962 964 972 q 978 936 981 951 l 942 771 q 931 744 939 756 q 914 724 924 733 l 425 247 l 813 247 q 836 237 828 247 q 840 211 844 226 l 804 36 q 789 10 801 21 q 761 0 776 0 l -1 0 m 497 1042 q 479 1063 475 1042 q 489 1082 481 1074 l 656 1242 q 685 1263 674 1258 q 713 1268 696 1268 l 944 1268 q 963 1260 957 1268 q 967 1242 968 1253 q 954 1224 965 1231 l 728 1064 q 701 1048 714 1054 q 667 1042 688 1042 l 497 1042 z "},"Ž":{"ha":931,"x_min":-33,"x_max":981,"o":"m -1 0 q -25 10 -17 0 q -31 36 -33 21 l 6 204 q 20 235 10 224 q 36 253 31 247 l 543 728 l 167 728 q 143 738 151 728 q 138 764 135 749 l 175 936 q 190 962 178 951 q 218 972 203 972 l 949 972 q 972 962 964 972 q 978 936 981 951 l 942 771 q 931 744 939 756 q 914 724 924 733 l 425 247 l 813 247 q 836 237 828 247 q 840 211 844 226 l 804 36 q 789 10 801 21 q 761 0 776 0 l -1 0 m 528 1042 q 504 1047 514 1042 q 483 1067 494 1053 l 367 1228 q 364 1246 361 1235 q 389 1268 368 1268 l 465 1268 q 490 1266 478 1268 q 514 1258 501 1264 l 625 1194 l 763 1258 q 788 1266 776 1264 q 814 1268 800 1268 l 911 1268 q 929 1247 932 1268 q 918 1228 926 1236 l 733 1067 q 703 1047 715 1053 q 678 1042 692 1042 l 528 1042 z "},"Ż":{"ha":931,"x_min":-33,"x_max":981,"o":"m -1 0 q -25 10 -17 0 q -31 36 -33 21 l 6 204 q 20 235 10 224 q 36 253 31 247 l 543 728 l 167 728 q 143 738 151 728 q 138 764 135 749 l 175 936 q 190 962 178 951 q 218 972 203 972 l 949 972 q 972 962 964 972 q 978 936 981 951 l 942 771 q 931 744 939 756 q 914 724 924 733 l 425 247 l 813 247 q 836 237 828 247 q 840 211 844 226 l 804 36 q 789 10 801 21 q 761 0 776 0 l -1 0 m 519 1042 q 499 1050 506 1042 q 494 1074 492 1058 l 529 1239 q 543 1262 532 1253 q 568 1271 554 1271 l 735 1271 q 756 1262 749 1271 q 760 1239 763 1253 l 724 1074 q 710 1050 721 1058 q 685 1042 699 1042 l 519 1042 z "},"a":{"ha":893,"x_min":14,"x_max":882,"o":"m 267 -14 q 152 6 203 -14 q 69 65 101 25 q 25 167 36 106 q 28 310 14 228 q 38 363 33 340 q 50 414 43 385 q 103 552 69 492 q 182 653 136 613 q 285 715 228 693 q 411 736 343 736 q 537 715 493 736 q 606 660 581 693 l 613 686 q 628 712 615 701 q 654 722 640 722 l 850 722 q 874 712 865 722 q 879 686 882 701 l 742 36 q 726 10 739 21 q 699 0 714 0 l 503 0 q 478 10 488 0 q 472 36 469 21 l 481 75 q 390 10 439 35 q 267 -14 342 -14 m 392 203 q 452 218 428 203 q 492 258 476 233 q 515 314 507 283 q 528 367 524 344 q 538 418 533 390 q 538 469 543 447 q 514 506 532 492 q 463 519 496 519 q 404 505 428 519 q 366 465 381 490 q 342 406 351 439 q 331 361 336 385 q 322 317 325 338 q 321 258 318 283 q 340 217 324 232 q 392 203 357 203 z "},"á":{"ha":893,"x_min":14,"x_max":892,"o":"m 267 -14 q 152 6 203 -14 q 69 65 101 25 q 25 167 36 106 q 28 310 14 228 q 38 363 33 340 q 50 414 43 385 q 103 552 69 492 q 182 653 136 613 q 285 715 228 693 q 411 736 343 736 q 537 715 493 736 q 606 660 581 693 l 613 686 q 628 712 615 701 q 654 722 640 722 l 850 722 q 874 712 865 722 q 879 686 882 701 l 742 36 q 726 10 739 21 q 699 0 714 0 l 503 0 q 478 10 488 0 q 472 36 469 21 l 481 75 q 390 10 439 35 q 267 -14 342 -14 m 392 203 q 452 218 428 203 q 492 258 476 233 q 515 314 507 283 q 528 367 524 344 q 538 418 533 390 q 538 469 543 447 q 514 506 532 492 q 463 519 496 519 q 404 505 428 519 q 366 465 381 490 q 342 406 351 439 q 331 361 336 385 q 322 317 325 338 q 321 258 318 283 q 340 217 324 232 q 392 203 357 203 m 432 826 q 414 849 410 826 q 425 867 417 860 l 590 1026 q 619 1048 608 1043 q 647 1053 631 1053 l 868 1053 q 889 1025 892 1053 q 878 1008 888 1015 l 650 849 q 623 833 636 839 q 589 826 610 826 l 432 826 z "},"ă":{"ha":893,"x_min":14,"x_max":882,"o":"m 267 -14 q 152 6 203 -14 q 69 65 101 25 q 25 167 36 106 q 28 310 14 228 q 38 363 33 340 q 50 414 43 385 q 103 552 69 492 q 182 653 136 613 q 285 715 228 693 q 411 736 343 736 q 537 715 493 736 q 606 660 581 693 l 613 686 q 628 712 615 701 q 654 722 640 722 l 850 722 q 874 712 865 722 q 879 686 882 701 l 742 36 q 726 10 739 21 q 699 0 714 0 l 503 0 q 478 10 488 0 q 472 36 469 21 l 481 75 q 390 10 439 35 q 267 -14 342 -14 m 392 203 q 452 218 428 203 q 492 258 476 233 q 515 314 507 283 q 528 367 524 344 q 538 418 533 390 q 538 469 543 447 q 514 506 532 492 q 463 519 496 519 q 404 505 428 519 q 366 465 381 490 q 342 406 351 439 q 331 361 336 385 q 322 317 325 338 q 321 258 318 283 q 340 217 324 232 q 392 203 357 203 m 540 819 q 426 847 474 819 q 358 922 378 875 q 349 1026 338 968 q 360 1045 351 1038 q 381 1053 368 1053 l 490 1053 q 508 1045 503 1053 q 511 1026 514 1038 q 513 970 506 994 q 554 946 519 946 q 607 970 589 946 q 632 1026 625 994 q 643 1045 635 1038 q 664 1053 651 1053 l 774 1053 q 792 1045 786 1053 q 794 1026 797 1038 q 753 922 782 968 q 672 847 724 875 q 540 819 619 819 z "},"â":{"ha":893,"x_min":14,"x_max":882,"o":"m 267 -14 q 152 6 203 -14 q 69 65 101 25 q 25 167 36 106 q 28 310 14 228 q 38 363 33 340 q 50 414 43 385 q 103 552 69 492 q 182 653 136 613 q 285 715 228 693 q 411 736 343 736 q 537 715 493 736 q 606 660 581 693 l 613 686 q 628 712 615 701 q 654 722 640 722 l 850 722 q 874 712 865 722 q 879 686 882 701 l 742 36 q 726 10 739 21 q 699 0 714 0 l 503 0 q 478 10 488 0 q 472 36 469 21 l 481 75 q 390 10 439 35 q 267 -14 342 -14 m 392 203 q 452 218 428 203 q 492 258 476 233 q 515 314 507 283 q 528 367 524 344 q 538 418 533 390 q 538 469 543 447 q 514 506 532 492 q 463 519 496 519 q 404 505 428 519 q 366 465 381 490 q 342 406 351 439 q 331 361 336 385 q 322 317 325 338 q 321 258 318 283 q 340 217 324 232 q 392 203 357 203 m 271 826 q 253 847 250 826 q 264 865 256 858 l 449 1026 q 478 1047 467 1042 q 504 1053 490 1053 l 643 1053 q 667 1047 657 1053 q 688 1026 678 1042 l 803 865 q 807 847 810 858 q 782 826 803 826 l 711 826 q 685 828 697 826 q 663 836 674 829 l 551 899 l 414 836 q 388 828 400 829 q 363 826 375 826 l 271 826 z "},"ä":{"ha":893,"x_min":14,"x_max":882,"o":"m 267 -14 q 152 6 203 -14 q 69 65 101 25 q 25 167 36 106 q 28 310 14 228 q 38 363 33 340 q 50 414 43 385 q 103 552 69 492 q 182 653 136 613 q 285 715 228 693 q 411 736 343 736 q 537 715 493 736 q 606 660 581 693 l 613 686 q 628 712 615 701 q 654 722 640 722 l 850 722 q 874 712 865 722 q 879 686 882 701 l 742 36 q 726 10 739 21 q 699 0 714 0 l 503 0 q 478 10 488 0 q 472 36 469 21 l 481 75 q 390 10 439 35 q 267 -14 342 -14 m 392 203 q 452 218 428 203 q 492 258 476 233 q 515 314 507 283 q 528 367 524 344 q 538 418 533 390 q 538 469 543 447 q 514 506 532 492 q 463 519 496 519 q 404 505 428 519 q 366 465 381 490 q 342 406 351 439 q 331 361 336 385 q 322 317 325 338 q 321 258 318 283 q 340 217 324 232 q 392 203 357 203 m 611 835 q 590 844 597 835 q 586 867 583 853 l 618 1017 q 631 1040 621 1031 q 656 1049 642 1049 l 806 1049 q 826 1040 819 1049 q 831 1017 833 1031 l 800 867 q 786 844 797 853 q 761 835 775 835 l 611 835 m 301 835 q 281 844 288 835 q 276 867 274 853 l 308 1017 q 322 1040 311 1031 q 346 1049 332 1049 l 496 1049 q 517 1040 510 1049 q 522 1017 525 1031 l 490 867 q 476 844 488 853 q 451 835 465 835 l 301 835 z "},"à":{"ha":893,"x_min":14,"x_max":882,"o":"m 267 -14 q 152 6 203 -14 q 69 65 101 25 q 25 167 36 106 q 28 310 14 228 q 38 363 33 340 q 50 414 43 385 q 103 552 69 492 q 182 653 136 613 q 285 715 228 693 q 411 736 343 736 q 537 715 493 736 q 606 660 581 693 l 613 686 q 628 712 615 701 q 654 722 640 722 l 850 722 q 874 712 865 722 q 879 686 882 701 l 742 36 q 726 10 739 21 q 699 0 714 0 l 503 0 q 478 10 488 0 q 472 36 469 21 l 481 75 q 390 10 439 35 q 267 -14 342 -14 m 392 203 q 452 218 428 203 q 492 258 476 233 q 515 314 507 283 q 528 367 524 344 q 538 418 533 390 q 538 469 543 447 q 514 506 532 492 q 463 519 496 519 q 404 505 428 519 q 366 465 381 490 q 342 406 351 439 q 331 361 336 385 q 322 317 325 338 q 321 258 318 283 q 340 217 324 232 q 392 203 357 203 m 469 826 q 439 833 449 826 q 419 849 429 839 l 260 1007 q 256 1025 254 1015 q 288 1053 260 1053 l 519 1053 q 545 1048 536 1053 q 565 1026 554 1043 l 661 867 q 665 849 668 860 q 639 826 660 826 l 469 826 z "},"ā":{"ha":893,"x_min":14,"x_max":882,"o":"m 267 -14 q 152 6 203 -14 q 69 65 101 25 q 25 167 36 106 q 28 310 14 228 q 38 363 33 340 q 50 414 43 385 q 103 552 69 492 q 182 653 136 613 q 285 715 228 693 q 411 736 343 736 q 537 715 493 736 q 606 660 581 693 l 613 686 q 628 712 615 701 q 654 722 640 722 l 850 722 q 874 712 865 722 q 879 686 882 701 l 742 36 q 726 10 739 21 q 699 0 714 0 l 503 0 q 478 10 488 0 q 472 36 469 21 l 481 75 q 390 10 439 35 q 267 -14 342 -14 m 392 203 q 452 218 428 203 q 492 258 476 233 q 515 314 507 283 q 528 367 524 344 q 538 418 533 390 q 538 469 543 447 q 514 506 532 492 q 463 519 496 519 q 404 505 428 519 q 366 465 381 490 q 342 406 351 439 q 331 361 336 385 q 322 317 325 338 q 321 258 318 283 q 340 217 324 232 q 392 203 357 203 m 318 833 q 297 842 304 833 q 293 865 290 851 l 318 986 q 332 1009 321 1000 q 357 1018 343 1018 l 778 1018 q 799 1009 792 1018 q 803 986 806 1000 l 778 865 q 764 842 775 851 q 739 833 753 833 l 318 833 z "},"ą":{"ha":894,"x_min":15,"x_max":882,"o":"m 629 -306 q 490 -259 533 -306 q 447 -142 447 -212 q 458 -75 447 -111 q 488 -6 468 -39 q 532 46 507 28 l 535 0 l 507 0 q 478 10 488 0 q 474 42 469 21 l 481 75 q 390 10 439 35 q 267 -14 342 -14 q 151 6 201 -14 q 69 67 101 26 q 26 167 36 107 q 28 310 15 228 q 38 363 33 340 q 50 414 43 385 q 103 552 69 492 q 182 653 136 613 q 285 715 228 693 q 411 736 343 736 q 537 715 493 736 q 606 660 581 693 l 613 686 q 628 712 615 701 q 654 722 640 722 l 850 722 q 874 712 865 722 q 879 686 882 701 l 742 35 q 727 10 739 21 q 701 -1 715 -1 l 693 -1 q 633 -35 657 -6 q 610 -100 610 -64 q 623 -137 610 -121 q 667 -153 636 -153 l 679 -153 q 703 -163 694 -153 q 708 -189 711 -174 l 690 -269 q 674 -295 688 -285 q 647 -306 661 -306 l 629 -306 m 392 203 q 452 218 428 203 q 492 258 476 233 q 515 314 507 283 q 528 367 524 344 q 538 418 533 390 q 539 457 540 439 q 529 489 538 475 q 504 511 521 503 q 463 519 488 519 q 404 505 428 519 q 366 465 381 490 q 342 406 351 439 q 331 361 336 385 q 322 317 325 338 q 320 272 321 293 q 327 236 319 251 q 349 212 335 221 q 392 203 364 203 z "},"å":{"ha":893,"x_min":14,"x_max":882,"o":"m 267 -14 q 152 6 203 -14 q 69 65 101 25 q 25 167 36 106 q 28 310 14 228 q 38 363 33 340 q 50 414 43 385 q 103 552 69 492 q 182 653 136 613 q 285 715 228 693 q 411 736 343 736 q 537 715 493 736 q 606 660 581 693 l 613 686 q 628 712 615 701 q 654 722 640 722 l 850 722 q 874 712 865 722 q 879 686 882 701 l 742 36 q 726 10 739 21 q 699 0 714 0 l 503 0 q 478 10 488 0 q 472 36 469 21 l 481 75 q 390 10 439 35 q 267 -14 342 -14 m 392 203 q 452 218 428 203 q 492 258 476 233 q 515 314 507 283 q 528 367 524 344 q 538 418 533 390 q 538 469 543 447 q 514 506 532 492 q 463 519 496 519 q 404 505 428 519 q 366 465 381 490 q 342 406 351 439 q 331 361 336 385 q 322 317 325 338 q 321 258 318 283 q 340 217 324 232 q 392 203 357 203 m 522 819 q 435 856 468 819 q 415 946 403 892 q 473 1038 426 1001 q 575 1074 519 1074 q 662 1038 629 1074 q 682 946 694 1001 q 624 856 671 892 q 522 819 578 819 m 539 904 q 572 916 558 904 q 590 946 586 928 q 585 976 594 964 q 557 988 576 988 q 525 976 539 988 q 507 946 511 964 q 512 916 503 928 q 539 904 521 904 z "},"ã":{"ha":893,"x_min":14,"x_max":882,"o":"m 267 -14 q 152 6 203 -14 q 69 65 101 25 q 25 167 36 106 q 28 310 14 228 q 38 363 33 340 q 50 414 43 385 q 103 552 69 492 q 182 653 136 613 q 285 715 228 693 q 411 736 343 736 q 537 715 493 736 q 606 660 581 693 l 613 686 q 628 712 615 701 q 654 722 640 722 l 850 722 q 874 712 865 722 q 879 686 882 701 l 742 36 q 726 10 739 21 q 699 0 714 0 l 503 0 q 478 10 488 0 q 472 36 469 21 l 481 75 q 390 10 439 35 q 267 -14 342 -14 m 392 203 q 452 218 428 203 q 492 258 476 233 q 515 314 507 283 q 528 367 524 344 q 538 418 533 390 q 538 469 543 447 q 514 506 532 492 q 463 519 496 519 q 404 505 428 519 q 366 465 381 490 q 342 406 351 439 q 331 361 336 385 q 322 317 325 338 q 321 258 318 283 q 340 217 324 232 q 392 203 357 203 m 639 819 q 574 832 599 819 q 528 857 549 844 q 482 869 507 869 q 450 859 461 869 q 429 838 439 849 q 404 826 419 826 l 304 826 q 288 834 294 826 q 283 851 282 842 q 302 907 289 874 q 338 972 315 940 q 398 1026 361 1004 q 485 1047 435 1047 q 550 1035 525 1047 q 597 1010 575 1022 q 643 997 618 997 q 674 1008 663 997 q 694 1030 685 1019 q 719 1040 704 1040 l 819 1040 q 837 1033 832 1040 q 840 1015 842 1025 q 822 959 835 992 q 784 894 808 926 q 724 841 760 863 q 639 819 689 819 z "},"æ":{"ha":1285,"x_min":-6,"x_max":1263,"o":"m 247 -14 q 99 15 157 -14 q 17 94 40 44 q 7 204 -6 143 q 121 363 26 304 q 356 443 215 421 l 521 468 l 524 479 q 523 542 532 522 q 472 563 514 563 q 424 551 443 563 q 388 527 404 540 q 350 510 371 514 q 345 505 347 506 q 339 504 343 504 l 147 504 q 127 513 133 504 q 124 535 121 521 q 156 594 129 560 q 231 660 183 628 q 349 715 279 693 q 511 736 419 736 q 644 719 594 736 q 721 671 694 701 q 829 719 771 701 q 953 736 888 736 q 1092 716 1035 736 q 1186 660 1150 696 q 1240 576 1222 624 q 1260 474 1258 529 q 1251 363 1263 419 l 1243 324 q 1227 299 1240 310 q 1199 288 1214 288 l 772 288 l 771 279 q 769 215 764 240 q 790 177 774 189 q 831 165 806 165 q 869 175 850 165 q 907 203 888 185 q 931 219 922 215 q 957 222 940 222 l 1174 222 q 1194 214 1188 222 q 1197 193 1200 206 q 1163 133 1192 168 q 1082 65 1133 99 q 958 8 1031 31 q 794 -14 886 -14 q 644 12 707 -14 q 544 83 582 38 q 394 6 472 25 q 247 -14 317 -14 m 344 168 q 408 183 379 168 q 459 228 438 197 q 490 304 481 258 l 492 314 l 388 294 q 310 267 335 285 q 279 225 285 249 q 284 196 276 208 q 308 176 292 183 q 344 168 324 168 m 806 443 l 976 443 l 976 449 q 976 512 979 486 q 958 550 972 538 q 917 563 944 563 q 868 551 892 563 q 827 515 844 540 q 807 449 810 489 l 806 443 z "},"ǽ":{"ha":1285,"x_min":-6,"x_max":1263,"o":"m 247 -14 q 99 15 157 -14 q 17 94 40 44 q 7 204 -6 143 q 121 363 26 304 q 356 443 215 421 l 521 468 l 524 479 q 523 542 532 522 q 472 563 514 563 q 424 551 443 563 q 388 527 404 540 q 350 510 371 514 q 345 505 347 506 q 339 504 343 504 l 147 504 q 127 513 133 504 q 124 535 121 521 q 156 594 129 560 q 231 660 183 628 q 349 715 279 693 q 511 736 419 736 q 644 719 594 736 q 721 671 694 701 q 829 719 771 701 q 953 736 888 736 q 1092 716 1035 736 q 1186 660 1150 696 q 1240 576 1222 624 q 1260 474 1258 529 q 1251 363 1263 419 l 1243 324 q 1227 299 1240 310 q 1199 288 1214 288 l 772 288 l 771 279 q 769 215 764 240 q 790 177 774 189 q 831 165 806 165 q 869 175 850 165 q 907 203 888 185 q 931 219 922 215 q 957 222 940 222 l 1174 222 q 1194 214 1188 222 q 1197 193 1200 206 q 1163 133 1192 168 q 1082 65 1133 99 q 958 8 1031 31 q 794 -14 886 -14 q 644 12 707 -14 q 544 83 582 38 q 394 6 472 25 q 247 -14 317 -14 m 344 168 q 408 183 379 168 q 459 228 438 197 q 490 304 481 258 l 492 314 l 388 294 q 310 267 335 285 q 279 225 285 249 q 284 196 276 208 q 308 176 292 183 q 344 168 324 168 m 806 443 l 976 443 l 976 449 q 976 512 979 486 q 958 550 972 538 q 917 563 944 563 q 868 551 892 563 q 827 515 844 540 q 807 449 810 489 l 806 443 m 649 826 q 631 849 626 826 q 642 867 633 860 l 807 1026 q 836 1048 825 1043 q 864 1053 847 1053 l 1085 1053 q 1106 1025 1108 1053 q 1094 1008 1104 1015 l 867 849 q 840 833 853 839 q 806 826 826 826 l 649 826 z "},"b":{"ha":896,"x_min":-10,"x_max":861,"o":"m 474 -14 q 347 10 399 -14 q 269 75 294 35 l 261 36 q 246 10 258 21 q 218 0 233 0 l 22 0 q -1 10 7 0 q -7 36 -10 21 l 188 950 q 203 976 190 965 q 231 986 215 986 l 444 986 q 467 976 458 986 q 474 950 476 965 l 411 663 q 498 716 453 696 q 607 736 543 736 q 722 715 672 736 q 805 653 772 694 q 849 553 838 613 q 847 415 861 493 q 838 363 843 386 q 825 308 832 339 q 747 128 797 200 q 628 22 697 57 q 474 -14 560 -14 m 411 203 q 471 217 447 203 q 510 258 494 232 q 535 317 525 285 q 547 361 542 338 q 554 406 551 385 q 555 465 558 439 q 535 505 551 490 q 482 519 518 519 q 424 506 449 519 q 383 469 399 492 q 360 418 368 447 q 347 367 351 390 q 338 314 342 344 q 338 258 333 283 q 359 218 342 233 q 411 203 376 203 z "},"c":{"ha":840,"x_min":8,"x_max":822,"o":"m 342 -14 q 167 23 246 -14 q 48 131 88 60 q 24 304 8 203 q 35 360 28 326 q 47 417 42 393 q 199 653 88 569 q 476 736 311 736 q 643 707 575 736 q 751 635 711 678 q 806 548 790 592 q 818 475 822 504 q 803 449 817 460 q 776 439 790 439 l 551 439 q 528 446 536 439 q 518 467 521 453 q 499 513 514 497 q 453 528 485 528 q 381 498 408 528 q 339 410 354 468 q 326 356 332 381 q 318 311 321 331 q 322 223 308 251 q 378 194 335 194 q 433 209 413 194 q 472 254 454 224 q 491 276 481 268 q 517 283 501 283 l 742 283 q 766 272 757 283 q 771 246 775 261 q 736 178 763 221 q 660 92 710 136 q 533 17 611 47 q 342 -14 454 -14 z "},"ć":{"ha":840,"x_min":8,"x_max":864,"o":"m 342 -14 q 167 23 246 -14 q 48 131 88 60 q 24 304 8 203 q 35 360 28 326 q 47 417 42 393 q 199 653 88 569 q 476 736 311 736 q 643 707 575 736 q 751 635 711 678 q 806 548 790 592 q 818 475 822 504 q 803 449 817 460 q 776 439 790 439 l 551 439 q 528 446 536 439 q 518 467 521 453 q 499 513 514 497 q 453 528 485 528 q 381 498 408 528 q 339 410 354 468 q 326 356 332 381 q 318 311 321 331 q 322 223 308 251 q 378 194 335 194 q 433 209 413 194 q 472 254 454 224 q 491 276 481 268 q 517 283 501 283 l 742 283 q 766 272 757 283 q 771 246 775 261 q 736 178 763 221 q 660 92 710 136 q 533 17 611 47 q 342 -14 454 -14 m 404 826 q 386 849 382 826 q 397 867 389 860 l 563 1026 q 592 1048 581 1043 q 619 1053 603 1053 l 840 1053 q 861 1025 864 1053 q 850 1008 860 1015 l 622 849 q 595 833 608 839 q 561 826 582 826 l 404 826 z "},"č":{"ha":840,"x_min":8,"x_max":826,"o":"m 342 -14 q 167 23 246 -14 q 48 131 88 60 q 24 304 8 203 q 35 360 28 326 q 47 417 42 393 q 199 653 88 569 q 476 736 311 736 q 643 707 575 736 q 751 635 711 678 q 806 548 790 592 q 818 475 822 504 q 803 449 817 460 q 776 439 790 439 l 551 439 q 528 446 536 439 q 518 467 521 453 q 499 513 514 497 q 453 528 485 528 q 381 498 408 528 q 339 410 354 468 q 326 356 332 381 q 318 311 321 331 q 322 223 308 251 q 378 194 335 194 q 433 209 413 194 q 472 254 454 224 q 491 276 481 268 q 517 283 501 283 l 742 283 q 766 272 757 283 q 771 246 775 261 q 736 178 763 221 q 660 92 710 136 q 533 17 611 47 q 342 -14 454 -14 m 433 826 q 410 832 419 826 q 389 851 400 838 l 272 1013 q 269 1031 267 1019 q 278 1047 271 1042 q 294 1053 285 1053 l 365 1053 q 390 1051 378 1053 q 414 1043 401 1049 l 525 979 l 663 1043 q 688 1051 676 1049 q 714 1053 700 1053 l 806 1053 q 824 1032 826 1053 q 813 1013 821 1021 l 626 851 q 598 832 610 838 q 572 826 586 826 l 433 826 z "},"ç":{"ha":840,"x_min":10,"x_max":822,"o":"m 290 -306 q 222 -294 254 -306 q 178 -265 190 -282 q 185 -235 165 -247 l 215 -211 q 238 -203 231 -200 q 258 -212 246 -206 q 296 -219 271 -219 q 329 -208 315 -219 q 346 -182 343 -197 q 340 -156 349 -167 q 311 -144 332 -144 q 282 -149 297 -144 q 254 -153 267 -153 q 235 -146 242 -154 l 207 -110 q 202 -90 200 -100 q 217 -61 204 -79 l 253 -4 q 121 50 178 10 q 37 154 64 90 q 24 304 10 218 q 35 360 28 326 q 47 417 42 393 q 199 653 88 569 q 476 736 311 736 q 643 707 575 736 q 751 635 711 678 q 806 548 790 592 q 818 475 822 504 q 803 449 817 460 q 776 439 790 439 l 551 439 q 528 446 536 439 q 518 467 521 453 q 499 513 514 497 q 453 528 485 528 q 381 498 408 528 q 339 410 354 468 q 326 356 332 381 q 318 311 321 331 q 322 223 308 251 q 378 194 335 194 q 433 209 413 194 q 472 254 454 224 q 491 276 481 268 q 517 283 501 283 l 742 283 q 766 272 757 283 q 771 246 775 261 q 736 178 763 221 q 661 92 710 136 q 535 17 613 47 q 346 -14 457 -12 l 308 -65 q 333 -60 318 -62 q 354 -58 349 -58 q 426 -96 404 -58 q 438 -187 449 -133 q 390 -274 428 -242 q 290 -306 353 -306 z "},"ĉ":{"ha":840,"x_min":8,"x_max":822,"o":"m 342 -14 q 167 23 246 -14 q 48 131 88 60 q 24 304 8 203 q 35 360 28 326 q 47 417 42 393 q 199 653 88 569 q 476 736 311 736 q 643 707 575 736 q 751 635 711 678 q 806 548 790 592 q 818 475 822 504 q 803 449 817 460 q 776 439 790 439 l 551 439 q 528 446 536 439 q 518 467 521 453 q 499 513 514 497 q 453 528 485 528 q 381 498 408 528 q 339 410 354 468 q 326 356 332 381 q 318 311 321 331 q 322 223 308 251 q 378 194 335 194 q 433 209 413 194 q 472 254 454 224 q 491 276 481 268 q 517 283 501 283 l 742 283 q 766 272 757 283 q 771 246 775 261 q 736 178 763 221 q 660 92 710 136 q 533 17 611 47 q 342 -14 454 -14 m 243 826 q 225 847 222 826 q 236 865 228 858 l 421 1026 q 451 1047 439 1042 q 476 1053 463 1053 l 615 1053 q 640 1047 629 1053 q 660 1026 650 1042 l 775 865 q 779 847 782 858 q 754 826 775 826 l 683 826 q 658 828 669 826 q 635 836 646 829 l 524 899 l 386 836 q 360 828 372 829 q 335 826 347 826 l 243 826 z "},"ċ":{"ha":840,"x_min":8,"x_max":822,"o":"m 342 -14 q 167 23 246 -14 q 48 131 88 60 q 24 304 8 203 q 35 360 28 326 q 47 417 42 393 q 199 653 88 569 q 476 736 311 736 q 643 707 575 736 q 751 635 711 678 q 806 548 790 592 q 818 475 822 504 q 803 449 817 460 q 776 439 790 439 l 551 439 q 528 446 536 439 q 518 467 521 453 q 499 513 514 497 q 453 528 485 528 q 381 498 408 528 q 339 410 354 468 q 326 356 332 381 q 318 311 321 331 q 322 223 308 251 q 378 194 335 194 q 433 209 413 194 q 472 254 454 224 q 491 276 481 268 q 517 283 501 283 l 742 283 q 766 272 757 283 q 771 246 775 261 q 736 178 763 221 q 660 92 710 136 q 533 17 611 47 q 342 -14 454 -14 m 421 832 q 400 841 407 832 q 396 864 393 850 l 431 1024 q 444 1047 433 1038 q 468 1056 454 1056 l 629 1056 q 650 1047 643 1056 q 654 1024 657 1038 l 619 864 q 606 841 617 850 q 581 832 594 832 l 421 832 z "},"d":{"ha":897,"x_min":14,"x_max":942,"o":"m 267 -14 q 153 6 204 -14 q 69 65 101 25 q 26 167 38 106 q 28 310 14 228 q 38 363 33 340 q 50 414 43 385 q 102 552 69 492 q 181 653 135 613 q 282 715 226 693 q 401 736 338 736 q 516 716 465 736 q 593 663 567 696 l 653 950 q 668 976 656 965 q 696 986 681 986 l 910 986 q 933 976 924 986 q 939 950 942 965 l 744 36 q 728 10 742 21 q 701 0 715 0 l 504 0 q 481 10 490 0 q 475 36 472 21 l 483 75 q 392 10 442 35 q 267 -14 343 -14 m 393 203 q 453 218 429 203 q 494 258 478 233 q 518 314 510 283 q 531 367 526 344 q 539 418 535 390 q 539 469 544 447 q 515 506 533 492 q 464 519 497 519 q 405 505 429 519 q 366 465 381 490 q 342 406 351 439 q 331 361 336 385 q 322 317 325 338 q 321 258 318 283 q 341 217 324 232 q 393 203 358 203 z "},"ð":{"ha":864,"x_min":21,"x_max":892,"o":"m 357 -14 q 162 24 240 -14 q 52 136 83 61 q 43 319 21 211 q 133 503 68 429 q 294 615 199 578 q 499 653 389 653 q 525 650 514 653 q 547 643 536 647 q 534 691 542 668 q 517 735 526 714 l 344 674 q 328 669 332 669 q 309 678 315 669 q 306 699 303 686 l 314 735 q 326 763 317 753 q 353 778 335 772 l 461 817 q 415 868 440 843 q 363 915 390 893 q 351 929 354 922 q 349 942 347 936 q 363 963 351 954 q 386 972 374 972 l 603 972 q 644 967 629 972 q 668 954 660 961 q 692 931 681 942 q 714 908 704 921 l 850 957 q 867 961 863 961 q 885 953 879 961 q 889 932 892 944 l 881 896 q 869 869 878 879 q 842 853 860 860 l 774 828 q 837 641 822 749 q 826 386 851 533 q 819 349 824 368 q 811 314 815 331 q 721 135 783 208 q 566 24 658 61 q 357 -14 474 -14 m 399 182 q 453 195 431 182 q 492 233 476 208 q 513 289 507 257 q 521 319 518 306 q 526 350 524 332 q 528 405 532 381 q 508 443 525 429 q 457 457 492 457 q 401 443 424 457 q 364 405 378 429 q 343 350 350 381 q 335 319 338 332 q 331 289 332 307 q 327 233 324 258 q 348 195 331 208 q 399 182 365 182 z "},"ď":{"ha":1089,"x_min":14,"x_max":1293,"o":"m 267 -14 q 153 6 204 -14 q 69 65 101 25 q 26 167 38 106 q 28 310 14 228 q 38 363 33 340 q 50 414 43 385 q 102 552 69 492 q 181 653 135 613 q 282 715 226 693 q 401 736 338 736 q 516 716 465 736 q 593 663 567 696 l 653 950 q 668 976 656 965 q 696 986 681 986 l 910 986 q 933 976 924 986 q 939 950 942 965 l 744 36 q 728 10 742 21 q 701 0 715 0 l 504 0 q 481 10 490 0 q 475 36 472 21 l 483 75 q 392 10 442 35 q 267 -14 343 -14 m 393 203 q 453 218 429 203 q 494 258 478 233 q 518 314 510 283 q 531 367 526 344 q 539 418 535 390 q 539 469 544 447 q 515 506 533 492 q 464 519 497 519 q 405 505 429 519 q 366 465 381 490 q 342 406 351 439 q 331 361 336 385 q 322 317 325 338 q 321 258 318 283 q 341 217 324 232 q 393 203 358 203 m 986 719 q 969 728 975 719 q 965 749 963 736 l 1032 935 q 1056 970 1039 954 q 1099 986 1074 986 l 1268 986 q 1287 978 1281 986 q 1290 957 1293 969 q 1288 952 1289 956 q 1285 944 1288 949 l 1174 760 q 1150 733 1165 746 q 1110 719 1135 719 l 986 719 z "},"đ":{"ha":897,"x_min":14,"x_max":1008,"o":"m 253 -14 q 138 6 188 -14 q 60 67 89 26 q 22 169 31 108 q 26 310 14 229 q 38 363 33 340 q 49 414 43 385 q 102 549 68 489 q 184 651 136 610 q 290 714 232 692 q 413 736 347 736 q 521 716 476 736 q 590 663 565 696 l 614 767 l 564 767 q 542 778 550 767 q 536 803 533 789 l 550 864 q 565 890 553 879 q 592 901 578 901 l 642 901 l 653 950 q 668 976 656 965 q 696 986 681 986 l 908 986 q 932 976 924 986 q 938 950 940 965 l 926 901 l 976 901 q 999 890 990 901 q 1006 864 1008 879 l 992 803 q 976 778 989 789 q 947 767 963 767 l 899 767 l 743 36 q 728 10 740 21 q 700 0 715 0 l 504 0 q 481 10 489 0 q 475 36 472 21 l 485 82 q 386 13 444 40 q 253 -14 328 -14 m 394 203 q 455 218 431 203 q 494 258 479 233 q 517 314 510 283 q 530 367 525 344 q 539 418 535 390 q 538 469 544 447 q 514 506 532 492 q 463 519 496 519 q 403 505 426 519 q 365 465 379 490 q 340 406 350 439 q 329 361 335 385 q 321 317 324 338 q 320 258 317 283 q 341 217 324 232 q 394 203 358 203 z "},"e":{"ha":843,"x_min":28,"x_max":833,"o":"m 356 -14 q 163 26 240 -14 q 57 146 86 65 q 53 350 28 226 q 56 365 54 356 q 58 378 57 374 q 150 573 86 493 q 307 694 214 653 q 514 736 400 736 q 715 685 642 736 q 810 551 788 635 q 813 363 833 467 l 806 324 q 790 299 803 310 q 761 288 776 288 l 332 288 q 331 285 332 288 q 331 279 331 282 q 327 220 324 246 q 347 180 331 194 q 390 165 363 165 q 422 171 408 165 q 447 185 436 176 q 468 203 458 194 q 492 219 483 215 q 517 222 501 222 l 735 222 q 756 214 749 222 q 758 193 763 206 q 722 133 751 168 q 641 64 693 97 q 517 8 589 31 q 356 -14 444 -14 m 365 443 l 539 443 l 539 446 q 542 510 547 483 q 521 549 538 536 q 476 563 504 563 q 426 549 449 563 q 390 510 404 536 q 365 446 375 483 l 365 443 z "},"é":{"ha":843,"x_min":28,"x_max":885,"o":"m 356 -14 q 163 26 240 -14 q 57 146 86 65 q 53 350 28 226 q 56 365 54 356 q 58 378 57 374 q 150 573 86 493 q 307 694 214 653 q 514 736 400 736 q 715 685 642 736 q 810 551 788 635 q 813 363 833 467 l 806 324 q 790 299 803 310 q 761 288 776 288 l 332 288 q 331 285 332 288 q 331 279 331 282 q 327 220 324 246 q 347 180 331 194 q 390 165 363 165 q 422 171 408 165 q 447 185 436 176 q 468 203 458 194 q 492 219 483 215 q 517 222 501 222 l 735 222 q 756 214 749 222 q 758 193 763 206 q 722 133 751 168 q 641 64 693 97 q 517 8 589 31 q 356 -14 444 -14 m 365 443 l 539 443 l 539 446 q 542 510 547 483 q 521 549 538 536 q 476 563 504 563 q 426 549 449 563 q 390 510 404 536 q 365 446 375 483 l 365 443 m 425 826 q 407 849 403 826 q 418 867 410 860 l 583 1026 q 613 1048 601 1043 q 640 1053 624 1053 l 861 1053 q 882 1025 885 1053 q 871 1008 881 1015 l 643 849 q 616 833 629 839 q 582 826 603 826 l 425 826 z "},"ĕ":{"ha":843,"x_min":28,"x_max":833,"o":"m 356 -14 q 163 26 240 -14 q 57 146 86 65 q 53 350 28 226 q 56 365 54 356 q 58 378 57 374 q 150 573 86 493 q 307 694 214 653 q 514 736 400 736 q 715 685 642 736 q 810 551 788 635 q 813 363 833 467 l 806 324 q 790 299 803 310 q 761 288 776 288 l 332 288 q 331 285 332 288 q 331 279 331 282 q 327 220 324 246 q 347 180 331 194 q 390 165 363 165 q 422 171 408 165 q 447 185 436 176 q 468 203 458 194 q 492 219 483 215 q 517 222 501 222 l 735 222 q 756 214 749 222 q 758 193 763 206 q 722 133 751 168 q 641 64 693 97 q 517 8 589 31 q 356 -14 444 -14 m 365 443 l 539 443 l 539 446 q 542 510 547 483 q 521 549 538 536 q 476 563 504 563 q 426 549 449 563 q 390 510 404 536 q 365 446 375 483 l 365 443 m 535 819 q 420 847 468 819 q 352 922 372 875 q 343 1026 332 968 q 354 1045 346 1038 q 375 1053 363 1053 l 485 1053 q 503 1045 497 1053 q 506 1026 508 1038 q 507 970 500 994 q 549 946 514 946 q 601 970 583 946 q 626 1026 619 994 q 638 1045 629 1038 q 658 1053 646 1053 l 768 1053 q 786 1045 781 1053 q 789 1026 792 1038 q 747 922 776 968 q 666 847 718 875 q 535 819 614 819 z "},"ě":{"ha":843,"x_min":28,"x_max":847,"o":"m 356 -14 q 163 26 240 -14 q 57 146 86 65 q 53 350 28 226 q 56 365 54 356 q 58 378 57 374 q 150 573 86 493 q 307 694 214 653 q 514 736 400 736 q 715 685 642 736 q 810 551 788 635 q 813 363 833 467 l 806 324 q 790 299 803 310 q 761 288 776 288 l 332 288 q 331 285 332 288 q 331 279 331 282 q 327 220 324 246 q 347 180 331 194 q 390 165 363 165 q 422 171 408 165 q 447 185 436 176 q 468 203 458 194 q 492 219 483 215 q 517 222 501 222 l 735 222 q 756 214 749 222 q 758 193 763 206 q 722 133 751 168 q 641 64 693 97 q 517 8 589 31 q 356 -14 444 -14 m 365 443 l 539 443 l 539 446 q 542 510 547 483 q 521 549 538 536 q 476 563 504 563 q 426 549 449 563 q 390 510 404 536 q 365 446 375 483 l 365 443 m 454 826 q 431 832 440 826 q 410 851 421 838 l 293 1013 q 290 1031 288 1019 q 299 1047 292 1042 q 315 1053 306 1053 l 386 1053 q 410 1051 399 1053 q 435 1043 422 1049 l 546 979 l 683 1043 q 709 1051 697 1049 q 735 1053 721 1053 l 826 1053 q 844 1032 847 1053 q 833 1013 842 1021 l 647 851 q 619 832 631 838 q 593 826 607 826 l 454 826 z "},"ê":{"ha":843,"x_min":28,"x_max":833,"o":"m 356 -14 q 163 26 240 -14 q 57 146 86 65 q 53 350 28 226 q 56 365 54 356 q 58 378 57 374 q 150 573 86 493 q 307 694 214 653 q 514 736 400 736 q 715 685 642 736 q 810 551 788 635 q 813 363 833 467 l 806 324 q 790 299 803 310 q 761 288 776 288 l 332 288 q 331 285 332 288 q 331 279 331 282 q 327 220 324 246 q 347 180 331 194 q 390 165 363 165 q 422 171 408 165 q 447 185 436 176 q 468 203 458 194 q 492 219 483 215 q 517 222 501 222 l 735 222 q 756 214 749 222 q 758 193 763 206 q 722 133 751 168 q 641 64 693 97 q 517 8 589 31 q 356 -14 444 -14 m 365 443 l 539 443 l 539 446 q 542 510 547 483 q 521 549 538 536 q 476 563 504 563 q 426 549 449 563 q 390 510 404 536 q 365 446 375 483 l 365 443 m 264 826 q 246 847 243 826 q 257 865 249 858 l 442 1026 q 472 1047 460 1042 q 497 1053 483 1053 l 636 1053 q 660 1047 650 1053 q 681 1026 671 1042 l 796 865 q 800 847 803 858 q 775 826 796 826 l 704 826 q 678 828 690 826 q 656 836 667 829 l 544 899 l 407 836 q 381 828 393 829 q 356 826 368 826 l 264 826 z "},"ë":{"ha":843,"x_min":28,"x_max":833,"o":"m 356 -14 q 163 26 240 -14 q 57 146 86 65 q 53 350 28 226 q 56 365 54 356 q 58 378 57 374 q 150 573 86 493 q 307 694 214 653 q 514 736 400 736 q 715 685 642 736 q 810 551 788 635 q 813 363 833 467 l 806 324 q 790 299 803 310 q 761 288 776 288 l 332 288 q 331 285 332 288 q 331 279 331 282 q 327 220 324 246 q 347 180 331 194 q 390 165 363 165 q 422 171 408 165 q 447 185 436 176 q 468 203 458 194 q 492 219 483 215 q 517 222 501 222 l 735 222 q 756 214 749 222 q 758 193 763 206 q 722 133 751 168 q 641 64 693 97 q 517 8 589 31 q 356 -14 444 -14 m 365 443 l 539 443 l 539 446 q 542 510 547 483 q 521 549 538 536 q 476 563 504 563 q 426 549 449 563 q 390 510 404 536 q 365 446 375 483 l 365 443 m 604 835 q 583 844 590 835 q 579 867 576 853 l 611 1017 q 624 1040 614 1031 q 649 1049 635 1049 l 799 1049 q 819 1040 813 1049 q 824 1017 826 1031 l 793 867 q 779 844 790 853 q 754 835 768 835 l 604 835 m 294 835 q 274 844 281 835 q 269 867 267 853 l 301 1017 q 315 1040 304 1031 q 339 1049 325 1049 l 489 1049 q 510 1040 503 1049 q 515 1017 518 1031 l 483 867 q 469 844 481 853 q 444 835 458 835 l 294 835 z "},"ė":{"ha":843,"x_min":28,"x_max":833,"o":"m 356 -14 q 163 26 240 -14 q 57 146 86 65 q 53 350 28 226 q 56 365 54 356 q 58 378 57 374 q 150 573 86 493 q 307 694 214 653 q 514 736 400 736 q 715 685 642 736 q 810 551 788 635 q 813 363 833 467 l 806 324 q 790 299 803 310 q 761 288 776 288 l 332 288 q 331 285 332 288 q 331 279 331 282 q 327 220 324 246 q 347 180 331 194 q 390 165 363 165 q 422 171 408 165 q 447 185 436 176 q 468 203 458 194 q 492 219 483 215 q 517 222 501 222 l 735 222 q 756 214 749 222 q 758 193 763 206 q 722 133 751 168 q 641 64 693 97 q 517 8 589 31 q 356 -14 444 -14 m 365 443 l 539 443 l 539 446 q 542 510 547 483 q 521 549 538 536 q 476 563 504 563 q 426 549 449 563 q 390 510 404 536 q 365 446 375 483 l 365 443 m 442 832 q 421 841 428 832 q 417 864 414 850 l 451 1024 q 465 1047 454 1038 q 489 1056 475 1056 l 650 1056 q 671 1047 664 1056 q 675 1024 678 1038 l 640 864 q 626 841 638 850 q 601 832 615 832 l 442 832 z "},"è":{"ha":843,"x_min":28,"x_max":833,"o":"m 356 -14 q 163 26 240 -14 q 57 146 86 65 q 53 350 28 226 q 56 365 54 356 q 58 378 57 374 q 150 573 86 493 q 307 694 214 653 q 514 736 400 736 q 715 685 642 736 q 810 551 788 635 q 813 363 833 467 l 806 324 q 790 299 803 310 q 761 288 776 288 l 332 288 q 331 285 332 288 q 331 279 331 282 q 327 220 324 246 q 347 180 331 194 q 390 165 363 165 q 422 171 408 165 q 447 185 436 176 q 468 203 458 194 q 492 219 483 215 q 517 222 501 222 l 735 222 q 756 214 749 222 q 758 193 763 206 q 722 133 751 168 q 641 64 693 97 q 517 8 589 31 q 356 -14 444 -14 m 365 443 l 539 443 l 539 446 q 542 510 547 483 q 521 549 538 536 q 476 563 504 563 q 426 549 449 563 q 390 510 404 536 q 365 446 375 483 l 365 443 m 463 826 q 432 833 442 826 q 413 849 422 839 l 253 1007 q 249 1025 247 1015 q 281 1053 253 1053 l 513 1053 q 538 1048 529 1053 q 558 1026 547 1043 l 654 867 q 658 849 661 860 q 632 826 653 826 l 463 826 z "},"ē":{"ha":843,"x_min":28,"x_max":833,"o":"m 356 -14 q 163 26 240 -14 q 57 146 86 65 q 53 350 28 226 q 56 365 54 356 q 58 378 57 374 q 150 573 86 493 q 307 694 214 653 q 514 736 400 736 q 715 685 642 736 q 810 551 788 635 q 813 363 833 467 l 806 324 q 790 299 803 310 q 761 288 776 288 l 332 288 q 331 285 332 288 q 331 279 331 282 q 327 220 324 246 q 347 180 331 194 q 390 165 363 165 q 422 171 408 165 q 447 185 436 176 q 468 203 458 194 q 492 219 483 215 q 517 222 501 222 l 735 222 q 756 214 749 222 q 758 193 763 206 q 722 133 751 168 q 641 64 693 97 q 517 8 589 31 q 356 -14 444 -14 m 365 443 l 539 443 l 539 446 q 542 510 547 483 q 521 549 538 536 q 476 563 504 563 q 426 549 449 563 q 390 510 404 536 q 365 446 375 483 l 365 443 m 311 833 q 290 842 297 833 q 286 865 283 851 l 311 986 q 325 1009 314 1000 q 350 1018 336 1018 l 771 1018 q 792 1009 785 1018 q 796 986 799 1000 l 771 865 q 757 842 768 851 q 732 833 746 833 l 311 833 z "},"ę":{"ha":846,"x_min":25,"x_max":836,"o":"m 367 -306 q 245 -275 289 -306 q 188 -192 201 -244 q 188 -76 175 -140 q 200 -35 193 -54 q 217 3 207 -15 q 69 120 113 33 q 53 350 25 207 q 56 363 54 356 q 58 376 57 371 q 150 572 86 492 q 308 694 214 653 q 514 736 401 736 q 716 685 643 736 q 813 551 789 635 q 813 363 836 467 l 806 324 q 789 299 801 310 q 761 288 776 288 l 332 288 l 331 279 q 327 220 324 246 q 347 180 331 194 q 392 165 363 165 q 422 171 408 165 q 447 185 436 176 q 468 203 458 194 q 492 219 483 215 q 518 222 501 222 l 735 222 q 756 214 749 222 q 758 193 763 206 q 712 122 751 164 q 605 44 672 81 q 443 -7 538 7 q 375 -32 399 -14 q 346 -76 351 -50 q 351 -128 339 -104 q 406 -153 364 -153 l 421 -153 q 444 -163 435 -153 q 450 -189 453 -174 l 432 -269 q 416 -295 429 -285 q 388 -306 403 -306 l 367 -306 m 365 443 l 539 443 l 539 446 q 542 510 547 483 q 521 549 538 536 q 476 563 504 563 q 426 549 449 563 q 389 510 404 536 q 365 446 374 483 l 365 443 z "},"f":{"ha":647,"x_min":47,"x_max":772,"o":"m 108 0 q 85 10 93 0 q 79 36 76 21 l 181 510 l 79 510 q 56 520 64 510 q 51 546 47 531 l 79 686 q 95 712 82 701 q 124 722 108 722 l 225 722 l 233 757 q 306 920 256 861 q 430 1003 356 979 q 599 1028 504 1028 l 742 1028 q 765 1017 757 1028 q 769 992 772 1007 l 739 851 q 724 826 736 836 q 696 815 711 815 l 593 815 q 534 798 556 815 q 506 750 513 781 l 500 722 l 663 722 q 685 712 678 722 q 690 686 693 701 l 661 546 q 645 520 658 531 q 618 510 632 510 l 454 510 l 353 36 q 338 10 350 21 q 310 0 325 0 l 108 0 z "},"g":{"ha":901,"x_min":-42,"x_max":889,"o":"m 313 -306 q 135 -277 204 -306 q 26 -208 65 -249 q -28 -127 -14 -167 q -39 -65 -42 -87 q -24 -40 -36 -50 q 4 -29 -11 -29 l 229 -29 q 250 -36 243 -29 q 260 -57 257 -43 q 271 -82 264 -69 q 292 -101 278 -94 q 333 -108 306 -108 q 385 -97 363 -108 q 426 -62 408 -86 q 450 0 443 -39 l 469 93 q 385 42 431 61 q 274 24 340 24 q 155 42 206 24 q 72 100 104 61 q 30 199 40 139 q 33 342 19 258 q 40 378 38 363 q 49 414 43 393 q 101 552 69 492 q 176 653 133 613 q 276 715 219 693 q 400 736 332 736 q 524 709 471 736 q 601 639 576 682 l 613 686 q 628 712 615 701 q 657 722 642 722 l 858 722 q 881 712 874 722 q 886 686 889 701 l 747 22 q 693 -123 729 -61 q 601 -225 657 -185 q 474 -285 546 -265 q 313 -306 401 -306 m 399 235 q 457 249 432 235 q 497 285 482 263 q 521 338 513 308 q 531 378 525 350 q 538 417 536 406 q 537 469 542 446 q 514 506 532 492 q 463 519 496 519 q 403 505 428 519 q 364 465 379 490 q 340 406 349 439 q 333 378 336 394 q 328 349 329 361 q 326 290 324 315 q 346 249 329 264 q 399 235 363 235 z "},"ğ":{"ha":901,"x_min":-42,"x_max":889,"o":"m 313 -306 q 135 -277 204 -306 q 26 -208 65 -249 q -28 -127 -14 -167 q -39 -65 -42 -87 q -24 -40 -36 -50 q 4 -29 -11 -29 l 229 -29 q 250 -36 243 -29 q 260 -57 257 -43 q 271 -82 264 -69 q 292 -101 278 -94 q 333 -108 306 -108 q 385 -97 363 -108 q 426 -62 408 -86 q 450 0 443 -39 l 469 93 q 385 42 431 61 q 274 24 340 24 q 155 42 206 24 q 72 100 104 61 q 30 199 40 139 q 33 342 19 258 q 40 378 38 363 q 49 414 43 393 q 101 552 69 492 q 176 653 133 613 q 276 715 219 693 q 400 736 332 736 q 524 709 471 736 q 601 639 576 682 l 613 686 q 628 712 615 701 q 657 722 642 722 l 858 722 q 881 712 874 722 q 886 686 889 701 l 747 22 q 693 -123 729 -61 q 601 -225 657 -185 q 474 -285 546 -265 q 313 -306 401 -306 m 399 235 q 457 249 432 235 q 497 285 482 263 q 521 338 513 308 q 531 378 525 350 q 538 417 536 406 q 537 469 542 446 q 514 506 532 492 q 463 519 496 519 q 403 505 428 519 q 364 465 379 490 q 340 406 349 439 q 333 378 336 394 q 328 349 329 361 q 326 290 324 315 q 346 249 329 264 q 399 235 363 235 m 529 819 q 415 847 463 819 q 347 922 367 875 q 338 1026 326 968 q 349 1045 340 1038 q 369 1053 357 1053 l 479 1053 q 497 1045 492 1053 q 500 1026 503 1038 q 501 970 494 994 q 543 946 508 946 q 596 970 578 946 q 621 1026 614 994 q 632 1045 624 1038 q 653 1053 640 1053 l 763 1053 q 781 1045 775 1053 q 783 1026 786 1038 q 742 922 771 968 q 660 847 713 875 q 529 819 608 819 z "},"ĝ":{"ha":901,"x_min":-42,"x_max":889,"o":"m 313 -306 q 135 -277 204 -306 q 26 -208 65 -249 q -28 -127 -14 -167 q -39 -65 -42 -87 q -24 -40 -36 -50 q 4 -29 -11 -29 l 229 -29 q 250 -36 243 -29 q 260 -57 257 -43 q 271 -82 264 -69 q 292 -101 278 -94 q 333 -108 306 -108 q 385 -97 363 -108 q 426 -62 408 -86 q 450 0 443 -39 l 469 93 q 385 42 431 61 q 274 24 340 24 q 155 42 206 24 q 72 100 104 61 q 30 199 40 139 q 33 342 19 258 q 40 378 38 363 q 49 414 43 393 q 101 552 69 492 q 176 653 133 613 q 276 715 219 693 q 400 736 332 736 q 524 709 471 736 q 601 639 576 682 l 613 686 q 628 712 615 701 q 657 722 642 722 l 858 722 q 881 712 874 722 q 886 686 889 701 l 747 22 q 693 -123 729 -61 q 601 -225 657 -185 q 474 -285 546 -265 q 313 -306 401 -306 m 399 235 q 457 249 432 235 q 497 285 482 263 q 521 338 513 308 q 531 378 525 350 q 538 417 536 406 q 537 469 542 446 q 514 506 532 492 q 463 519 496 519 q 403 505 428 519 q 364 465 379 490 q 340 406 349 439 q 333 378 336 394 q 328 349 329 361 q 326 290 324 315 q 346 249 329 264 q 399 235 363 235 m 258 826 q 240 847 238 826 q 251 865 243 858 l 436 1026 q 466 1047 454 1042 q 492 1053 478 1053 l 631 1053 q 655 1047 644 1053 q 675 1026 665 1042 l 790 865 q 794 847 797 858 q 769 826 790 826 l 699 826 q 673 828 685 826 q 650 836 661 829 l 539 899 l 401 836 q 375 828 388 829 q 350 826 363 826 l 258 826 z "},"ģ":{"ha":901,"x_min":-42,"x_max":889,"o":"m 313 -306 q 135 -277 204 -306 q 26 -208 65 -249 q -28 -127 -14 -167 q -39 -65 -42 -87 q -24 -40 -36 -50 q 4 -29 -11 -29 l 229 -29 q 250 -36 243 -29 q 260 -57 257 -43 q 271 -82 264 -69 q 292 -101 278 -94 q 333 -108 306 -108 q 385 -97 363 -108 q 426 -62 408 -86 q 450 0 443 -39 l 469 93 q 385 42 431 61 q 274 24 340 24 q 155 42 206 24 q 72 100 104 61 q 30 199 40 139 q 33 342 19 258 q 40 378 38 363 q 49 414 43 393 q 101 552 69 492 q 176 653 133 613 q 276 715 219 693 q 400 736 332 736 q 524 709 471 736 q 601 639 576 682 l 613 686 q 628 712 615 701 q 657 722 642 722 l 858 722 q 881 712 874 722 q 886 686 889 701 l 747 22 q 693 -123 729 -61 q 601 -225 657 -185 q 474 -285 546 -265 q 313 -306 401 -306 m 399 235 q 457 249 432 235 q 497 285 482 263 q 521 338 513 308 q 531 378 525 350 q 538 417 536 406 q 537 469 542 446 q 514 506 532 492 q 463 519 496 519 q 403 505 428 519 q 364 465 379 490 q 340 406 349 439 q 333 378 336 394 q 328 349 329 361 q 326 290 324 315 q 346 249 329 264 q 399 235 363 235 m 419 826 q 402 835 408 826 q 397 856 396 843 q 400 861 399 858 q 403 868 401 864 l 514 1053 q 538 1081 522 1067 q 579 1094 554 1094 l 701 1094 q 720 1085 714 1094 q 724 1064 726 1076 l 657 878 q 633 843 650 860 q 590 826 615 826 l 419 826 z "},"ġ":{"ha":901,"x_min":-42,"x_max":889,"o":"m 313 -306 q 135 -277 204 -306 q 26 -208 65 -249 q -28 -127 -14 -167 q -39 -65 -42 -87 q -24 -40 -36 -50 q 4 -29 -11 -29 l 229 -29 q 250 -36 243 -29 q 260 -57 257 -43 q 271 -82 264 -69 q 292 -101 278 -94 q 333 -108 306 -108 q 385 -97 363 -108 q 426 -62 408 -86 q 450 0 443 -39 l 469 93 q 385 42 431 61 q 274 24 340 24 q 155 42 206 24 q 72 100 104 61 q 30 199 40 139 q 33 342 19 258 q 40 378 38 363 q 49 414 43 393 q 101 552 69 492 q 176 653 133 613 q 276 715 219 693 q 400 736 332 736 q 524 709 471 736 q 601 639 576 682 l 613 686 q 628 712 615 701 q 657 722 642 722 l 858 722 q 881 712 874 722 q 886 686 889 701 l 747 22 q 693 -123 729 -61 q 601 -225 657 -185 q 474 -285 546 -265 q 313 -306 401 -306 m 399 235 q 457 249 432 235 q 497 285 482 263 q 521 338 513 308 q 531 378 525 350 q 538 417 536 406 q 537 469 542 446 q 514 506 532 492 q 463 519 496 519 q 403 505 428 519 q 364 465 379 490 q 340 406 349 439 q 333 378 336 394 q 328 349 329 361 q 326 290 324 315 q 346 249 329 264 q 399 235 363 235 m 438 832 q 417 841 424 832 q 413 864 410 850 l 447 1024 q 460 1047 450 1038 q 485 1056 471 1056 l 646 1056 q 667 1047 660 1056 q 671 1024 674 1038 l 636 864 q 622 841 633 850 q 597 832 611 832 l 438 832 z "},"h":{"ha":926,"x_min":-10,"x_max":888,"o":"m 22 0 q -1 10 7 0 q -7 36 -10 21 l 188 950 q 203 976 190 965 q 231 986 215 986 l 454 986 q 478 976 469 986 q 485 950 488 965 l 419 646 q 517 712 464 688 q 639 736 571 736 q 780 701 721 736 q 863 597 839 667 q 865 422 888 528 l 782 36 q 767 10 779 21 q 739 0 754 0 l 514 0 q 490 10 499 0 q 485 36 482 21 l 564 413 q 558 492 575 464 q 494 519 540 519 q 438 507 464 519 q 394 471 413 494 q 369 413 376 447 l 289 36 q 274 10 286 21 q 246 0 261 0 l 22 0 z "},"ħ":{"ha":926,"x_min":-10,"x_max":888,"o":"m 101 756 q 78 766 86 756 q 74 792 69 776 l 86 853 q 101 878 89 868 q 129 889 114 889 l 513 889 q 537 878 528 889 q 542 853 546 868 l 529 792 q 513 766 525 776 q 485 756 500 756 l 101 756 m 22 0 q -1 10 7 0 q -7 36 -10 21 l 188 950 q 203 976 190 965 q 231 986 215 986 l 454 986 q 478 976 469 986 q 485 950 488 965 l 419 646 q 517 712 464 688 q 639 736 571 736 q 780 701 721 736 q 863 597 839 667 q 865 422 888 528 l 782 36 q 767 10 779 21 q 739 0 754 0 l 514 0 q 490 10 499 0 q 485 36 482 21 l 564 413 q 558 492 575 464 q 494 519 540 519 q 438 507 464 519 q 394 471 413 494 q 369 413 376 447 l 289 36 q 274 10 286 21 q 246 0 261 0 l 22 0 z "},"ĥ":{"ha":926,"x_min":-10,"x_max":888,"o":"m 22 0 q -1 10 7 0 q -7 36 -10 21 l 188 950 q 203 976 190 965 q 231 986 215 986 l 454 986 q 478 976 469 986 q 485 950 488 965 l 419 646 q 517 712 464 688 q 639 736 571 736 q 780 701 721 736 q 863 597 839 667 q 865 422 888 528 l 782 36 q 767 10 779 21 q 739 0 754 0 l 514 0 q 490 10 499 0 q 485 36 482 21 l 564 413 q 558 492 575 464 q 494 519 540 519 q 438 507 464 519 q 394 471 413 494 q 369 413 376 447 l 289 36 q 274 10 286 21 q 246 0 261 0 l 22 0 m 299 1044 q 281 1065 278 1044 q 292 1083 283 1076 l 476 1244 q 506 1265 494 1260 q 532 1271 518 1271 l 671 1271 q 695 1265 685 1271 q 715 1244 706 1260 l 831 1083 q 835 1065 838 1076 q 810 1044 831 1044 l 739 1044 q 713 1046 725 1044 q 690 1054 701 1047 l 579 1117 l 442 1054 q 415 1046 428 1047 q 390 1044 403 1044 l 299 1044 z "},"i":{"ha":422,"x_min":-10,"x_max":475,"o":"m 22 0 q -1 10 7 0 q -7 36 -10 21 l 131 686 q 147 712 133 701 q 175 722 160 722 l 381 722 q 404 712 396 722 q 410 686 413 701 l 271 36 q 256 10 268 21 q 228 0 243 0 l 22 0 m 197 813 q 174 823 182 813 q 168 849 165 833 l 199 994 q 215 1021 201 1010 q 243 1032 228 1032 l 444 1032 q 467 1021 458 1032 q 472 994 475 1010 l 440 849 q 426 823 439 833 q 397 813 413 813 l 197 813 z "},"ı":{"ha":422,"x_min":-10,"x_max":413,"o":"m 22 0 q -1 10 7 0 q -7 36 -10 21 l 131 686 q 147 712 133 701 q 175 722 160 722 l 381 722 q 404 712 396 722 q 410 686 413 701 l 271 36 q 256 10 268 21 q 228 0 243 0 l 22 0 z "},"í":{"ha":422,"x_min":-10,"x_max":663,"o":"m 22 0 q -1 10 7 0 q -7 36 -10 21 l 131 686 q 147 712 133 701 q 175 722 160 722 l 381 722 q 404 712 396 722 q 410 686 413 701 l 271 36 q 256 10 268 21 q 228 0 243 0 l 22 0 m 203 826 q 185 849 181 826 q 196 867 188 860 l 361 1026 q 390 1048 379 1043 q 418 1053 401 1053 l 639 1053 q 660 1025 663 1053 q 649 1008 658 1015 l 421 849 q 394 833 407 839 q 360 826 381 826 l 203 826 z "},"ĭ":{"ha":422,"x_min":-10,"x_max":569,"o":"m 22 0 q -1 10 7 0 q -7 36 -10 21 l 131 686 q 147 712 133 701 q 175 722 160 722 l 381 722 q 404 712 396 722 q 410 686 413 701 l 271 36 q 256 10 268 21 q 228 0 243 0 l 22 0 m 313 819 q 198 847 246 819 q 130 922 150 875 q 121 1026 110 968 q 132 1045 124 1038 q 153 1053 140 1053 l 263 1053 q 281 1045 275 1053 q 283 1026 286 1038 q 285 970 278 994 q 326 946 292 946 q 379 970 361 946 q 404 1026 397 994 q 415 1045 407 1038 q 436 1053 424 1053 l 546 1053 q 564 1045 558 1053 q 567 1026 569 1038 q 525 922 554 968 q 444 847 496 875 q 313 819 392 819 z "},"î":{"ha":422,"x_min":-10,"x_max":581,"o":"m 22 0 q -1 10 7 0 q -7 36 -10 21 l 131 686 q 147 712 133 701 q 175 722 160 722 l 381 722 q 404 712 396 722 q 410 686 413 701 l 271 36 q 256 10 268 21 q 228 0 243 0 l 22 0 m 42 826 q 24 847 21 826 q 35 865 26 858 l 219 1026 q 249 1047 238 1042 q 275 1053 261 1053 l 414 1053 q 438 1047 428 1053 q 458 1026 449 1042 l 574 865 q 578 847 581 858 q 553 826 574 826 l 482 826 q 456 828 468 826 q 433 836 444 829 l 322 899 l 185 836 q 158 828 171 829 q 133 826 146 826 l 42 826 z "},"ï":{"ha":422,"x_min":-10,"x_max":606,"o":"m 22 0 q -1 10 7 0 q -7 36 -10 21 l 131 686 q 147 712 133 701 q 175 722 160 722 l 381 722 q 404 712 396 722 q 410 686 413 701 l 271 36 q 256 10 268 21 q 228 0 243 0 l 22 0 m 383 835 q 363 844 369 835 q 358 867 356 853 l 390 1017 q 403 1040 393 1031 q 428 1049 414 1049 l 578 1049 q 599 1040 592 1049 q 603 1017 606 1031 l 572 867 q 558 844 569 853 q 533 835 547 835 l 383 835 m 74 835 q 53 844 60 835 q 49 867 46 853 l 81 1017 q 94 1040 83 1031 q 118 1049 104 1049 l 268 1049 q 290 1040 282 1049 q 294 1017 297 1031 l 263 867 q 249 844 260 853 q 224 835 238 835 l 74 835 z "},"ì":{"ha":422,"x_min":-10,"x_max":439,"o":"m 22 0 q -1 10 7 0 q -7 36 -10 21 l 131 686 q 147 712 133 701 q 175 722 160 722 l 381 722 q 404 712 396 722 q 410 686 413 701 l 271 36 q 256 10 268 21 q 228 0 243 0 l 22 0 m 242 826 q 211 833 221 826 q 192 849 201 839 l 32 1007 q 28 1025 26 1015 q 60 1053 32 1053 l 292 1053 q 317 1048 308 1053 q 338 1026 326 1043 l 433 867 q 438 849 440 860 q 411 826 432 826 l 242 826 z "},"ĳ":{"ha":874,"x_min":-10,"x_max":924,"o":"m 22 0 q -1 10 7 0 q -7 36 -10 21 l 131 686 q 147 712 133 701 q 175 722 160 722 l 381 722 q 404 712 396 722 q 410 686 413 701 l 271 36 q 256 10 268 21 q 228 0 243 0 l 22 0 m 197 813 q 174 823 182 813 q 168 849 165 833 l 199 994 q 215 1021 201 1010 q 243 1032 228 1032 l 444 1032 q 467 1021 458 1032 q 472 994 475 1010 l 440 849 q 426 823 439 833 q 397 813 413 813 l 197 813 m 231 -264 q 207 -253 215 -264 q 201 -228 199 -243 l 232 -87 q 247 -62 235 -72 q 275 -51 260 -51 l 342 -51 q 401 -28 381 -51 q 431 33 422 -4 l 568 686 q 584 712 571 701 q 613 722 597 722 l 829 722 q 852 712 844 722 q 857 686 860 701 l 718 26 q 648 -134 697 -69 q 522 -231 599 -199 q 342 -264 446 -264 l 231 -264 m 635 813 q 612 823 621 813 q 606 849 603 833 l 638 994 q 653 1021 640 1010 q 682 1032 667 1032 l 892 1032 q 915 1021 907 1032 q 921 994 924 1010 l 889 849 q 874 823 886 833 q 846 813 861 813 l 635 813 z "},"ī":{"ha":422,"x_min":-10,"x_max":576,"o":"m 22 0 q -1 10 7 0 q -7 36 -10 21 l 131 686 q 147 712 133 701 q 175 722 160 722 l 381 722 q 404 712 396 722 q 410 686 413 701 l 271 36 q 256 10 268 21 q 228 0 243 0 l 22 0 m 89 833 q 68 842 75 833 q 64 865 61 851 l 89 986 q 103 1009 92 1000 q 128 1018 114 1018 l 549 1018 q 569 1009 563 1018 q 574 986 576 1000 l 549 865 q 535 842 546 851 q 510 833 524 833 l 89 833 z "},"į":{"ha":428,"x_min":-15,"x_max":500,"o":"m 175 -274 q 25 -215 65 -274 q 3 -67 -15 -156 q 21 -19 8 -39 q 51 14 33 1 l 43 15 q 24 25 31 15 q 19 47 17 35 l 156 686 q 172 712 158 701 q 200 722 185 722 l 406 722 q 429 712 421 722 q 435 686 438 701 l 296 36 q 280 10 293 21 q 251 0 267 0 l 239 0 q 177 -19 199 0 q 150 -67 156 -39 q 156 -114 143 -94 q 211 -133 169 -133 l 226 -133 q 250 -144 242 -133 q 254 -169 258 -154 l 240 -237 q 224 -263 238 -253 q 196 -274 211 -274 l 175 -274 m 221 813 q 198 823 206 813 q 193 849 190 833 l 224 994 q 240 1021 226 1010 q 268 1032 253 1032 l 469 1032 q 492 1021 483 1032 q 497 994 500 1010 l 465 849 q 449 823 463 833 q 421 813 436 813 l 221 813 z "},"ĩ":{"ha":422,"x_min":-10,"x_max":614,"o":"m 22 0 q -1 10 7 0 q -7 36 -10 21 l 131 686 q 147 712 133 701 q 175 722 160 722 l 381 722 q 404 712 396 722 q 410 686 413 701 l 271 36 q 256 10 268 21 q 228 0 243 0 l 22 0 m 411 819 q 346 832 371 819 q 300 857 321 844 q 254 869 279 869 q 222 859 233 869 q 201 838 211 849 q 176 826 192 826 l 76 826 q 60 834 67 826 q 56 851 54 842 q 74 907 61 874 q 110 972 88 940 q 170 1026 133 1004 q 257 1047 207 1047 q 322 1035 297 1047 q 369 1010 347 1022 q 415 997 390 997 q 446 1008 435 997 q 467 1030 457 1019 q 492 1040 476 1040 l 592 1040 q 609 1033 604 1040 q 613 1015 614 1025 q 594 959 607 992 q 556 894 581 926 q 497 841 532 863 q 411 819 461 819 z "},"j":{"ha":450,"x_min":-224,"x_max":501,"o":"m -192 -264 q -215 -253 -207 -264 q -221 -228 -224 -243 l -190 -87 q -175 -62 -187 -72 q -147 -51 -162 -51 l -81 -51 q -21 -28 -42 -51 q 8 33 0 -4 l 146 686 q 162 712 149 701 q 190 722 175 722 l 407 722 q 430 712 422 722 q 435 686 438 701 l 296 26 q 226 -134 275 -69 q 100 -231 176 -199 q -81 -264 24 -264 l -192 -264 m 213 813 q 190 823 199 813 q 183 849 181 833 l 215 994 q 231 1021 218 1010 q 260 1032 244 1032 l 469 1032 q 493 1021 485 1032 q 499 994 501 1010 l 467 849 q 451 823 464 833 q 424 813 439 813 l 213 813 z "},"ȷ":{"ha":613,"x_min":-111,"x_max":601,"o":"m -82 -264 q -103 -253 -96 -264 q -108 -228 -111 -243 l -72 -49 q -56 -22 -69 -33 q -28 -11 -43 -11 l 88 -11 q 133 -1 115 -11 q 161 29 150 10 q 176 74 172 49 l 268 500 l 86 500 q 64 511 72 500 q 58 538 56 522 l 90 686 q 106 712 93 701 q 133 722 119 722 l 569 722 q 593 712 585 722 q 599 686 601 701 l 468 74 q 389 -107 446 -32 q 250 -223 332 -182 q 69 -264 168 -264 l -82 -264 z "},"ĵ":{"ha":613,"x_min":-111,"x_max":653,"o":"m -82 -264 q -103 -253 -96 -264 q -108 -228 -111 -243 l -72 -49 q -56 -22 -69 -33 q -28 -11 -43 -11 l 88 -11 q 133 -1 115 -11 q 161 29 150 10 q 176 74 172 49 l 268 500 l 86 500 q 64 511 72 500 q 58 538 56 522 l 90 686 q 106 712 93 701 q 133 722 119 722 l 569 722 q 593 712 585 722 q 599 686 601 701 l 468 74 q 389 -107 446 -32 q 250 -223 332 -182 q 69 -264 168 -264 l -82 -264 m 115 826 q 97 847 94 826 q 108 865 100 858 l 293 1026 q 323 1047 311 1042 q 349 1053 335 1053 l 488 1053 q 512 1047 501 1053 q 532 1026 522 1042 l 647 865 q 651 847 654 858 q 626 826 647 826 l 556 826 q 530 828 542 826 q 507 836 518 829 l 396 899 l 258 836 q 232 828 244 829 q 207 826 219 826 l 115 826 z "},"k":{"ha":860,"x_min":-10,"x_max":888,"o":"m 22 0 q -1 10 7 0 q -7 36 -10 21 l 188 950 q 203 976 190 965 q 231 986 215 986 l 432 986 q 456 976 447 986 q 461 950 464 965 l 365 494 l 563 699 q 582 714 571 706 q 613 722 593 722 l 858 722 q 885 703 883 722 q 871 668 888 685 l 593 378 l 764 50 q 763 17 772 33 q 729 0 753 0 l 500 0 q 474 7 483 0 q 460 24 464 14 l 321 293 l 267 36 q 251 10 264 21 q 224 0 239 0 l 22 0 z "},"ķ":{"ha":860,"x_min":-10,"x_max":888,"o":"m 22 0 q -1 10 7 0 q -7 36 -10 21 l 188 950 q 203 976 190 965 q 231 986 215 986 l 432 986 q 456 976 447 986 q 461 950 464 965 l 365 494 l 563 699 q 582 714 571 706 q 613 722 593 722 l 858 722 q 885 703 883 722 q 871 668 888 685 l 593 378 l 764 50 q 763 17 772 33 q 729 0 753 0 l 500 0 q 474 7 483 0 q 460 24 464 14 l 321 293 l 267 36 q 251 10 264 21 q 224 0 239 0 l 22 0 m 146 -336 q 127 -328 133 -336 q 124 -307 121 -319 l 190 -121 q 215 -85 197 -101 q 257 -69 232 -69 l 428 -69 q 445 -78 439 -69 q 449 -99 451 -86 q 447 -103 447 -100 q 444 -111 447 -107 l 333 -296 q 309 -323 324 -310 q 268 -336 294 -336 l 146 -336 z "},"ĸ":{"ha":853,"x_min":10,"x_max":896,"o":"m 40 0 q 17 10 25 0 q 13 36 10 21 l 150 686 q 166 712 153 701 q 194 722 179 722 l 396 722 q 419 712 411 722 q 424 686 426 701 l 375 451 l 597 699 q 617 714 606 706 q 647 722 628 722 l 868 722 q 888 713 881 722 q 893 690 896 704 q 888 678 892 685 q 878 668 883 671 l 604 368 l 782 53 q 785 44 783 49 q 785 32 788 39 q 772 9 783 18 q 746 0 760 0 l 504 0 q 476 10 483 0 q 464 24 468 19 l 335 267 l 286 36 q 270 10 283 21 q 242 0 257 0 l 40 0 z "},"l":{"ha":424,"x_min":-10,"x_max":469,"o":"m 22 0 q -1 10 7 0 q -7 36 -10 21 l 188 950 q 203 976 190 965 q 231 986 215 986 l 436 986 q 460 976 451 986 q 467 950 469 965 l 271 36 q 256 10 268 21 q 228 0 243 0 l 22 0 z "},"ĺ":{"ha":424,"x_min":-10,"x_max":722,"o":"m 22 0 q -1 10 7 0 q -7 36 -10 21 l 188 950 q 203 976 190 965 q 231 986 215 986 l 436 986 q 460 976 451 986 q 467 950 469 965 l 271 36 q 256 10 268 21 q 228 0 243 0 l 22 0 m 263 1042 q 244 1064 240 1042 q 256 1082 247 1075 l 421 1242 q 450 1263 439 1258 q 478 1268 461 1268 l 699 1268 q 719 1240 722 1268 q 708 1224 718 1231 l 481 1064 q 453 1048 467 1054 q 419 1042 440 1042 l 263 1042 z "},"ľ":{"ha":618,"x_min":-10,"x_max":822,"o":"m 22 0 q -1 10 7 0 q -7 36 -10 21 l 188 950 q 203 976 190 965 q 231 986 215 986 l 436 986 q 460 976 451 986 q 467 950 469 965 l 271 36 q 256 10 268 21 q 228 0 243 0 l 22 0 m 515 719 q 498 728 504 719 q 494 749 492 736 l 561 935 q 585 970 568 954 q 628 986 603 986 l 797 986 q 816 978 810 986 q 819 957 822 969 q 817 952 818 956 q 814 944 817 949 l 703 760 q 679 733 694 746 q 639 719 664 719 l 515 719 z "},"ļ":{"ha":424,"x_min":-103,"x_max":469,"o":"m 22 0 q -1 10 7 0 q -7 36 -10 21 l 188 950 q 203 976 190 965 q 231 986 215 986 l 436 986 q 460 976 451 986 q 467 950 469 965 l 271 36 q 256 10 268 21 q 228 0 243 0 l 22 0 m -78 -336 q -97 -328 -90 -336 q -100 -307 -103 -319 l -33 -121 q -9 -85 -26 -101 q 33 -69 8 -69 l 204 -69 q 222 -78 215 -69 q 225 -99 228 -86 q 224 -103 224 -100 q 221 -111 224 -107 l 110 -296 q 85 -323 100 -310 q 44 -336 71 -336 l -78 -336 z "},"ŀ":{"ha":661,"x_min":-10,"x_max":694,"o":"m 22 0 q -1 10 7 0 q -7 36 -10 21 l 188 950 q 203 976 190 965 q 231 986 215 986 l 436 986 q 460 976 451 986 q 467 950 469 965 l 271 36 q 256 10 268 21 q 228 0 243 0 l 22 0 m 458 389 q 438 397 444 389 q 433 421 431 406 l 467 581 q 481 603 471 594 q 506 613 492 613 l 665 613 q 687 603 679 613 q 692 581 694 594 l 657 421 q 643 397 654 406 q 618 389 632 389 l 458 389 z "},"ł":{"ha":515,"x_min":38,"x_max":556,"o":"m 88 0 q 65 10 72 0 q 60 36 57 21 l 124 342 l 79 325 q 63 321 67 321 q 44 329 50 321 q 39 350 38 338 l 67 476 q 79 504 71 494 q 106 519 88 514 l 167 540 l 253 950 q 269 976 257 965 q 297 986 282 986 l 504 986 q 527 976 518 986 q 532 950 536 965 l 468 649 l 514 665 q 531 669 525 669 q 549 662 543 669 q 553 642 556 654 l 525 514 q 513 488 521 497 q 486 471 504 478 l 426 449 l 338 36 q 322 10 335 21 q 294 0 308 0 l 88 0 z "},"m":{"ha":1288,"x_min":-10,"x_max":1250,"o":"m 22 0 q -1 10 7 0 q -7 36 -10 21 l 131 686 q 147 712 133 701 q 175 722 160 722 l 365 722 q 388 712 381 722 q 393 686 396 701 l 383 640 q 434 685 406 663 q 502 722 463 707 q 596 736 542 736 q 726 704 678 736 q 794 619 775 672 q 892 703 838 669 q 1021 736 947 736 q 1152 703 1099 736 q 1228 603 1206 671 q 1226 428 1250 536 l 1143 36 q 1128 10 1140 21 q 1100 0 1115 0 l 897 0 q 874 10 882 0 q 868 36 865 21 l 950 419 q 952 477 957 456 q 932 509 947 499 q 892 519 917 519 q 850 509 871 519 q 813 477 829 499 q 790 419 797 456 l 708 36 q 693 10 706 21 q 665 0 681 0 l 463 0 q 439 10 447 0 q 433 36 431 21 l 515 419 q 517 477 522 456 q 496 509 511 499 q 458 519 481 519 q 415 508 436 519 q 377 476 393 497 q 354 419 361 456 l 272 36 q 257 10 269 21 q 229 0 244 0 l 22 0 z "},"n":{"ha":914,"x_min":-10,"x_max":875,"o":"m 22 0 q -1 10 7 0 q -7 36 -10 21 l 131 686 q 147 712 133 701 q 175 722 160 722 l 376 722 q 399 712 392 722 q 404 686 407 701 l 394 636 q 499 707 439 678 q 633 736 558 736 q 773 701 717 736 q 852 597 829 667 q 853 422 875 528 l 769 36 q 754 10 767 21 q 726 0 742 0 l 507 0 q 483 10 492 0 q 478 36 475 21 l 557 413 q 552 492 568 465 q 488 519 536 519 q 408 492 440 519 q 364 413 375 464 l 283 36 q 268 10 281 21 q 240 0 256 0 l 22 0 z "},"ń":{"ha":914,"x_min":-10,"x_max":901,"o":"m 22 0 q -1 10 7 0 q -7 36 -10 21 l 131 686 q 147 712 133 701 q 175 722 160 722 l 376 722 q 399 712 392 722 q 404 686 407 701 l 394 636 q 499 707 439 678 q 633 736 558 736 q 773 701 717 736 q 852 597 829 667 q 853 422 875 528 l 769 36 q 754 10 767 21 q 726 0 742 0 l 507 0 q 483 10 492 0 q 478 36 475 21 l 557 413 q 552 492 568 465 q 488 519 536 519 q 408 492 440 519 q 364 413 375 464 l 283 36 q 268 10 281 21 q 240 0 256 0 l 22 0 m 442 826 q 424 849 419 826 q 435 867 426 860 l 600 1026 q 629 1048 618 1043 q 657 1053 640 1053 l 878 1053 q 899 1025 901 1053 q 888 1008 897 1015 l 660 849 q 633 833 646 839 q 599 826 619 826 l 442 826 z "},"ŉ":{"ha":914,"x_min":-61,"x_max":875,"o":"m -36 769 q -55 778 -49 769 q -58 800 -61 788 l 10 986 q 33 1020 17 1004 q 76 1036 50 1036 l 246 1036 q 264 1028 257 1036 q 268 1007 271 1019 q 266 1002 267 1006 q 263 994 265 999 l 151 811 q 128 783 143 797 q 88 769 113 769 l -36 769 m 22 0 q -1 10 7 0 q -7 36 -10 21 l 131 686 q 147 712 133 701 q 175 722 160 722 l 376 722 q 399 712 392 722 q 404 686 407 701 l 394 636 q 499 707 439 678 q 633 736 558 736 q 773 701 717 736 q 852 597 829 667 q 853 422 875 528 l 769 36 q 754 10 767 21 q 726 0 742 0 l 507 0 q 483 10 492 0 q 478 36 475 21 l 557 413 q 552 492 568 465 q 488 519 536 519 q 408 492 440 519 q 364 413 375 464 l 283 36 q 268 10 281 21 q 240 0 256 0 l 22 0 z "},"ň":{"ha":914,"x_min":-10,"x_max":875,"o":"m 22 0 q -1 10 7 0 q -7 36 -10 21 l 131 686 q 147 712 133 701 q 175 722 160 722 l 376 722 q 399 712 392 722 q 404 686 407 701 l 394 636 q 499 707 439 678 q 633 736 558 736 q 773 701 717 736 q 852 597 829 667 q 853 422 875 528 l 769 36 q 754 10 767 21 q 726 0 742 0 l 507 0 q 483 10 492 0 q 478 36 475 21 l 557 413 q 552 492 568 465 q 488 519 536 519 q 408 492 440 519 q 364 413 375 464 l 283 36 q 268 10 281 21 q 240 0 256 0 l 22 0 m 471 826 q 447 832 457 826 q 426 851 438 838 l 310 1013 q 307 1031 304 1019 q 315 1047 308 1042 q 332 1053 322 1053 l 403 1053 q 427 1051 415 1053 q 451 1043 439 1049 l 563 979 l 700 1043 q 726 1051 714 1049 q 751 1053 738 1053 l 843 1053 q 861 1032 864 1053 q 850 1013 858 1021 l 664 851 q 635 832 647 838 q 610 826 624 826 l 471 826 z "},"ņ":{"ha":914,"x_min":-10,"x_max":875,"o":"m 22 0 q -1 10 7 0 q -7 36 -10 21 l 131 686 q 147 712 133 701 q 175 722 160 722 l 376 722 q 399 712 392 722 q 404 686 407 701 l 394 636 q 499 707 439 678 q 633 736 558 736 q 773 701 717 736 q 852 597 829 667 q 853 422 875 528 l 769 36 q 754 10 767 21 q 726 0 742 0 l 507 0 q 483 10 492 0 q 478 36 475 21 l 557 413 q 552 492 568 465 q 488 519 536 519 q 408 492 440 519 q 364 413 375 464 l 283 36 q 268 10 281 21 q 240 0 256 0 l 22 0 m 172 -336 q 153 -328 160 -336 q 150 -307 147 -319 l 217 -121 q 241 -85 224 -101 q 283 -69 258 -69 l 454 -69 q 472 -78 465 -69 q 475 -99 478 -86 q 474 -103 474 -100 q 471 -111 474 -107 l 360 -296 q 335 -323 350 -310 q 294 -336 321 -336 l 172 -336 z "},"ñ":{"ha":914,"x_min":-10,"x_max":875,"o":"m 22 0 q -1 10 7 0 q -7 36 -10 21 l 131 686 q 147 712 133 701 q 175 722 160 722 l 376 722 q 399 712 392 722 q 404 686 407 701 l 394 636 q 499 707 439 678 q 633 736 558 736 q 773 701 717 736 q 852 597 829 667 q 853 422 875 528 l 769 36 q 754 10 767 21 q 726 0 742 0 l 507 0 q 483 10 492 0 q 478 36 475 21 l 557 413 q 552 492 568 465 q 488 519 536 519 q 408 492 440 519 q 364 413 375 464 l 283 36 q 268 10 281 21 q 240 0 256 0 l 22 0 m 649 819 q 583 832 608 819 q 538 857 558 844 q 492 869 517 869 q 460 859 471 869 q 439 838 449 849 q 414 826 429 826 l 314 826 q 298 834 304 826 q 293 851 292 842 q 312 907 299 874 q 348 972 325 940 q 408 1026 371 1004 q 494 1047 444 1047 q 560 1035 535 1047 q 606 1010 585 1022 q 653 997 628 997 q 683 1008 672 997 q 704 1030 694 1019 q 729 1040 714 1040 l 829 1040 q 847 1033 842 1040 q 850 1015 851 1025 q 831 959 844 992 q 794 894 818 926 q 734 841 769 863 q 649 819 699 819 z "},"ŋ":{"ha":914,"x_min":-10,"x_max":875,"o":"m 260 -312 q 236 -302 244 -312 q 231 -276 228 -292 l 267 -104 q 283 -78 269 -89 q 311 -68 296 -68 l 357 -68 q 416 -56 392 -68 q 456 -17 440 -43 q 481 51 472 8 l 557 413 q 552 492 568 465 q 488 519 536 519 q 408 492 440 519 q 364 413 375 464 l 283 36 q 268 10 281 21 q 240 0 256 0 l 22 0 q -1 10 7 0 q -7 36 -10 21 l 131 686 q 147 712 133 701 q 175 722 160 722 l 376 722 q 399 712 392 722 q 404 686 407 701 l 394 636 q 499 707 439 678 q 633 736 558 736 q 773 701 717 736 q 852 597 829 667 q 853 422 875 528 l 771 39 q 684 -158 746 -81 q 526 -274 622 -236 q 306 -312 431 -312 l 260 -312 z "},"o":{"ha":868,"x_min":11,"x_max":838,"o":"m 356 -14 q 161 22 240 -14 q 47 128 82 58 q 25 297 11 199 q 36 361 29 326 q 53 425 43 396 q 136 594 81 525 q 280 700 192 664 q 490 736 368 736 q 681 700 601 736 q 799 594 760 664 q 822 425 838 525 q 810 361 817 396 q 794 297 803 326 q 714 128 768 199 q 572 22 660 58 q 356 -14 485 -14 m 383 182 q 461 213 435 182 q 504 304 488 243 q 517 361 510 325 q 529 418 525 397 q 526 509 538 478 q 463 540 514 540 q 385 509 413 540 q 343 418 358 478 q 329 361 338 397 q 318 304 321 325 q 321 213 310 243 q 383 182 332 182 z "},"ó":{"ha":868,"x_min":11,"x_max":878,"o":"m 356 -14 q 161 22 240 -14 q 47 128 82 58 q 25 297 11 199 q 36 361 29 326 q 53 425 43 396 q 136 594 81 525 q 280 700 192 664 q 490 736 368 736 q 681 700 601 736 q 799 594 760 664 q 822 425 838 525 q 810 361 817 396 q 794 297 803 326 q 714 128 768 199 q 572 22 660 58 q 356 -14 485 -14 m 383 182 q 461 213 435 182 q 504 304 488 243 q 517 361 510 325 q 529 418 525 397 q 526 509 538 478 q 463 540 514 540 q 385 509 413 540 q 343 418 358 478 q 329 361 338 397 q 318 304 321 325 q 321 213 310 243 q 383 182 332 182 m 418 826 q 400 849 396 826 q 411 867 403 860 l 576 1026 q 606 1048 594 1043 q 633 1053 617 1053 l 854 1053 q 875 1025 878 1053 q 864 1008 874 1015 l 636 849 q 609 833 622 839 q 575 826 596 826 l 418 826 z "},"ŏ":{"ha":868,"x_min":11,"x_max":838,"o":"m 356 -14 q 161 22 240 -14 q 47 128 82 58 q 25 297 11 199 q 36 361 29 326 q 53 425 43 396 q 136 594 81 525 q 280 700 192 664 q 490 736 368 736 q 681 700 601 736 q 799 594 760 664 q 822 425 838 525 q 810 361 817 396 q 794 297 803 326 q 714 128 768 199 q 572 22 660 58 q 356 -14 485 -14 m 383 182 q 461 213 435 182 q 504 304 488 243 q 517 361 510 325 q 529 418 525 397 q 526 509 538 478 q 463 540 514 540 q 385 509 413 540 q 343 418 358 478 q 329 361 338 397 q 318 304 321 325 q 321 213 310 243 q 383 182 332 182 m 528 819 q 413 847 461 819 q 345 922 365 875 q 336 1026 325 968 q 347 1045 339 1038 q 368 1053 356 1053 l 478 1053 q 496 1045 490 1053 q 499 1026 501 1038 q 500 970 493 994 q 542 946 507 946 q 594 970 576 946 q 619 1026 613 994 q 631 1045 622 1038 q 651 1053 639 1053 l 761 1053 q 779 1045 774 1053 q 782 1026 785 1038 q 740 922 769 968 q 659 847 711 875 q 528 819 607 819 z "},"ô":{"ha":868,"x_min":11,"x_max":838,"o":"m 356 -14 q 161 22 240 -14 q 47 128 82 58 q 25 297 11 199 q 36 361 29 326 q 53 425 43 396 q 136 594 81 525 q 280 700 192 664 q 490 736 368 736 q 681 700 601 736 q 799 594 760 664 q 822 425 838 525 q 810 361 817 396 q 794 297 803 326 q 714 128 768 199 q 572 22 660 58 q 356 -14 485 -14 m 383 182 q 461 213 435 182 q 504 304 488 243 q 517 361 510 325 q 529 418 525 397 q 526 509 538 478 q 463 540 514 540 q 385 509 413 540 q 343 418 358 478 q 329 361 338 397 q 318 304 321 325 q 321 213 310 243 q 383 182 332 182 m 257 826 q 239 847 236 826 q 250 865 242 858 l 435 1026 q 465 1047 453 1042 q 490 1053 476 1053 l 629 1053 q 653 1047 643 1053 q 674 1026 664 1042 l 789 865 q 793 847 796 858 q 768 826 789 826 l 697 826 q 672 828 683 826 q 649 836 660 829 l 538 899 l 400 836 q 374 828 386 829 q 349 826 361 826 l 257 826 z "},"ö":{"ha":868,"x_min":11,"x_max":838,"o":"m 356 -14 q 161 22 240 -14 q 47 128 82 58 q 25 297 11 199 q 36 361 29 326 q 53 425 43 396 q 136 594 81 525 q 280 700 192 664 q 490 736 368 736 q 681 700 601 736 q 799 594 760 664 q 822 425 838 525 q 810 361 817 396 q 794 297 803 326 q 714 128 768 199 q 572 22 660 58 q 356 -14 485 -14 m 383 182 q 461 213 435 182 q 504 304 488 243 q 517 361 510 325 q 529 418 525 397 q 526 509 538 478 q 463 540 514 540 q 385 509 413 540 q 343 418 358 478 q 329 361 338 397 q 318 304 321 325 q 321 213 310 243 q 383 182 332 182 m 599 835 q 578 844 585 835 q 574 867 571 853 l 606 1017 q 619 1040 608 1031 q 643 1049 629 1049 l 793 1049 q 814 1040 807 1049 q 818 1017 821 1031 l 788 867 q 774 844 785 853 q 749 835 763 835 l 599 835 m 289 835 q 268 844 275 835 q 264 867 261 853 l 296 1017 q 309 1040 299 1031 q 333 1049 319 1049 l 483 1049 q 505 1040 497 1049 q 510 1017 513 1031 l 478 867 q 464 844 475 853 q 439 835 453 835 l 289 835 z "},"ò":{"ha":868,"x_min":11,"x_max":838,"o":"m 356 -14 q 161 22 240 -14 q 47 128 82 58 q 25 297 11 199 q 36 361 29 326 q 53 425 43 396 q 136 594 81 525 q 280 700 192 664 q 490 736 368 736 q 681 700 601 736 q 799 594 760 664 q 822 425 838 525 q 810 361 817 396 q 794 297 803 326 q 714 128 768 199 q 572 22 660 58 q 356 -14 485 -14 m 383 182 q 461 213 435 182 q 504 304 488 243 q 517 361 510 325 q 529 418 525 397 q 526 509 538 478 q 463 540 514 540 q 385 509 413 540 q 343 418 358 478 q 329 361 338 397 q 318 304 321 325 q 321 213 310 243 q 383 182 332 182 m 456 826 q 425 833 435 826 q 406 849 415 839 l 246 1007 q 242 1025 240 1015 q 274 1053 246 1053 l 506 1053 q 531 1048 522 1053 q 551 1026 540 1043 l 647 867 q 651 849 654 860 q 625 826 646 826 l 456 826 z "},"ő":{"ha":868,"x_min":11,"x_max":967,"o":"m 356 -14 q 161 22 240 -14 q 47 128 82 58 q 25 297 11 199 q 36 361 29 326 q 53 425 43 396 q 136 594 81 525 q 280 700 192 664 q 490 736 368 736 q 681 700 601 736 q 799 594 760 664 q 822 425 838 525 q 810 361 817 396 q 794 297 803 326 q 714 128 768 199 q 572 22 660 58 q 356 -14 485 -14 m 383 182 q 461 213 435 182 q 504 304 488 243 q 517 361 510 325 q 529 418 525 397 q 526 509 538 478 q 463 540 514 540 q 385 509 413 540 q 343 418 358 478 q 329 361 338 397 q 318 304 321 325 q 321 213 310 243 q 383 182 332 182 m 610 826 q 592 847 588 826 q 596 858 592 853 q 603 868 600 864 l 707 1026 q 729 1047 717 1040 q 764 1053 742 1053 l 939 1053 q 961 1026 967 1053 q 949 1008 960 1017 l 768 846 q 717 826 746 826 l 610 826 m 283 826 q 265 847 261 826 q 270 858 267 853 q 276 868 274 864 l 381 1026 q 403 1047 390 1040 q 438 1053 415 1053 l 613 1053 q 635 1026 640 1053 q 624 1008 633 1017 l 442 846 q 390 826 419 826 l 283 826 z "},"ō":{"ha":868,"x_min":11,"x_max":838,"o":"m 356 -14 q 161 22 240 -14 q 47 128 82 58 q 25 297 11 199 q 36 361 29 326 q 53 425 43 396 q 136 594 81 525 q 280 700 192 664 q 490 736 368 736 q 681 700 601 736 q 799 594 760 664 q 822 425 838 525 q 810 361 817 396 q 794 297 803 326 q 714 128 768 199 q 572 22 660 58 q 356 -14 485 -14 m 383 182 q 461 213 435 182 q 504 304 488 243 q 517 361 510 325 q 529 418 525 397 q 526 509 538 478 q 463 540 514 540 q 385 509 413 540 q 343 418 358 478 q 329 361 338 397 q 318 304 321 325 q 321 213 310 243 q 383 182 332 182 m 304 833 q 283 842 290 833 q 279 865 276 851 l 304 986 q 318 1009 307 1000 q 343 1018 329 1018 l 764 1018 q 785 1009 778 1018 q 789 986 792 1000 l 764 865 q 750 842 761 851 q 725 833 739 833 l 304 833 z "},"ø":{"ha":868,"x_min":-31,"x_max":888,"o":"m 356 -14 q 161 22 240 -14 q 47 128 82 58 q 25 297 11 199 q 36 361 29 326 q 53 425 43 396 q 136 594 81 525 q 280 700 192 664 q 490 736 368 736 q 681 700 601 736 q 799 594 760 664 q 822 425 838 525 q 810 361 817 396 q 794 297 803 326 q 714 128 768 199 q 572 22 660 58 q 356 -14 485 -14 m 383 182 q 461 213 435 182 q 504 304 488 243 q 517 361 510 325 q 529 418 525 397 q 526 509 538 478 q 463 540 514 540 q 385 509 413 540 q 343 418 358 478 q 329 361 338 397 q 318 304 321 325 q 321 213 310 243 q 383 182 332 182 m -4 -39 q -23 -31 -15 -39 q -31 -12 -31 -24 q -17 14 -31 0 l 769 739 q 790 754 781 749 q 814 760 799 760 l 861 760 q 879 752 871 760 q 888 733 888 744 q 876 710 888 719 l 88 -18 q 69 -32 79 -25 q 43 -39 58 -39 l -4 -39 z "},"ǿ":{"ha":868,"x_min":-31,"x_max":894,"o":"m 356 -14 q 161 22 240 -14 q 47 128 82 58 q 25 297 11 199 q 36 361 29 326 q 53 425 43 396 q 136 594 81 525 q 280 700 192 664 q 490 736 368 736 q 681 700 601 736 q 799 594 760 664 q 822 425 838 525 q 810 361 817 396 q 794 297 803 326 q 714 128 768 199 q 572 22 660 58 q 356 -14 485 -14 m 383 182 q 461 213 435 182 q 504 304 488 243 q 517 361 510 325 q 529 418 525 397 q 526 509 538 478 q 463 540 514 540 q 385 509 413 540 q 343 418 358 478 q 329 361 338 397 q 318 304 321 325 q 321 213 310 243 q 383 182 332 182 m -4 -39 q -23 -31 -15 -39 q -31 -12 -31 -24 q -17 14 -31 0 l 769 739 q 790 754 781 749 q 814 760 799 760 l 861 760 q 879 752 871 760 q 888 733 888 744 q 876 710 888 719 l 88 -18 q 69 -32 79 -25 q 43 -39 58 -39 l -4 -39 m 435 826 q 417 849 413 826 q 428 867 419 860 l 593 1026 q 622 1048 611 1043 q 650 1053 633 1053 l 871 1053 q 892 1025 894 1053 q 881 1008 890 1015 l 653 849 q 626 833 639 839 q 592 826 613 826 l 435 826 z "},"õ":{"ha":868,"x_min":11,"x_max":838,"o":"m 356 -14 q 161 22 240 -14 q 47 128 82 58 q 25 297 11 199 q 36 361 29 326 q 53 425 43 396 q 136 594 81 525 q 280 700 192 664 q 490 736 368 736 q 681 700 601 736 q 799 594 760 664 q 822 425 838 525 q 810 361 817 396 q 794 297 803 326 q 714 128 768 199 q 572 22 660 58 q 356 -14 485 -14 m 383 182 q 461 213 435 182 q 504 304 488 243 q 517 361 510 325 q 529 418 525 397 q 526 509 538 478 q 463 540 514 540 q 385 509 413 540 q 343 418 358 478 q 329 361 338 397 q 318 304 321 325 q 321 213 310 243 q 383 182 332 182 m 625 819 q 560 832 585 819 q 514 857 535 844 q 468 869 493 869 q 436 859 447 869 q 415 838 425 849 q 390 826 406 826 l 290 826 q 274 834 281 826 q 269 851 268 842 q 288 907 275 874 q 324 972 301 940 q 384 1026 347 1004 q 471 1047 421 1047 q 536 1035 511 1047 q 583 1010 561 1022 q 629 997 604 997 q 660 1008 649 997 q 681 1030 671 1019 q 706 1040 690 1040 l 806 1040 q 823 1033 818 1040 q 826 1015 828 1025 q 808 959 821 992 q 770 894 794 926 q 710 841 746 863 q 625 819 675 819 z "},"œ":{"ha":1329,"x_min":31,"x_max":1319,"o":"m 364 -14 q 166 22 242 -14 q 60 128 90 58 q 44 297 31 199 q 57 361 50 326 q 72 425 64 396 q 162 594 100 525 q 316 700 224 664 q 524 736 408 736 q 658 718 600 736 q 754 667 715 700 q 867 718 806 700 q 999 736 929 736 q 1200 685 1126 736 q 1297 551 1274 635 q 1297 363 1319 467 l 1290 324 q 1274 299 1286 310 q 1246 288 1261 288 l 817 288 l 815 279 q 812 220 808 246 q 831 180 815 194 q 875 165 847 165 q 906 171 893 165 q 931 185 919 176 q 951 203 942 194 q 976 219 967 215 q 1001 222 985 222 l 1218 222 q 1239 214 1232 222 q 1242 193 1246 206 q 1206 133 1235 168 q 1125 64 1176 97 q 1001 8 1074 31 q 840 -14 929 -14 q 714 3 769 -14 q 622 51 658 19 q 507 3 571 19 q 364 -14 443 -14 m 406 182 q 483 213 457 182 q 525 304 508 243 q 538 361 531 325 q 549 418 546 397 q 546 509 558 478 q 482 540 533 540 q 407 509 433 540 q 363 418 381 478 q 350 361 357 397 q 340 304 343 325 q 343 213 331 243 q 406 182 356 182 m 850 443 l 1024 443 l 1024 446 q 1027 510 1032 483 q 1006 549 1022 536 q 961 563 989 563 q 911 549 933 563 q 874 510 889 536 q 850 446 858 483 l 850 443 z "},"p":{"ha":897,"x_min":-65,"x_max":861,"o":"m -35 -264 q -58 -253 -50 -264 q -62 -228 -65 -243 l 131 686 q 147 712 133 701 q 175 722 160 722 l 371 722 q 394 712 386 722 q 400 686 403 701 l 390 640 q 481 709 431 682 q 607 736 532 736 q 722 717 672 736 q 806 657 772 697 q 850 556 839 617 q 847 413 861 494 q 838 361 842 383 q 825 308 833 339 q 772 170 806 231 q 694 69 739 110 q 594 8 650 29 q 474 -14 539 -14 q 359 8 408 -14 q 286 75 310 29 l 222 -228 q 206 -253 219 -243 q 179 -264 193 -264 l -35 -264 m 411 203 q 470 217 447 203 q 508 258 493 232 q 535 317 524 285 q 547 361 542 338 q 553 406 551 385 q 554 465 558 439 q 534 505 550 490 q 482 519 518 519 q 422 504 447 519 q 381 464 396 489 q 358 408 367 439 q 344 356 349 379 q 335 304 339 333 q 336 253 331 275 q 360 217 342 231 q 411 203 378 203 z "},"þ":{"ha":897,"x_min":-65,"x_max":861,"o":"m -35 -264 q -58 -253 -50 -264 q -62 -228 -65 -243 l 188 950 q 203 976 190 965 q 231 986 215 986 l 444 986 q 467 976 458 986 q 474 950 476 965 l 410 651 q 487 711 442 686 q 607 736 532 736 q 722 717 672 736 q 806 657 772 697 q 850 556 839 617 q 847 413 861 494 q 838 361 842 383 q 825 308 833 339 q 772 170 806 231 q 694 69 739 110 q 594 8 650 29 q 474 -14 539 -14 q 359 9 408 -14 q 286 75 310 32 l 222 -228 q 206 -253 219 -243 q 179 -264 193 -264 l -35 -264 m 411 203 q 470 217 447 203 q 508 258 493 232 q 535 317 524 285 q 547 361 542 338 q 553 406 551 385 q 554 465 558 439 q 534 505 550 490 q 482 519 518 519 q 422 504 447 519 q 381 464 396 489 q 358 408 367 439 q 344 356 349 379 q 335 304 339 333 q 336 253 331 275 q 360 217 342 231 q 411 203 378 203 z "},"q":{"ha":897,"x_min":15,"x_max":886,"o":"m 432 -264 q 409 -253 417 -264 q 404 -228 401 -243 l 468 75 q 379 8 426 29 q 269 -14 332 -14 q 154 7 206 -14 q 70 69 103 28 q 26 169 38 110 q 29 307 15 229 q 40 361 35 338 q 51 414 44 385 q 130 595 81 524 q 248 701 179 667 q 403 736 317 736 q 531 709 478 736 q 606 640 583 682 l 614 686 q 631 712 617 701 q 658 722 644 722 l 856 722 q 878 712 869 722 q 883 686 886 701 l 690 -228 q 674 -253 688 -243 q 646 -264 660 -264 l 432 -264 m 394 203 q 453 217 428 203 q 494 253 478 231 q 517 304 510 275 q 529 356 525 333 q 539 408 533 379 q 540 464 544 439 q 518 504 535 489 q 465 519 501 519 q 406 505 431 519 q 367 465 382 490 q 342 406 353 439 q 331 361 336 385 q 324 317 326 338 q 322 258 319 283 q 342 217 325 232 q 394 203 358 203 z "},"r":{"ha":676,"x_min":-10,"x_max":719,"o":"m 22 0 q -1 10 7 0 q -7 36 -10 21 l 131 686 q 147 712 133 701 q 175 722 160 722 l 376 722 q 399 712 392 722 q 404 686 407 701 l 394 635 q 477 698 429 674 q 601 722 525 722 l 688 722 q 711 712 703 722 q 717 686 719 701 l 678 507 q 662 481 675 492 q 635 471 649 471 l 478 471 q 397 444 428 471 q 356 368 367 418 l 283 36 q 268 10 281 21 q 240 0 256 0 l 22 0 z "},"ŕ":{"ha":676,"x_min":-10,"x_max":806,"o":"m 22 0 q -1 10 7 0 q -7 36 -10 21 l 131 686 q 147 712 133 701 q 175 722 160 722 l 376 722 q 399 712 392 722 q 404 686 407 701 l 394 635 q 477 698 429 674 q 601 722 525 722 l 688 722 q 711 712 703 722 q 717 686 719 701 l 678 507 q 662 481 675 492 q 635 471 649 471 l 478 471 q 397 444 428 471 q 356 368 367 418 l 283 36 q 268 10 281 21 q 240 0 256 0 l 22 0 m 346 826 q 328 849 324 826 q 339 867 331 860 l 504 1026 q 533 1048 522 1043 q 561 1053 544 1053 l 782 1053 q 803 1025 806 1053 q 792 1008 801 1015 l 564 849 q 537 833 550 839 q 503 826 524 826 l 346 826 z "},"ř":{"ha":676,"x_min":-10,"x_max":768,"o":"m 22 0 q -1 10 7 0 q -7 36 -10 21 l 131 686 q 147 712 133 701 q 175 722 160 722 l 376 722 q 399 712 392 722 q 404 686 407 701 l 394 635 q 477 698 429 674 q 601 722 525 722 l 688 722 q 711 712 703 722 q 717 686 719 701 l 678 507 q 662 481 675 492 q 635 471 649 471 l 478 471 q 397 444 428 471 q 356 368 367 418 l 283 36 q 268 10 281 21 q 240 0 256 0 l 22 0 m 375 826 q 351 832 361 826 q 331 851 342 838 l 214 1013 q 211 1031 208 1019 q 219 1047 213 1042 q 236 1053 226 1053 l 307 1053 q 331 1051 319 1053 q 356 1043 343 1049 l 467 979 l 604 1043 q 630 1051 618 1049 q 656 1053 642 1053 l 747 1053 q 765 1032 768 1053 q 754 1013 763 1021 l 568 851 q 540 832 551 838 q 514 826 528 826 l 375 826 z "},"ŗ":{"ha":676,"x_min":-93,"x_max":719,"o":"m 22 0 q -1 10 7 0 q -7 36 -10 21 l 131 686 q 147 712 133 701 q 175 722 160 722 l 376 722 q 399 712 392 722 q 404 686 407 701 l 394 635 q 477 698 429 674 q 601 722 525 722 l 688 722 q 711 712 703 722 q 717 686 719 701 l 678 507 q 662 481 675 492 q 635 471 649 471 l 478 471 q 397 444 428 471 q 356 368 367 418 l 283 36 q 268 10 281 21 q 240 0 256 0 l 22 0 m -68 -336 q -87 -328 -81 -336 q -90 -307 -93 -319 l -24 -121 q 1 -85 -17 -101 q 43 -69 18 -69 l 214 -69 q 231 -78 225 -69 q 235 -99 238 -86 q 233 -103 233 -100 q 231 -111 233 -107 l 119 -296 q 95 -323 110 -310 q 54 -336 81 -336 l -68 -336 z "},"s":{"ha":794,"x_min":3,"x_max":781,"o":"m 319 -14 q 163 6 225 -14 q 65 57 100 26 q 16 120 29 88 q 7 178 3 153 q 22 203 10 193 q 47 214 35 214 l 247 214 q 252 213 250 214 q 257 210 254 213 q 288 192 274 204 q 319 169 301 179 q 364 160 338 160 q 410 170 389 160 q 435 200 431 181 q 431 229 439 217 q 392 253 424 242 q 290 279 360 265 q 175 320 225 293 q 101 393 125 347 q 93 506 78 439 q 153 615 104 563 q 283 702 201 668 q 474 736 365 736 q 615 717 556 736 q 711 668 674 697 q 765 606 749 639 q 775 546 781 572 q 763 520 774 531 q 739 510 751 510 l 556 510 q 547 510 551 510 q 540 514 543 511 q 509 530 522 518 q 479 552 496 542 q 435 563 463 563 q 394 551 411 563 q 374 522 378 540 q 377 494 369 507 q 417 471 385 482 q 521 447 449 460 q 666 397 615 432 q 732 314 717 361 q 738 219 747 267 q 669 96 722 149 q 526 15 615 43 q 319 -14 438 -14 z "},"ś":{"ha":794,"x_min":3,"x_max":832,"o":"m 319 -14 q 163 6 225 -14 q 65 57 100 26 q 16 120 29 88 q 7 178 3 153 q 22 203 10 193 q 47 214 35 214 l 247 214 q 252 213 250 214 q 257 210 254 213 q 288 192 274 204 q 319 169 301 179 q 364 160 338 160 q 410 170 389 160 q 435 200 431 181 q 431 229 439 217 q 392 253 424 242 q 290 279 360 265 q 175 320 225 293 q 101 393 125 347 q 93 506 78 439 q 153 615 104 563 q 283 702 201 668 q 474 736 365 736 q 615 717 556 736 q 711 668 674 697 q 765 606 749 639 q 775 546 781 572 q 763 520 774 531 q 739 510 751 510 l 556 510 q 547 510 551 510 q 540 514 543 511 q 509 530 522 518 q 479 552 496 542 q 435 563 463 563 q 394 551 411 563 q 374 522 378 540 q 377 494 369 507 q 417 471 385 482 q 521 447 449 460 q 666 397 615 432 q 732 314 717 361 q 738 219 747 267 q 669 96 722 149 q 526 15 615 43 q 319 -14 438 -14 m 372 826 q 354 849 350 826 q 365 867 357 860 l 531 1026 q 560 1048 549 1043 q 588 1053 571 1053 l 808 1053 q 829 1025 832 1053 q 818 1008 828 1015 l 590 849 q 563 833 576 839 q 529 826 550 826 l 372 826 z "},"š":{"ha":794,"x_min":3,"x_max":794,"o":"m 319 -14 q 163 6 225 -14 q 65 57 100 26 q 16 120 29 88 q 7 178 3 153 q 22 203 10 193 q 47 214 35 214 l 247 214 q 252 213 250 214 q 257 210 254 213 q 288 192 274 204 q 319 169 301 179 q 364 160 338 160 q 410 170 389 160 q 435 200 431 181 q 431 229 439 217 q 392 253 424 242 q 290 279 360 265 q 175 320 225 293 q 101 393 125 347 q 93 506 78 439 q 153 615 104 563 q 283 702 201 668 q 474 736 365 736 q 615 717 556 736 q 711 668 674 697 q 765 606 749 639 q 775 546 781 572 q 763 520 774 531 q 739 510 751 510 l 556 510 q 547 510 551 510 q 540 514 543 511 q 509 530 522 518 q 479 552 496 542 q 435 563 463 563 q 394 551 411 563 q 374 522 378 540 q 377 494 369 507 q 417 471 385 482 q 521 447 449 460 q 666 397 615 432 q 732 314 717 361 q 738 219 747 267 q 669 96 722 149 q 526 15 615 43 q 319 -14 438 -14 m 401 826 q 378 832 388 826 q 357 851 368 838 l 240 1013 q 238 1031 235 1019 q 246 1047 239 1042 q 263 1053 253 1053 l 333 1053 q 358 1051 346 1053 q 382 1043 369 1049 l 493 979 l 631 1043 q 656 1051 644 1049 q 682 1053 668 1053 l 774 1053 q 792 1032 794 1053 q 781 1013 789 1021 l 594 851 q 566 832 578 838 q 540 826 554 826 l 401 826 z "},"ş":{"ha":794,"x_min":1,"x_max":781,"o":"m 296 -306 q 232 -293 260 -306 q 195 -264 204 -281 q 203 -235 186 -247 l 236 -211 q 258 -203 250 -200 q 278 -212 267 -206 q 314 -219 289 -219 q 349 -208 335 -219 q 367 -182 363 -197 q 361 -156 369 -167 q 331 -144 353 -144 q 304 -149 318 -144 q 278 -153 290 -153 q 258 -146 265 -154 l 236 -118 q 230 -99 229 -108 q 243 -72 231 -90 l 282 -12 q 108 31 171 -3 q 24 105 46 64 q 7 178 1 146 q 22 203 10 193 q 47 214 35 214 l 239 214 q 245 213 242 214 q 253 210 249 213 q 286 193 272 206 q 318 170 300 181 q 364 160 336 160 q 410 170 389 160 q 435 200 431 181 q 431 229 439 217 q 392 253 424 242 q 290 279 360 265 q 175 320 225 293 q 101 393 125 347 q 93 506 78 439 q 153 615 104 563 q 283 702 201 668 q 474 736 365 736 q 615 717 556 736 q 711 668 674 697 q 765 606 749 639 q 775 546 781 572 q 763 520 774 531 q 739 510 751 510 l 554 510 q 547 510 550 510 q 540 514 543 511 q 509 530 522 518 q 479 552 496 542 q 435 563 463 563 q 394 551 411 563 q 374 522 378 540 q 377 494 369 507 q 417 471 385 482 q 521 447 449 460 q 666 397 615 432 q 732 314 717 361 q 738 219 747 267 q 621 59 717 121 q 367 -12 525 -3 l 332 -65 q 355 -60 340 -62 q 375 -58 369 -58 q 449 -92 426 -58 q 460 -181 471 -126 q 403 -271 447 -236 q 296 -306 358 -306 z "},"ŝ":{"ha":794,"x_min":3,"x_max":781,"o":"m 319 -14 q 163 6 225 -14 q 65 57 100 26 q 16 120 29 88 q 7 178 3 153 q 22 203 10 193 q 47 214 35 214 l 247 214 q 252 213 250 214 q 257 210 254 213 q 288 192 274 204 q 319 169 301 179 q 364 160 338 160 q 410 170 389 160 q 435 200 431 181 q 431 229 439 217 q 392 253 424 242 q 290 279 360 265 q 175 320 225 293 q 101 393 125 347 q 93 506 78 439 q 153 615 104 563 q 283 702 201 668 q 474 736 365 736 q 615 717 556 736 q 711 668 674 697 q 765 606 749 639 q 775 546 781 572 q 763 520 774 531 q 739 510 751 510 l 556 510 q 547 510 551 510 q 540 514 543 511 q 509 530 522 518 q 479 552 496 542 q 435 563 463 563 q 394 551 411 563 q 374 522 378 540 q 377 494 369 507 q 417 471 385 482 q 521 447 449 460 q 666 397 615 432 q 732 314 717 361 q 738 219 747 267 q 669 96 722 149 q 526 15 615 43 q 319 -14 438 -14 m 211 826 q 193 847 190 826 q 204 865 196 858 l 389 1026 q 419 1047 407 1042 q 444 1053 431 1053 l 583 1053 q 608 1047 597 1053 q 628 1026 618 1042 l 743 865 q 747 847 750 858 q 722 826 743 826 l 651 826 q 626 828 638 826 q 603 836 614 829 l 492 899 l 354 836 q 328 828 340 829 q 303 826 315 826 l 211 826 z "},"ș":{"ha":794,"x_min":3,"x_max":781,"o":"m 319 -14 q 163 6 225 -14 q 65 57 100 26 q 16 120 29 88 q 7 178 3 153 q 22 203 10 193 q 47 214 35 214 l 247 214 q 252 213 250 214 q 257 210 254 213 q 288 192 274 204 q 319 169 301 179 q 364 160 338 160 q 410 170 389 160 q 435 200 431 181 q 431 229 439 217 q 392 253 424 242 q 290 279 360 265 q 175 320 225 293 q 101 393 125 347 q 93 506 78 439 q 153 615 104 563 q 283 702 201 668 q 474 736 365 736 q 615 717 556 736 q 711 668 674 697 q 765 606 749 639 q 775 546 781 572 q 763 520 774 531 q 739 510 751 510 l 556 510 q 547 510 551 510 q 540 514 543 511 q 509 530 522 518 q 479 552 496 542 q 435 563 463 563 q 394 551 411 563 q 374 522 378 540 q 377 494 369 507 q 417 471 385 482 q 521 447 449 460 q 666 397 615 432 q 732 314 717 361 q 738 219 747 267 q 669 96 722 149 q 526 15 615 43 q 319 -14 438 -14 m 118 -336 q 99 -328 106 -336 q 96 -307 93 -319 l 163 -121 q 187 -85 169 -101 q 229 -69 204 -69 l 400 -69 q 417 -78 411 -69 q 421 -99 424 -86 q 419 -103 419 -100 q 417 -111 419 -107 l 306 -296 q 281 -323 296 -310 q 240 -336 267 -336 l 118 -336 z "},"ß":{"ha":918,"x_min":10,"x_max":929,"o":"m 40 0 q 17 10 25 0 q 13 36 10 21 l 140 640 q 217 815 161 738 q 369 940 274 893 q 600 986 464 986 q 808 945 735 986 q 906 840 882 904 q 914 704 929 775 q 888 628 906 663 q 844 568 869 594 q 785 521 818 542 q 847 472 824 503 q 876 398 869 440 q 868 296 882 356 q 825 192 858 244 q 738 96 792 139 q 607 26 683 53 q 433 0 531 0 l 374 0 q 345 10 354 0 q 339 36 336 21 l 367 168 q 383 194 369 183 q 418 204 397 206 l 438 204 q 530 233 492 204 q 578 308 568 263 q 563 383 588 354 q 476 413 538 413 l 458 413 q 431 424 438 413 q 428 450 425 435 l 451 564 q 464 590 454 579 q 497 600 474 600 l 515 600 q 601 625 567 601 q 644 689 636 649 q 629 754 653 728 q 556 781 606 781 q 470 749 506 781 q 419 647 435 718 l 290 36 q 274 10 288 21 q 246 0 261 0 l 40 0 z "},"ſ":{"ha":506,"x_min":46,"x_max":772,"o":"m 108 0 q 84 10 93 0 q 78 36 75 21 l 179 510 l 79 510 q 55 520 64 510 q 50 546 46 531 l 79 686 q 95 712 82 701 q 124 722 108 722 l 225 722 l 232 757 q 305 920 256 861 q 429 1003 354 979 q 599 1028 504 1028 l 742 1028 q 764 1017 756 1028 q 769 992 772 1007 l 739 851 q 724 826 736 836 q 696 815 711 815 l 593 815 q 533 798 554 815 q 506 750 511 781 l 353 36 q 338 10 350 21 q 310 0 325 0 l 108 0 z "},"t":{"ha":689,"x_min":39,"x_max":704,"o":"m 404 0 q 237 28 306 0 q 139 119 168 56 q 132 286 110 182 l 181 510 l 71 510 q 47 520 56 510 q 42 546 39 531 l 71 686 q 87 712 74 701 q 115 722 100 722 l 225 722 l 274 950 q 289 976 276 965 q 317 986 301 986 l 518 986 q 542 976 533 986 q 549 950 551 965 l 500 722 l 674 722 q 697 712 689 722 q 701 686 704 701 l 674 546 q 658 520 671 531 q 629 510 644 510 l 454 510 l 411 310 q 408 264 406 283 q 422 234 410 244 q 461 224 435 224 l 579 224 q 603 213 594 224 q 608 188 611 203 l 575 36 q 560 10 572 21 q 533 0 547 0 l 404 0 z "},"ŧ":{"ha":693,"x_min":14,"x_max":708,"o":"m 396 0 q 232 28 299 0 q 140 119 165 56 q 136 286 114 182 l 156 378 l 46 378 q 23 389 32 378 q 18 414 14 400 l 31 475 q 47 501 35 490 q 75 513 60 513 l 183 513 l 201 589 l 92 589 q 68 599 76 589 q 63 625 60 610 l 75 686 q 91 712 78 701 q 119 722 104 722 l 229 722 l 278 950 q 293 976 281 965 q 321 986 306 986 l 522 986 q 546 976 538 986 q 551 950 554 965 l 503 722 l 678 722 q 701 712 693 722 q 706 686 708 701 l 693 625 q 678 599 690 610 q 650 589 665 589 l 475 589 l 458 513 l 633 513 q 656 501 647 513 q 661 475 665 490 l 649 414 q 632 389 644 400 q 604 378 619 378 l 431 378 l 415 310 q 412 264 410 283 q 426 234 414 244 q 465 224 439 224 l 583 224 q 606 213 599 224 q 611 188 614 203 l 579 36 q 564 10 576 21 q 536 0 551 0 l 396 0 z "},"ť":{"ha":689,"x_min":39,"x_max":961,"o":"m 404 0 q 237 28 306 0 q 139 119 168 56 q 132 286 110 182 l 181 510 l 71 510 q 47 520 56 510 q 42 546 39 531 l 71 686 q 87 712 74 701 q 115 722 100 722 l 225 722 l 274 950 q 289 976 276 965 q 317 986 301 986 l 518 986 q 542 976 533 986 q 549 950 551 965 l 500 722 l 674 722 q 697 712 689 722 q 701 686 704 701 l 674 546 q 658 520 671 531 q 629 510 644 510 l 454 510 l 411 310 q 408 264 406 283 q 422 234 410 244 q 461 224 435 224 l 579 224 q 603 213 594 224 q 608 188 611 203 l 575 36 q 560 10 572 21 q 533 0 547 0 l 404 0 m 654 849 q 637 857 643 849 q 633 878 631 865 l 700 1064 q 724 1099 707 1083 q 767 1115 742 1115 l 936 1115 q 955 1107 949 1115 q 958 1086 961 1099 q 956 1081 957 1085 q 953 1074 956 1078 l 842 889 q 818 862 833 875 q 778 849 803 849 l 654 849 z "},"ț":{"ha":689,"x_min":39,"x_max":704,"o":"m 404 0 q 237 28 306 0 q 139 119 168 56 q 132 286 110 182 l 181 510 l 71 510 q 47 520 56 510 q 42 546 39 531 l 71 686 q 87 712 74 701 q 115 722 100 722 l 225 722 l 274 950 q 289 976 276 965 q 317 986 301 986 l 518 986 q 542 976 533 986 q 549 950 551 965 l 500 722 l 674 722 q 697 712 689 722 q 701 686 704 701 l 674 546 q 658 520 671 531 q 629 510 644 510 l 454 510 l 411 310 q 408 264 406 283 q 422 234 410 244 q 461 224 435 224 l 579 224 q 603 213 594 224 q 608 188 611 203 l 575 36 q 560 10 572 21 q 533 0 547 0 l 404 0 m 126 -336 q 108 -328 114 -336 q 104 -307 101 -319 l 171 -121 q 195 -85 178 -101 q 238 -69 213 -69 l 408 -69 q 426 -78 419 -69 q 429 -99 432 -86 q 428 -103 428 -100 q 425 -111 428 -107 l 314 -296 q 290 -323 304 -310 q 249 -336 275 -336 l 126 -336 z "},"u":{"ha":913,"x_min":19,"x_max":901,"o":"m 258 -14 q 124 21 182 -14 q 43 125 67 56 q 42 300 19 194 l 122 686 q 138 712 125 701 q 167 722 151 722 l 386 722 q 410 712 401 722 q 415 686 418 701 l 335 310 q 332 251 328 275 q 354 215 336 228 q 404 203 372 203 q 484 231 451 203 q 528 310 517 258 l 607 686 q 623 712 610 701 q 651 722 636 722 l 871 722 q 894 712 886 722 q 899 686 901 701 l 761 36 q 746 10 758 21 q 718 0 733 0 l 515 0 q 492 10 501 0 q 486 36 483 21 l 497 86 q 433 31 467 53 q 358 -3 400 8 q 258 -14 317 -14 z "},"ú":{"ha":913,"x_min":19,"x_max":901,"o":"m 258 -14 q 124 21 182 -14 q 43 125 67 56 q 42 300 19 194 l 122 686 q 138 712 125 701 q 167 722 151 722 l 386 722 q 410 712 401 722 q 415 686 418 701 l 335 310 q 332 251 328 275 q 354 215 336 228 q 404 203 372 203 q 484 231 451 203 q 528 310 517 258 l 607 686 q 623 712 610 701 q 651 722 636 722 l 871 722 q 894 712 886 722 q 899 686 901 701 l 761 36 q 746 10 758 21 q 718 0 733 0 l 515 0 q 492 10 501 0 q 486 36 483 21 l 497 86 q 433 31 467 53 q 358 -3 400 8 q 258 -14 317 -14 m 433 826 q 415 849 411 826 q 426 867 418 860 l 592 1026 q 621 1048 610 1043 q 649 1053 632 1053 l 869 1053 q 890 1025 893 1053 q 879 1008 889 1015 l 651 849 q 624 833 638 839 q 590 826 611 826 l 433 826 z "},"ŭ":{"ha":913,"x_min":19,"x_max":901,"o":"m 258 -14 q 124 21 182 -14 q 43 125 67 56 q 42 300 19 194 l 122 686 q 138 712 125 701 q 167 722 151 722 l 386 722 q 410 712 401 722 q 415 686 418 701 l 335 310 q 332 251 328 275 q 354 215 336 228 q 404 203 372 203 q 484 231 451 203 q 528 310 517 258 l 607 686 q 623 712 610 701 q 651 722 636 722 l 871 722 q 894 712 886 722 q 899 686 901 701 l 761 36 q 746 10 758 21 q 718 0 733 0 l 515 0 q 492 10 501 0 q 486 36 483 21 l 497 86 q 433 31 467 53 q 358 -3 400 8 q 258 -14 317 -14 m 542 819 q 427 847 475 819 q 359 922 379 875 q 350 1026 339 968 q 361 1045 353 1038 q 382 1053 369 1053 l 492 1053 q 510 1045 504 1053 q 513 1026 515 1038 q 514 970 507 994 q 556 946 521 946 q 608 970 590 946 q 633 1026 626 994 q 644 1045 636 1038 q 665 1053 653 1053 l 775 1053 q 793 1045 788 1053 q 796 1026 799 1038 q 754 922 783 968 q 673 847 725 875 q 542 819 621 819 z "},"û":{"ha":913,"x_min":19,"x_max":901,"o":"m 258 -14 q 124 21 182 -14 q 43 125 67 56 q 42 300 19 194 l 122 686 q 138 712 125 701 q 167 722 151 722 l 386 722 q 410 712 401 722 q 415 686 418 701 l 335 310 q 332 251 328 275 q 354 215 336 228 q 404 203 372 203 q 484 231 451 203 q 528 310 517 258 l 607 686 q 623 712 610 701 q 651 722 636 722 l 871 722 q 894 712 886 722 q 899 686 901 701 l 761 36 q 746 10 758 21 q 718 0 733 0 l 515 0 q 492 10 501 0 q 486 36 483 21 l 497 86 q 433 31 467 53 q 358 -3 400 8 q 258 -14 317 -14 m 272 826 q 254 847 251 826 q 265 865 257 858 l 450 1026 q 480 1047 468 1042 q 506 1053 492 1053 l 644 1053 q 669 1047 658 1053 q 689 1026 679 1042 l 804 865 q 808 847 811 858 q 783 826 804 826 l 713 826 q 687 828 699 826 q 664 836 675 829 l 553 899 l 415 836 q 389 828 401 829 q 364 826 376 826 l 272 826 z "},"ü":{"ha":913,"x_min":19,"x_max":901,"o":"m 258 -14 q 124 21 182 -14 q 43 125 67 56 q 42 300 19 194 l 122 686 q 138 712 125 701 q 167 722 151 722 l 386 722 q 410 712 401 722 q 415 686 418 701 l 335 310 q 332 251 328 275 q 354 215 336 228 q 404 203 372 203 q 484 231 451 203 q 528 310 517 258 l 607 686 q 623 712 610 701 q 651 722 636 722 l 871 722 q 894 712 886 722 q 899 686 901 701 l 761 36 q 746 10 758 21 q 718 0 733 0 l 515 0 q 492 10 501 0 q 486 36 483 21 l 497 86 q 433 31 467 53 q 358 -3 400 8 q 258 -14 317 -14 m 613 835 q 592 844 599 835 q 588 867 585 853 l 619 1017 q 633 1040 622 1031 q 657 1049 643 1049 l 807 1049 q 828 1040 821 1049 q 832 1017 835 1031 l 801 867 q 788 844 799 853 q 763 835 776 835 l 613 835 m 303 835 q 282 844 289 835 q 278 867 275 853 l 310 1017 q 323 1040 313 1031 q 347 1049 333 1049 l 497 1049 q 519 1040 511 1049 q 524 1017 526 1031 l 492 867 q 478 844 489 853 q 453 835 467 835 l 303 835 z "},"ù":{"ha":913,"x_min":19,"x_max":901,"o":"m 258 -14 q 124 21 182 -14 q 43 125 67 56 q 42 300 19 194 l 122 686 q 138 712 125 701 q 167 722 151 722 l 386 722 q 410 712 401 722 q 415 686 418 701 l 335 310 q 332 251 328 275 q 354 215 336 228 q 404 203 372 203 q 484 231 451 203 q 528 310 517 258 l 607 686 q 623 712 610 701 q 651 722 636 722 l 871 722 q 894 712 886 722 q 899 686 901 701 l 761 36 q 746 10 758 21 q 718 0 733 0 l 515 0 q 492 10 501 0 q 486 36 483 21 l 497 86 q 433 31 467 53 q 358 -3 400 8 q 258 -14 317 -14 m 471 826 q 440 833 450 826 q 421 849 431 839 l 261 1007 q 257 1025 256 1015 q 289 1053 261 1053 l 521 1053 q 547 1048 538 1053 q 567 1026 556 1043 l 663 867 q 667 849 669 860 q 640 826 661 826 l 471 826 z "},"ű":{"ha":913,"x_min":19,"x_max":982,"o":"m 258 -14 q 124 21 182 -14 q 43 125 67 56 q 42 300 19 194 l 122 686 q 138 712 125 701 q 167 722 151 722 l 386 722 q 410 712 401 722 q 415 686 418 701 l 335 310 q 332 251 328 275 q 354 215 336 228 q 404 203 372 203 q 484 231 451 203 q 528 310 517 258 l 607 686 q 623 712 610 701 q 651 722 636 722 l 871 722 q 894 712 886 722 q 899 686 901 701 l 761 36 q 746 10 758 21 q 718 0 733 0 l 515 0 q 492 10 501 0 q 486 36 483 21 l 497 86 q 433 31 467 53 q 358 -3 400 8 q 258 -14 317 -14 m 625 826 q 607 847 603 826 q 611 858 607 853 q 618 868 615 864 l 722 1026 q 744 1047 732 1040 q 779 1053 757 1053 l 954 1053 q 976 1026 982 1053 q 964 1008 975 1017 l 783 846 q 732 826 761 826 l 625 826 m 299 826 q 281 847 276 826 q 285 858 282 853 q 292 868 289 864 l 396 1026 q 418 1047 406 1040 q 453 1053 431 1053 l 628 1053 q 650 1026 656 1053 q 639 1008 649 1017 l 457 846 q 406 826 435 826 l 299 826 z "},"ū":{"ha":913,"x_min":19,"x_max":901,"o":"m 258 -14 q 124 21 182 -14 q 43 125 67 56 q 42 300 19 194 l 122 686 q 138 712 125 701 q 167 722 151 722 l 386 722 q 410 712 401 722 q 415 686 418 701 l 335 310 q 332 251 328 275 q 354 215 336 228 q 404 203 372 203 q 484 231 451 203 q 528 310 517 258 l 607 686 q 623 712 610 701 q 651 722 636 722 l 871 722 q 894 712 886 722 q 899 686 901 701 l 761 36 q 746 10 758 21 q 718 0 733 0 l 515 0 q 492 10 501 0 q 486 36 483 21 l 497 86 q 433 31 467 53 q 358 -3 400 8 q 258 -14 317 -14 m 319 833 q 299 842 306 833 q 294 865 292 851 l 319 986 q 333 1009 322 1000 q 358 1018 344 1018 l 779 1018 q 800 1009 793 1018 q 804 986 807 1000 l 779 865 q 765 842 776 851 q 740 833 754 833 l 319 833 z "},"ų":{"ha":913,"x_min":39,"x_max":922,"o":"m 653 -306 q 535 -276 578 -306 q 478 -194 492 -246 q 479 -79 465 -143 q 490 -44 483 -60 q 506 -15 497 -29 q 525 10 515 -1 q 510 22 515 13 q 508 42 506 31 l 517 86 q 407 10 472 35 q 265 -14 342 -14 q 137 21 192 -14 q 60 125 82 56 q 61 300 39 194 l 143 686 q 159 712 146 701 q 188 722 172 722 l 407 722 q 430 712 422 722 q 435 686 438 701 l 356 310 q 428 203 333 203 q 506 231 474 203 q 549 310 538 258 l 628 686 q 644 712 631 701 q 672 722 657 722 l 892 722 q 914 712 906 722 q 919 686 922 701 l 781 36 q 766 12 779 22 q 739 0 753 1 l 719 0 q 663 -29 682 -6 q 638 -79 643 -53 q 642 -130 631 -107 q 692 -153 653 -153 l 704 -153 q 728 -163 719 -153 q 733 -189 736 -174 l 715 -269 q 699 -295 713 -285 q 672 -306 686 -306 l 653 -306 z "},"ů":{"ha":913,"x_min":19,"x_max":901,"o":"m 258 -14 q 124 21 182 -14 q 43 125 67 56 q 42 300 19 194 l 122 686 q 138 712 125 701 q 167 722 151 722 l 386 722 q 410 712 401 722 q 415 686 418 701 l 335 310 q 332 251 328 275 q 354 215 336 228 q 404 203 372 203 q 484 231 451 203 q 528 310 517 258 l 607 686 q 623 712 610 701 q 651 722 636 722 l 871 722 q 894 712 886 722 q 899 686 901 701 l 761 36 q 746 10 758 21 q 718 0 733 0 l 515 0 q 492 10 501 0 q 486 36 483 21 l 497 86 q 433 31 467 53 q 358 -3 400 8 q 258 -14 317 -14 m 524 819 q 437 856 469 819 q 417 946 404 892 q 474 1038 428 1001 q 576 1074 521 1074 q 663 1038 631 1074 q 683 946 696 1001 q 626 856 672 892 q 524 819 579 819 m 540 904 q 574 916 560 904 q 592 946 588 928 q 587 976 596 964 q 558 988 578 988 q 526 976 540 988 q 508 946 513 964 q 513 916 504 928 q 540 904 522 904 z "},"ũ":{"ha":913,"x_min":19,"x_max":901,"o":"m 258 -14 q 124 21 182 -14 q 43 125 67 56 q 42 300 19 194 l 122 686 q 138 712 125 701 q 167 722 151 722 l 386 722 q 410 712 401 722 q 415 686 418 701 l 335 310 q 332 251 328 275 q 354 215 336 228 q 404 203 372 203 q 484 231 451 203 q 528 310 517 258 l 607 686 q 623 712 610 701 q 651 722 636 722 l 871 722 q 894 712 886 722 q 899 686 901 701 l 761 36 q 746 10 758 21 q 718 0 733 0 l 515 0 q 492 10 501 0 q 486 36 483 21 l 497 86 q 433 31 467 53 q 358 -3 400 8 q 258 -14 317 -14 m 640 819 q 575 832 600 819 q 529 857 550 844 q 483 869 508 869 q 451 859 463 869 q 431 838 440 849 q 406 826 421 826 l 306 826 q 290 834 296 826 q 285 851 283 842 q 303 907 290 874 q 340 972 317 940 q 399 1026 363 1004 q 486 1047 436 1047 q 551 1035 526 1047 q 598 1010 576 1022 q 644 997 619 997 q 675 1008 664 997 q 696 1030 686 1019 q 721 1040 706 1040 l 821 1040 q 838 1033 833 1040 q 842 1015 843 1025 q 823 959 836 992 q 785 894 810 926 q 726 841 761 863 q 640 819 690 819 z "},"v":{"ha":851,"x_min":76,"x_max":897,"o":"m 247 0 q 217 11 225 0 q 207 35 210 22 l 79 681 q 86 710 76 699 q 118 722 96 722 l 303 722 q 329 712 321 722 q 340 689 338 701 l 393 315 l 608 692 q 626 712 614 701 q 657 722 638 722 l 865 722 q 891 709 885 722 q 886 679 897 696 l 486 35 q 465 11 476 22 q 433 0 454 0 l 247 0 z "},"w":{"ha":1189,"x_min":83,"x_max":1222,"o":"m 189 0 q 160 10 168 0 q 150 35 151 21 l 85 681 q 95 709 83 696 q 124 722 107 722 l 297 722 q 325 713 317 722 q 335 692 333 703 l 364 349 l 543 690 q 561 711 549 700 q 594 722 574 722 l 706 722 q 735 711 726 722 q 744 690 743 700 l 779 349 l 953 692 q 971 712 958 701 q 1003 722 983 722 l 1194 722 q 1218 708 1214 722 q 1215 679 1222 694 l 878 35 q 859 10 872 21 q 825 0 846 0 l 669 0 q 641 10 649 0 q 631 35 633 21 l 576 365 l 392 35 q 372 10 385 21 q 339 0 360 0 l 189 0 z "},"ẃ":{"ha":1189,"x_min":83,"x_max":1222,"o":"m 189 0 q 160 10 168 0 q 150 35 151 21 l 85 681 q 95 709 83 696 q 124 722 107 722 l 297 722 q 325 713 317 722 q 335 692 333 703 l 364 349 l 543 690 q 561 711 549 700 q 594 722 574 722 l 706 722 q 735 711 726 722 q 744 690 743 700 l 779 349 l 953 692 q 971 712 958 701 q 1003 722 983 722 l 1194 722 q 1218 708 1214 722 q 1215 679 1222 694 l 878 35 q 859 10 872 21 q 825 0 846 0 l 669 0 q 641 10 649 0 q 631 35 633 21 l 576 365 l 392 35 q 372 10 385 21 q 339 0 360 0 l 189 0 m 569 826 q 551 849 547 826 q 563 867 554 860 l 728 1026 q 757 1048 746 1043 q 785 1053 768 1053 l 1006 1053 q 1026 1025 1029 1053 q 1015 1008 1025 1015 l 788 849 q 760 833 774 839 q 726 826 747 826 l 569 826 z "},"ŵ":{"ha":1189,"x_min":83,"x_max":1222,"o":"m 189 0 q 160 10 168 0 q 150 35 151 21 l 85 681 q 95 709 83 696 q 124 722 107 722 l 297 722 q 325 713 317 722 q 335 692 333 703 l 364 349 l 543 690 q 561 711 549 700 q 594 722 574 722 l 706 722 q 735 711 726 722 q 744 690 743 700 l 779 349 l 953 692 q 971 712 958 701 q 1003 722 983 722 l 1194 722 q 1218 708 1214 722 q 1215 679 1222 694 l 878 35 q 859 10 872 21 q 825 0 846 0 l 669 0 q 641 10 649 0 q 631 35 633 21 l 576 365 l 392 35 q 372 10 385 21 q 339 0 360 0 l 189 0 m 408 826 q 390 847 388 826 q 401 865 393 858 l 586 1026 q 616 1047 604 1042 q 642 1053 628 1053 l 781 1053 q 805 1047 794 1053 q 825 1026 815 1042 l 940 865 q 944 847 947 858 q 919 826 940 826 l 849 826 q 823 828 835 826 q 800 836 811 829 l 689 899 l 551 836 q 525 828 538 829 q 500 826 513 826 l 408 826 z "},"ẅ":{"ha":1189,"x_min":83,"x_max":1222,"o":"m 189 0 q 160 10 168 0 q 150 35 151 21 l 85 681 q 95 709 83 696 q 124 722 107 722 l 297 722 q 325 713 317 722 q 335 692 333 703 l 364 349 l 543 690 q 561 711 549 700 q 594 722 574 722 l 706 722 q 735 711 726 722 q 744 690 743 700 l 779 349 l 953 692 q 971 712 958 701 q 1003 722 983 722 l 1194 722 q 1218 708 1214 722 q 1215 679 1222 694 l 878 35 q 859 10 872 21 q 825 0 846 0 l 669 0 q 641 10 649 0 q 631 35 633 21 l 576 365 l 392 35 q 372 10 385 21 q 339 0 360 0 l 189 0 m 750 835 q 729 844 736 835 q 725 867 722 853 l 757 1017 q 770 1040 760 1031 q 794 1049 781 1049 l 944 1049 q 965 1040 958 1049 q 969 1017 972 1031 l 939 867 q 925 844 936 853 q 900 835 914 835 l 750 835 m 440 835 q 419 844 426 835 q 415 867 413 853 l 447 1017 q 460 1040 450 1031 q 485 1049 471 1049 l 635 1049 q 656 1040 649 1049 q 661 1017 664 1031 l 629 867 q 615 844 626 853 q 590 835 604 835 l 440 835 z "},"ẁ":{"ha":1189,"x_min":83,"x_max":1222,"o":"m 189 0 q 160 10 168 0 q 150 35 151 21 l 85 681 q 95 709 83 696 q 124 722 107 722 l 297 722 q 325 713 317 722 q 335 692 333 703 l 364 349 l 543 690 q 561 711 549 700 q 594 722 574 722 l 706 722 q 735 711 726 722 q 744 690 743 700 l 779 349 l 953 692 q 971 712 958 701 q 1003 722 983 722 l 1194 722 q 1218 708 1214 722 q 1215 679 1222 694 l 878 35 q 859 10 872 21 q 825 0 846 0 l 669 0 q 641 10 649 0 q 631 35 633 21 l 576 365 l 392 35 q 372 10 385 21 q 339 0 360 0 l 189 0 m 608 826 q 578 833 588 826 q 558 849 568 839 l 399 1007 q 394 1025 393 1015 q 426 1053 399 1053 l 658 1053 q 684 1048 675 1053 q 704 1026 693 1043 l 800 867 q 804 849 807 860 q 778 826 799 826 l 608 826 z "},"x":{"ha":847,"x_min":-72,"x_max":886,"o":"m -43 0 q -68 18 -64 0 q -61 50 -72 36 l 242 379 l 100 672 q 106 706 94 689 q 136 722 118 722 l 342 722 q 369 713 361 722 q 379 697 376 704 l 451 553 l 586 697 q 603 713 592 704 q 635 722 614 722 l 856 722 q 882 703 878 722 q 874 671 886 685 l 592 361 l 739 50 q 738 16 747 32 q 706 0 729 0 l 494 0 q 470 8 478 0 q 458 24 463 17 l 379 183 l 231 24 q 215 9 225 18 q 185 0 204 0 l -43 0 z "},"y":{"ha":868,"x_min":39,"x_max":917,"o":"m 67 -264 q 45 -249 51 -264 q 49 -221 39 -235 l 218 46 l 82 681 q 90 710 79 697 q 122 722 101 722 l 307 722 q 334 713 326 722 q 343 692 342 703 l 410 331 l 632 692 q 651 713 639 703 q 682 722 663 722 l 889 722 q 912 708 907 722 q 908 679 917 694 l 321 -233 q 302 -254 315 -244 q 269 -264 289 -264 l 67 -264 z "},"ý":{"ha":868,"x_min":39,"x_max":917,"o":"m 67 -264 q 45 -249 51 -264 q 49 -221 39 -235 l 218 46 l 82 681 q 90 710 79 697 q 122 722 101 722 l 307 722 q 334 713 326 722 q 343 692 342 703 l 410 331 l 632 692 q 651 713 639 703 q 682 722 663 722 l 889 722 q 912 708 907 722 q 908 679 917 694 l 321 -233 q 302 -254 315 -244 q 269 -264 289 -264 l 67 -264 m 431 826 q 413 849 408 826 q 424 867 415 860 l 589 1026 q 618 1048 607 1043 q 646 1053 629 1053 l 867 1053 q 888 1025 890 1053 q 876 1008 886 1015 l 649 849 q 622 833 635 839 q 588 826 608 826 l 431 826 z "},"ŷ":{"ha":868,"x_min":39,"x_max":917,"o":"m 67 -264 q 45 -249 51 -264 q 49 -221 39 -235 l 218 46 l 82 681 q 90 710 79 697 q 122 722 101 722 l 307 722 q 334 713 326 722 q 343 692 342 703 l 410 331 l 632 692 q 651 713 639 703 q 682 722 663 722 l 889 722 q 912 708 907 722 q 908 679 917 694 l 321 -233 q 302 -254 315 -244 q 269 -264 289 -264 l 67 -264 m 271 826 q 253 847 250 826 q 264 865 256 858 l 449 1026 q 478 1047 467 1042 q 504 1053 490 1053 l 643 1053 q 667 1047 657 1053 q 688 1026 678 1042 l 803 865 q 807 847 810 858 q 782 826 803 826 l 711 826 q 685 828 697 826 q 663 836 674 829 l 551 899 l 414 836 q 388 828 400 829 q 363 826 375 826 l 271 826 z "},"ÿ":{"ha":868,"x_min":39,"x_max":917,"o":"m 67 -264 q 45 -249 51 -264 q 49 -221 39 -235 l 218 46 l 82 681 q 90 710 79 697 q 122 722 101 722 l 307 722 q 334 713 326 722 q 343 692 342 703 l 410 331 l 632 692 q 651 713 639 703 q 682 722 663 722 l 889 722 q 912 708 907 722 q 908 679 917 694 l 321 -233 q 302 -254 315 -244 q 269 -264 289 -264 l 67 -264 m 611 835 q 590 844 597 835 q 586 867 583 853 l 618 1017 q 631 1040 621 1031 q 656 1049 642 1049 l 806 1049 q 826 1040 819 1049 q 831 1017 833 1031 l 800 867 q 786 844 797 853 q 761 835 775 835 l 611 835 m 301 835 q 281 844 288 835 q 276 867 274 853 l 308 1017 q 322 1040 311 1031 q 346 1049 332 1049 l 496 1049 q 517 1040 510 1049 q 522 1017 525 1031 l 490 867 q 476 844 488 853 q 451 835 465 835 l 301 835 z "},"ỳ":{"ha":868,"x_min":39,"x_max":917,"o":"m 67 -264 q 45 -249 51 -264 q 49 -221 39 -235 l 218 46 l 82 681 q 90 710 79 697 q 122 722 101 722 l 307 722 q 334 713 326 722 q 343 692 342 703 l 410 331 l 632 692 q 651 713 639 703 q 682 722 663 722 l 889 722 q 912 708 907 722 q 908 679 917 694 l 321 -233 q 302 -254 315 -244 q 269 -264 289 -264 l 67 -264 m 469 826 q 439 833 449 826 q 419 849 429 839 l 260 1007 q 256 1025 254 1015 q 288 1053 260 1053 l 519 1053 q 545 1048 536 1053 q 565 1026 554 1043 l 661 867 q 665 849 668 860 q 639 826 660 826 l 469 826 z "},"z":{"ha":793,"x_min":-31,"x_max":782,"o":"m 1 0 q -22 10 -14 0 q -28 36 -31 21 l 1 171 q 12 197 4 186 q 29 215 19 207 l 385 513 l 119 513 q 97 524 104 513 q 92 549 89 535 l 121 686 q 137 712 124 701 q 164 722 150 722 l 751 722 q 774 712 765 722 q 779 686 782 701 l 749 539 q 722 501 744 518 l 379 210 l 671 210 q 694 199 686 210 q 699 174 703 188 l 669 36 q 654 10 667 21 q 626 0 642 0 l 1 0 z "},"ź":{"ha":793,"x_min":-31,"x_max":856,"o":"m 1 0 q -22 10 -14 0 q -28 36 -31 21 l 1 171 q 12 197 4 186 q 29 215 19 207 l 385 513 l 119 513 q 97 524 104 513 q 92 549 89 535 l 121 686 q 137 712 124 701 q 164 722 150 722 l 751 722 q 774 712 765 722 q 779 686 782 701 l 749 539 q 722 501 744 518 l 379 210 l 671 210 q 694 199 686 210 q 699 174 703 188 l 669 36 q 654 10 667 21 q 626 0 642 0 l 1 0 m 396 826 q 378 849 374 826 q 389 867 381 860 l 554 1026 q 583 1048 572 1043 q 611 1053 594 1053 l 832 1053 q 853 1025 856 1053 q 842 1008 851 1015 l 614 849 q 587 833 600 839 q 553 826 574 826 l 396 826 z "},"ž":{"ha":793,"x_min":-31,"x_max":818,"o":"m 1 0 q -22 10 -14 0 q -28 36 -31 21 l 1 171 q 12 197 4 186 q 29 215 19 207 l 385 513 l 119 513 q 97 524 104 513 q 92 549 89 535 l 121 686 q 137 712 124 701 q 164 722 150 722 l 751 722 q 774 712 765 722 q 779 686 782 701 l 749 539 q 722 501 744 518 l 379 210 l 671 210 q 694 199 686 210 q 699 174 703 188 l 669 36 q 654 10 667 21 q 626 0 642 0 l 1 0 m 425 826 q 401 832 411 826 q 381 851 392 838 l 264 1013 q 261 1031 258 1019 q 269 1047 263 1042 q 286 1053 276 1053 l 357 1053 q 381 1051 369 1053 q 406 1043 393 1049 l 517 979 l 654 1043 q 680 1051 668 1049 q 706 1053 692 1053 l 797 1053 q 815 1032 818 1053 q 804 1013 813 1021 l 618 851 q 590 832 601 838 q 564 826 578 826 l 425 826 z "},"ż":{"ha":793,"x_min":-31,"x_max":782,"o":"m 1 0 q -22 10 -14 0 q -28 36 -31 21 l 1 171 q 12 197 4 186 q 29 215 19 207 l 385 513 l 119 513 q 97 524 104 513 q 92 549 89 535 l 121 686 q 137 712 124 701 q 164 722 150 722 l 751 722 q 774 712 765 722 q 779 686 782 701 l 749 539 q 722 501 744 518 l 379 210 l 671 210 q 694 199 686 210 q 699 174 703 188 l 669 36 q 654 10 667 21 q 626 0 642 0 l 1 0 m 413 832 q 392 841 399 832 q 388 864 385 850 l 422 1024 q 435 1047 425 1038 q 460 1056 446 1056 l 621 1056 q 642 1047 635 1056 q 646 1024 649 1038 l 611 864 q 597 841 608 850 q 572 832 586 832 l 413 832 z "},"ﬁ":{"ha":1014,"x_min":47,"x_max":1069,"o":"m 108 0 q 85 10 93 0 q 79 36 76 21 l 181 510 l 79 510 q 56 520 64 510 q 51 546 47 531 l 79 686 q 95 712 82 701 q 124 722 108 722 l 225 722 l 233 757 q 306 920 256 861 q 430 1003 356 979 q 599 1028 504 1028 l 1038 1028 q 1061 1017 1053 1028 q 1067 992 1069 1007 l 1036 851 q 1021 826 1033 836 q 993 815 1008 815 l 593 815 q 534 798 556 815 q 506 750 513 781 l 500 722 l 972 722 q 996 712 988 722 q 1001 686 1004 701 l 863 36 q 847 10 860 21 q 819 0 835 0 l 618 0 q 594 10 603 0 q 589 36 586 21 l 689 510 l 454 510 l 353 36 q 338 10 350 21 q 310 0 325 0 l 108 0 z "}}}
